SplineFontDB: 3.0
FontName: boon-300-oblique
FullName: Boon Light Oblique
FamilyName: Boon
Weight: 300
Copyright: Copyright (C) 2013 Sungsit Sawaiwan <http://sungsit.com/>
UComments: "Created with FontForge 2.0 <http://fontforge.org/>" 
FontLog: "##  Boon v0.6, 2013-09-24+AAoA  - Redesigned Long S, Small Ezh & Small German Eszett+AAoA  - Improved some Latin diacritics compositions+AAoA  - Added **boon-300**, **boon-300-oblique**, **boon-500** & **boon-500-oblique**+AAoACgAA##  Boon v0.5, 2013-09-17+AAoA  - Redraw all glyphs+AAoA  - Match Latin x-height with Thai +DhoA--height+AAoA  - Reduce Latin cap-height+AAoA  - Add more character spacing+AAoA  - Complete **Basic Latin**, **Latin-1 supplement** & **Thai**+AAoA  - Rename all font files+AAoA      1. Boon-Book +AD0A> **boon-400**+AAoA      2. Boon-Book-Italic +AD0A> **boon-400-oblique**+AAoA      3. Boon-Bold +AD0A> **boon-700**+AAoA      4. Boon-Bold-italic +AD0A> **boon-700-oblique**+AAoA  - Move source files to **boon-dev** repository <https://github.com/sungsit/boon-dev>+AAoACgAA##  Boon v0.4, 2013-07-15+AAoA  - Improve kerning+AAoACgAA##  Boon v0.3.1, 2013-07-01+AAoA  - Corrected font version+AAoACgAA##  Boon v0.3, 2013-07-01+AAoA  - Improved Latin kerning+AAoA  - Added HTML/CSS and project page+AAoACgAA##  Boon v0.2, 2013-06-30+AAoA  - Included Boon-Bold and Boon-Bold-Italic (auto-generated)+AAoA  - Renamed Boon-Italic to Boon-Book-Italic+AAoACgAA##  Boon v0.1, 2013-06-27+AAoA  - Released Boon-Book and Boon-Italic (auto-generated)" 
Version: 0.6
ItalicAngle: -13
UnderlinePosition: -60
UnderlineWidth: 20
Ascent: 840
Descent: 360
woffMajor: 0
woffMinor: 6
LayerCount: 2
Layer: 0 0 "Back"  1
Layer: 1 0 "Fore"  0
FSType: 8
OS2Version: 0
OS2_WeightWidthSlopeOnly: 0
OS2_UseTypoMetrics: 1
CreationTime: 1369324892
ModificationTime: 1379950569
PfmFamily: 33
TTFWeight: 300
TTFWidth: 5
LineGap: 108
VLineGap: 0
OS2TypoAscent: 0
OS2TypoAOffset: 1
OS2TypoDescent: 0
OS2TypoDOffset: 1
OS2TypoLinegap: 108
OS2WinAscent: 0

StartChar: uni0E04
Encoding: 3588 3588 0
Width: 670
VWidth: 0
Flags: W
HStem: 0 21G<500 574.617> 240 40<359.294 439.405> 380 40<373.826 453.11> 560 60<352.603 554.075>
LayerCount: 2
Fore
SplineSet
426.965 420 m 0
 476.965 420 507.729 380 496.187 330 c 0
 484.644 280 435.408 240 385.408 240 c 0
 339.408 240 309.488 275 314.646 319 c 1
 267.873 268 232.941 186 213.087 100 c 2
 187.691 -10 l 1
 187.691 -10 99.6152 -6 106.926 30 c 1
 106.926 30 138.238 79 152.321 140 c 0
 175.87 242 151.18 265 182.348 400 c 0
 213.977 537 337.139 620 473.139 620 c 0
 609.139 620 693.977 537 662.348 400 c 2
 570 0 l 1
 500 0 l 1
 592.348 400 l 2
 611.278 482 580.286 560 459.286 560 c 0
 338.286 560 271.278 482 252.348 400 c 0
 238.726 341 235.029 299 233.025 260 c 1
 275.495 340 343.965 420 426.965 420 c 0
417.729 380 m 0
 389.729 380 362.65 358 356.187 330 c 0
 349.723 302 366.644 280 394.644 280 c 0
 422.644 280 449.723 302 456.187 330 c 0
 462.65 358 445.729 380 417.729 380 c 0
EndSplineSet
EndChar

StartChar: uni0E05
Encoding: 3589 3589 2
Width: 670
VWidth: 0
Flags: W
HStem: 0 21G<500 574.617> 240 40<359.294 439.405> 380 40<374.332 453.11> 600 20G<351.639 406.188 530.855 594.639>
LayerCount: 2
Fore
SplineSet
426.965 420 m 0
 476.965 420 507.729 380 496.187 330 c 0
 484.644 280 435.408 240 385.408 240 c 0
 339.408 240 309.488 275 314.646 319 c 1
 267.873 268 232.941 186 213.087 100 c 2
 187.691 -10 l 1
 187.691 -10 99.6152 -6 106.926 30 c 1
 106.926 30 138.238 79 152.321 140 c 0
 175.87 242 155.798 285 186.965 420 c 0
 214.207 538 315.139 620 388.139 620 c 1
 455.823 545 l 1
 558.139 620 l 1
 631.139 620 694.207 538 666.965 420 c 2
 570 0 l 1
 500 0 l 1
 596.965 420 l 2
 615.665 501 591.361 543 559.286 560 c 1
 440.816 480 l 1
 359.286 560 l 1
 319.361 543 275.665 501 256.965 420 c 0
 242.65 358 238.338 309 234.949 264 c 1
 277.188 343 345.965 420 426.965 420 c 0
417.729 380 m 0
 389.729 380 362.65 358 356.187 330 c 0
 349.723 302 366.644 280 394.644 280 c 0
 422.644 280 449.723 302 456.187 330 c 0
 462.65 358 445.729 380 417.729 380 c 0
EndSplineSet
EndChar

StartChar: uni0E14
Encoding: 3604 3604 3
Width: 670
VWidth: 0
Flags: W
HStem: 0 21G<500 574.617> 240 40<359.263 419.908> 380 40<372.968 453.11> 560 60<352.603 554.075>
LayerCount: 2
Fore
SplineSet
426.965 420 m 0
 476.965 420 507.729 380 496.187 330 c 0
 460.402 175 214.703 107 187.691 -10 c 1
 187.691 -10 99.6152 -6 106.926 30 c 1
 106.926 30 138.238 79 152.321 140 c 0
 175.87 242 151.18 265 182.348 400 c 0
 213.977 537 337.139 620 473.139 620 c 0
 609.139 620 693.977 537 662.348 400 c 2
 570 0 l 1
 500 0 l 1
 592.348 400 l 2
 611.278 482 580.286 560 459.286 560 c 0
 338.286 560 271.278 482 252.348 400 c 0
 222.104 269 240.099 217 215.396 110 c 2
 212.625 98 l 1
 266.092 152 347.172 187 400.64 241 c 1
 395.408 240 390.408 240 385.408 240 c 0
 335.408 240 304.644 280 316.187 330 c 0
 327.729 380 376.965 420 426.965 420 c 0
417.729 380 m 0
 389.729 380 362.65 358 356.187 330 c 0
 349.723 302 366.644 280 394.644 280 c 0
 422.644 280 449.723 302 456.187 330 c 0
 462.65 358 445.729 380 417.729 380 c 0
EndSplineSet
EndChar

StartChar: uni0E15
Encoding: 3605 3605 4
Width: 670
VWidth: 0
Flags: W
HStem: 0 21G<500 574.617> 240 40<359.263 419.908> 380 40<372.968 453.11> 600 20G<351.639 406.188 530.855 594.639>
LayerCount: 2
Fore
SplineSet
426.965 420 m 0
 476.965 420 507.729 380 496.187 330 c 0
 460.402 175 214.703 107 187.691 -10 c 1
 187.691 -10 99.6152 -6 106.926 30 c 1
 106.926 30 138.238 79 152.321 140 c 0
 175.87 242 155.798 285 186.965 420 c 0
 214.207 538 315.139 620 388.139 620 c 1
 455.823 545 l 1
 558.139 620 l 1
 631.139 620 694.207 538 666.965 420 c 2
 570 0 l 1
 500 0 l 1
 596.965 420 l 2
 615.665 501 591.361 543 559.286 560 c 1
 440.816 480 l 1
 359.286 560 l 1
 319.361 543 275.665 501 256.965 420 c 0
 226.721 289 240.099 217 215.396 110 c 2
 212.625 98 l 1
 266.092 152 347.172 187 400.64 241 c 1
 395.408 240 390.408 240 385.408 240 c 0
 335.408 240 304.644 280 316.187 330 c 0
 327.729 380 376.965 420 426.965 420 c 0
417.729 380 m 0
 389.729 380 362.65 358 356.187 330 c 0
 349.723 302 366.644 280 394.644 280 c 0
 422.644 280 449.723 302 456.187 330 c 0
 462.65 358 445.729 380 417.729 380 c 0
EndSplineSet
EndChar

StartChar: uni0E01
Encoding: 3585 3585 5
Width: 670
VWidth: 0
Flags: W
HStem: 0 21G<140 214.617 500 574.617> 400 10<373.284 392.348> 560 60<367.185 557.345>
LayerCount: 2
Fore
SplineSet
210 0 m 1
 140 0 l 1
 206.952 290 l 2
 220.804 350 252.729 380 280.193 395 c 1
 186.965 420 l 1
 207.432 474 316.139 620 483.139 620 c 0
 618.139 620 693.515 535 662.348 400 c 2
 570 0 l 1
 500 0 l 1
 592.348 400 l 2
 611.278 482 581.286 560 469.286 560 c 0
 375.286 560 299.127 503 263.582 440 c 1
 394.656 410 l 1
 392.348 400 l 1
 391.348 400 l 1
 379.116 399 299.808 389 276.952 290 c 2
 210 0 l 1
EndSplineSet
EndChar

StartChar: uni0E16
Encoding: 3606 3606 6
Width: 670
VWidth: 0
Flags: W
HStem: -10 50<212.52 297.955> 0 21G<500 574.617> 140 50<253.103 309.037> 410 10<375.271 394.656> 560 60<362.901 563.065>
LayerCount: 2
Fore
SplineSet
283.865 190 m 0x78
 338.865 190 373.476 145 360.778 90 c 0
 348.08 35 292.691 -10 237.691 -10 c 0xb8
 182.691 -10 148.08 35 160.778 90 c 2
 206.952 290 l 2
 220.804 350 255.039 390 282.502 405 c 1
 189.273 430 l 1
 209.74 484 316.139 620 483.139 620 c 0
 618.139 620 695.823 545 664.656 410 c 2
 570 0 l 1
 500 0 l 1
 594.656 410 l 2
 613.587 492 581.286 560 469.286 560 c 0
 375.286 560 301.436 513 265.891 450 c 1
 396.965 420 l 1
 394.656 410 l 1
 393.656 410 l 1
 381.425 409 299.808 389 276.952 290 c 2
 252.711 185 l 1
 262.403 188 273.865 190 283.865 190 c 0x78
272.321 140 m 0
 244.321 140 217.242 118 210.778 90 c 0
 204.313 62 221.234 40 249.234 40 c 0
 277.234 40 304.313 62 310.778 90 c 0
 317.242 118 300.321 140 272.321 140 c 0
EndSplineSet
EndChar

StartChar: uni0E28
Encoding: 3624 3624 7
Width: 680
VWidth: 0
Flags: W
HStem: 0 21G<500 574.617> 240 40<359.294 439.405> 380 40<373.826 453.11> 560 60<352.603 554.278>
VStem: 716.225 60<639.754 720>
LayerCount: 2
Fore
SplineSet
426.965 420 m 0
 476.965 420 507.729 380 496.187 330 c 0
 484.644 280 435.408 240 385.408 240 c 0
 339.408 240 309.488 275 314.646 319 c 1
 267.873 268 232.941 186 213.087 100 c 2
 187.691 -10 l 1
 187.691 -10 99.6152 -6 106.926 30 c 1
 106.926 30 138.238 79 152.321 140 c 0
 175.87 242 151.18 265 182.348 400 c 0
 213.977 537 337.139 620 473.139 620 c 0
 544.139 620 600.828 597 635.362 556 c 1
 673.52 587 694.985 628 716.225 720 c 1
 776.225 720 l 1
 751.291 612 704.439 552 658.359 517 c 1
 670.971 485 672.736 445 662.348 400 c 2
 570 0 l 1
 500 0 l 1
 592.348 400 l 2
 611.278 482 580.286 560 459.286 560 c 0
 338.286 560 271.278 482 252.348 400 c 0
 238.726 341 235.029 299 233.025 260 c 1
 275.495 340 343.965 420 426.965 420 c 0
417.729 380 m 0
 389.729 380 362.65 358 356.187 330 c 0
 349.723 302 366.644 280 394.644 280 c 0
 422.644 280 449.723 302 456.187 330 c 0
 462.65 358 445.729 380 417.729 380 c 0
EndSplineSet
Substitution2: "Ascent Substitute" uni0E28.alt
EndChar

StartChar: uni0E20
Encoding: 3616 3616 8
Width: 690
VWidth: 0
Flags: W
HStem: -10 50<152.52 237.955> 0 21G<520 594.617> 140 50<163.601 237.09> 410 10<409.635 424.656> 560 60<382.83 583.065>
LayerCount: 2
Fore
SplineSet
503.139 620 m 0xb8
 638.139 620 715.823 545 684.656 410 c 2
 590 0 l 1
 520 0 l 1x78
 614.656 410 l 2
 633.587 492 601.286 560 489.286 560 c 0
 395.286 560 320.974 511 285.891 450 c 1
 426.965 420 l 1
 424.656 410 l 1
 424.656 410 340.731 393 319.261 300 c 2
 310.025 260 l 2
 295.942 199 320.633 176 300.778 90 c 0
 288.08 35 232.691 -10 177.691 -10 c 0
 122.691 -10 88.0801 35 100.778 90 c 0
 113.476 145 168.865 190 223.865 190 c 0
 228.865 190 232.865 190 237.634 189 c 1
 235.097 204 233.1 230 240.025 260 c 2
 249.261 300 l 2
 263.574 362 299.808 389 325.578 401 c 1
 209.273 430 l 1
 229.74 484 336.139 620 503.139 620 c 0xb8
212.321 140 m 0
 184.321 140 157.242 118 150.778 90 c 0
 144.313 62 161.234 40 189.234 40 c 0xb8
 217.234 40 244.313 62 250.778 90 c 0
 257.242 118 240.321 140 212.321 140 c 0
EndSplineSet
EndChar

StartChar: uni0E48
Encoding: 3656 3656 9
Width: 0
VWidth: 0
Flags: W
HStem: 1000 230
VStem: 70.1025 103.865
LayerCount: 2
Fore
SplineSet
113.968 1230 m 1
 173.968 1230 l 1
 120.868 1000 l 1
 70.1025 1040 l 1
 113.968 1230 l 1
EndSplineSet
Position2: "Nikhahit & Tone High-Left" dx=-240 dy=0 dh=0 dv=0
Position2: "Mai Han-Akat & Tone High-Left" dx=-300 dy=0 dh=0 dv=0
Position2: "Tone High-Left" dx=-180 dy=0 dh=0 dv=0
MultipleSubs2: "Tone High-Low" uni0E48.low
EndChar

StartChar: uni0E34
Encoding: 3636 3636 10
Width: 0
VWidth: 0
Flags: W
HStem: 800 26<-275.303 -187.338> 905 55<-231.276 -57.6325>
AnchorPoint: "thai_above" 333.267 630 mark 0
LayerCount: 2
Fore
SplineSet
-275.303 826 m 1
 -188.303 826 -95.2275 809 14.1514 750 c 1
 3.62109 830 -43.0645 905 -151.064 905 c 0
 -217.064 905 -257.761 863 -275.303 826 c 1
-355.306 800 m 1
 -344.455 847 -270.366 960 -138.366 960 c 0
 42.6338 960 70.7695 783 51.6074 700 c 1
 -113.614 790 -234.306 800 -355.306 800 c 1
EndSplineSet
Substitution2: "Thai Tone & Vowel Above-Narrow" uni0E34.narrow
Position2: "Vowel Above-Left" dx=-140 dy=0 dh=0 dv=0
EndChar

StartChar: uni0E38
Encoding: 3640 3640 11
Width: 0
VWidth: 0
Flags: W
HStem: -240 40<-263.458 -220.47> -110 40<-252.186 -178.111>
VStem: -305.784 170
LayerCount: 2
Fore
SplineSet
-219.946 -238 m 1
 -226.178 -239 -233.408 -240 -240.408 -240 c 0
 -287.408 -240 -316.636 -202 -305.784 -155 c 0
 -294.934 -108 -248.161 -70 -201.161 -70 c 0
 -154.161 -70 -124.934 -108 -135.784 -155 c 2
 -178.495 -340 l 1
 -243.495 -340 l 1
 -219.946 -238 l 1
-210.396 -110 m 0
 -235.396 -110 -260.013 -130 -265.784 -155 c 0
 -271.557 -180 -256.174 -200 -231.174 -200 c 0
 -206.174 -200 -181.557 -180 -175.784 -155 c 0
 -170.013 -130 -185.396 -110 -210.396 -110 c 0
EndSplineSet
Position2: "Vowel Below-Low" dx=0 dy=-200 dh=0 dv=0
EndChar

StartChar: uni0E35
Encoding: 3637 3637 12
Width: 0
VWidth: 0
Flags: W
HStem: 780 26<-279.92 -191.956> 885 55<-235.893 -61.9316>
AnchorPoint: "thai_above" 333.267 630 mark 0
LayerCount: 2
Fore
SplineSet
-279.92 806 m 1
 -192.92 806 -99.8447 789 9.53418 730 c 1
 -0.99707 810 -47.6816 885 -155.682 885 c 0
 -221.682 885 -262.378 843 -279.92 806 c 1
56.251 980 m 1
 109.325 950 l 1
 46.9902 680 l 1
 -118.231 770 -238.923 780 -359.923 780 c 1
 -349.072 827 -274.984 940 -142.984 940 c 0
 -46.9844 940 5.93359 879 26.2344 811 c 1
 27.6982 839 30.3936 868 35.4727 890 c 2
 56.251 980 l 1
EndSplineSet
Substitution2: "Thai Tone & Vowel Above-Narrow" uni0E35.narrow
Position2: "Vowel Above-Left" dx=-140 dy=0 dh=0 dv=0
EndChar

StartChar: uni0E48.low
Encoding: 63237 63237 13
Width: 0
VWidth: 0
Flags: W
HStem: 700 240<27.0156 41.6074>
VStem: -28.3926 125.408
AnchorPoint: "thai_above" 333.267 630 mark 0
LayerCount: 2
Fore
SplineSet
27.0156 940 m 1
 97.0156 940 l 1
 41.6074 700 l 1
 -28.3926 700 l 1
 27.0156 940 l 1
EndSplineSet
Position2: "Tone Low-Left" dx=-220 dy=0 dh=0 dv=0
Substitution2: "Tone Low-High" uni0E48
EndChar

StartChar: uni0E49.low
Encoding: 63238 63238 14
Width: 0
VWidth: 0
Flags: W
HStem: 700 45<-285.752 -184.759 -158.003 -35.4583> 780 35<-189.767 -171.923> 895 35<-179.945 -115.125>
VStem: 77.3984 65<851.423 920>
AnchorPoint: "thai_above" 333.267 630 mark 0
LayerCount: 2
Fore
SplineSet
-135.293 930 m 0
 -94.293 930 -68.1426 896 -77.6074 855 c 0
 -92.3828 791 -158.003 745 -158.003 745 c 1
 -138.003 745 l 2
 -30.0029 745 49.6943 800 77.3984 920 c 1
 142.398 920 l 1
 112.386 790 21.6074 700 -148.393 700 c 2
 -263.393 700 l 2
 -301.393 700 -298.003 745 -298.003 745 c 1
 -228.003 745 l 2
 -213.003 745 -191.002 758 -171.923 780 c 1
 -212.692 781 -237.073 814 -227.607 855 c 0
 -218.143 896 -176.293 930 -135.293 930 c 0
-143.373 895 m 0
 -165.373 895 -187.528 877 -192.607 855 c 0
 -197.687 833 -183.843 815 -161.843 815 c 0
 -139.843 815 -117.687 833 -112.607 855 c 0
 -107.528 877 -121.373 895 -143.373 895 c 0
EndSplineSet
Substitution2: "Thai Tone & Vowel Above-Narrow" uni0E49.narrow
Substitution2: "Thai Special Tone for Asc" uni0E49
Position2: "Tone Low-Left" dx=-220 dy=0 dh=0 dv=0
Substitution2: "Tone Low-High" uni0E49
EndChar

StartChar: uni0E4A.low
Encoding: 63239 63239 15
Width: 0
VWidth: 0
Flags: W
HStem: 695 35<-269.242 -204.895 -120.312 -100.488> 810 35<-259.633 -194.749> 900 40<-236.481 -171.074 -82.2188 -58.0049>
VStem: 79.707 55<852.192 930>
AnchorPoint: "thai_above" 333.267 630 mark 0
LayerCount: 2
Fore
SplineSet
-82.2188 900 m 1
 -127.607 855 l 1
 -167.607 855 l 1
 -167.683 872 -170.219 900 -197.219 900 c 0
 -228.219 900 -251.837 867 -263.379 830 c 1
 -248.07 840 -231.916 845 -214.916 845 c 0
 -173.916 845 -147.766 811 -157.231 770 c 0
 -166.697 729 -208.547 695 -249.547 695 c 0
 -303.547 695 -326.387 752 -310.688 820 c 0
 -294.989 888 -234.984 940 -187.984 940 c 0
 -151.984 940 -136.448 912 -131.835 893 c 1
 -87.9844 940 l 1
 -72.9844 940 l 2
 -16.9844 940 10.2422 889 -5.68848 820 c 0
 -11.9219 793 -23.6934 768 -39.0801 749 c 1
 3.69043 761 50.6182 804 79.707 930 c 1
 134.707 930 l 1
 95.6904 761 25.6074 700 -128.393 700 c 1
 -120.312 735 l 1
 -98.3115 735 -60.6152 777 -50.6885 820 c 0
 -40.7607 863 -60.2188 900 -82.2188 900 c 1
-222.997 810 m 0
 -244.997 810 -267.152 792 -272.231 770 c 0
 -277.311 748 -263.466 730 -241.466 730 c 0
 -219.466 730 -197.311 748 -192.231 770 c 0
 -187.152 792 -200.997 810 -222.997 810 c 0
EndSplineSet
Substitution2: "Thai Tone & Vowel Above-Narrow" uni0E4A.narrow
Substitution2: "Thai Special Tone for Asc" uni0E4A
Position2: "Tone Low-Left" dx=-200 dy=0 dh=0 dv=0
Substitution2: "Tone Low-High" uni0E4A
EndChar

StartChar: uni0E4B.low
Encoding: 63240 63240 16
Width: 0
VWidth: 0
Flags: W
HStem: 805 50<-132.607 -34.1514 37.3926 135.849>
VStem: -144.151 291.544
AnchorPoint: "thai_above" 333.267 630 mark 0
LayerCount: 2
Fore
SplineSet
1.63379 960 m 1
 61.6338 960 l 1
 37.3926 855 l 1
 147.393 855 l 1
 135.849 805 l 1
 25.8486 805 l 1
 1.60742 700 l 1
 -58.3926 700 l 1
 -34.1514 805 l 1
 -144.151 805 l 1
 -132.607 855 l 1
 -22.6074 855 l 1
 1.63379 960 l 1
EndSplineSet
Position2: "Tone Low-Left" dx=-230 dy=0 dh=0 dv=0
Substitution2: "Tone Low-High" uni0E4B
EndChar

StartChar: uni0E4C.low
Encoding: 63241 63241 17
Width: 0
VWidth: 0
Flags: W
HStem: 700 35<-105.34 -45.9691>
VStem: 33.0156 64<903.742 940>
AnchorPoint: "thai_above" 333.267 630 mark 0
LayerCount: 2
Fore
SplineSet
-64.1514 805 m 0
 -83.1514 805 -101.845 789 -106.231 770 c 0
 -110.618 751 -99.3115 735 -80.3115 735 c 0
 -60.3115 735 -40.6182 751 -36.2314 770 c 0
 -31.8447 789 -44.1514 805 -64.1514 805 c 0
33.0156 940 m 1
 97.0156 940 l 1
 83.1641 880 23.085 858 -26.6865 833 c 1
 -5.45703 821 4.23242 798 -2.23145 770 c 0
 -11.2354 731 -49.3926 700 -88.3926 700 c 0
 -126.393 700 -151.235 731 -142.231 770 c 0
 -122.839 854 18.7021 878 33.0156 940 c 1
EndSplineSet
Position2: "Tone Low-Left" dx=-140 dy=0 dh=0 dv=0
Substitution2: "Tone Low-High" uni0E4C
EndChar

StartChar: uni0E10.descless
Encoding: 63232 63232 18
Width: 600
VWidth: 0
Flags: W
HStem: 140 45<209.779 285.727> 275 45<219.94 296.466> 400 45<262.736 423.568> 550 60<623.081 656.978> 565 55<343.858 530.444>
LayerCount: 2
Fore
SplineSet
182.348 400 m 1xe8
 212.591 531 323.139 620 453.139 620 c 0xe8
 526.139 620 567.903 580 591.978 550 c 1
 604.133 568 643.83 610 670.83 610 c 1
 656.978 550 l 1xf0
 633.978 550 595.897 515 579.279 495 c 1
 550.053 533 503.44 565 440.44 565 c 0
 346.44 565 277.973 498 262.736 445 c 1
 465.736 445 571.582 440 543.878 320 c 2
 483.853 60 l 2
 473.463 15 421.691 -10 377.691 -10 c 1
 390.395 97 373.095 178 342.407 227 c 1
 329.325 179 281.321 140 232.321 140 c 0
 182.321 140 151.557 180 163.1 230 c 0
 174.644 280 223.878 320 273.878 320 c 0
 353.878 320 417.637 215 418.47 80 c 1
 473.878 320 l 2
 491.424 396 419.348 400 182.348 400 c 1xe8
263.488 275 m 0
 238.488 275 213.871 255 208.1 230 c 0
 202.328 205 217.711 185 242.711 185 c 0
 267.711 185 292.328 205 298.1 230 c 0
 303.871 255 288.488 275 263.488 275 c 0
EndSplineSet
EndChar

StartChar: uni0E0D.descless
Encoding: 63247 63247 19
Width: 930
VWidth: 0
Flags: W
HStem: -20 60<609.923 750.471> -10 50<212.52 297.955> 140 50<253.103 309.037> 410 10<375.271 394.656> 560 60<362.901 563.065> 580 20G<893.903 968.521>
LayerCount: 2
Fore
SplineSet
272.321 140 m 0x70
 244.321 140 217.242 118 210.778 90 c 0
 204.313 62 221.234 40 249.234 40 c 0
 277.234 40 304.313 62 310.778 90 c 0
 317.242 118 300.321 140 272.321 140 c 0x70
283.865 190 m 0
 338.865 190 373.476 145 360.778 90 c 0
 348.08 35 292.691 -10 237.691 -10 c 0
 182.691 -10 148.08 35 160.778 90 c 2
 206.952 290 l 2
 220.804 350 255.039 390 282.502 405 c 1
 189.273 430 l 1
 209.74 484 316.139 620 483.139 620 c 0x78
 618.139 620 695.823 545 664.656 410 c 2
 600.013 130 l 2
 592.395 97 595.234 40 674.234 40 c 0
 753.234 40 782.395 97 790.013 130 c 2
 898.521 600 l 1
 968.521 600 l 1xb4
 860.013 130 l 2
 851.24 92 811.383 -20 660.383 -20 c 0
 509.383 -20 521.24 92 530.013 130 c 2
 594.656 410 l 2
 613.587 492 581.286 560 469.286 560 c 0xb8
 375.286 560 301.436 513 265.891 450 c 1
 396.965 420 l 1
 394.656 410 l 1
 393.656 410 l 1
 381.425 409 299.808 389 276.952 290 c 2
 252.711 185 l 1
 262.403 188 273.865 190 283.865 190 c 0
EndSplineSet
EndChar

StartChar: uni0E36
Encoding: 3638 3638 20
Width: 0
VWidth: 0
Flags: W
HStem: 780 26<-279.92 -191.956> 885 55<-235.893 -61.5336> 945 35<-0.762148 69.398>
AnchorPoint: "thai_above" 333.267 630 mark 0
LayerCount: 2
Fore
SplineSet
-279.92 806 m 1
 -192.92 806 -99.8447 789 9.53418 730 c 1
 -0.99707 810 -47.6816 885 -155.682 885 c 0
 -221.682 885 -262.378 843 -279.92 806 c 1
46.251 980 m 0
 90.251 980 117.939 944 107.781 900 c 0
 99.4697 864 69.5439 834 35.2354 824 c 1
 54.4609 773 55.5322 717 46.9902 680 c 1
 -118.231 770 -238.923 780 -359.923 780 c 1
 -349.072 827 -274.984 940 -142.984 940 c 0
 -103.984 940 -71.8311 932 -46.0635 918 c 1
 -29.9824 953 8.25098 980 46.251 980 c 0
38.1709 945 m 0
 13.1709 945 -11.4473 925 -17.2188 900 c 0
 -22.9902 875 -7.60742 855 17.3926 855 c 0
 42.3926 855 67.0098 875 72.7812 900 c 0
 78.5527 925 63.1709 945 38.1709 945 c 0
EndSplineSet
Substitution2: "Thai Tone & Vowel Above-Narrow" uni0E36.narrow
Position2: "Vowel Above-Left" dx=-140 dy=0 dh=0 dv=0
EndChar

StartChar: uni0E37
Encoding: 3639 3639 21
Width: 0
VWidth: 0
Flags: W
HStem: 770 26<-282.229 -194.158> 875 55<-238.058 -94.5445>
AnchorPoint: "thai_above" 333.267 630 mark 0
LayerCount: 2
Fore
SplineSet
-282.229 796 m 1
 -195.46 795 -101.153 779 6.99414 719 c 1
 -2.53613 799 -49.9902 875 -157.99 875 c 0
 -223.99 875 -263.918 832 -282.229 796 c 1
53.9424 970 m 1
 107.016 940 l 1
 44.6816 670 l 1
 -120.54 760 -241.231 770 -362.231 770 c 1
 -351.381 817 -277.293 930 -145.293 930 c 0
 -127.293 930 -110.985 927 -96.6777 924 c 1
 -76.8232 1010 l 1
 -23.749 980 l 1
 -42.4492 899 l 1
 -7.22168 874 15.0059 836 26.002 797 c 1
 26.6211 830 29.4697 864 35.4727 890 c 2
 53.9424 970 l 1
EndSplineSet
Substitution2: "Thai Tone & Vowel Above-Narrow" uni0E37.narrow
Position2: "Vowel Above-Left" dx=-140 dy=0 dh=0 dv=0
EndChar

StartChar: uni0E2D
Encoding: 3629 3629 22
Width: 650
VWidth: 0
Flags: W
HStem: -20 65<230.205 446.919> 180 50<215.456 301.82> 330 50<227.466 312.901> 560 60<336.529 540.014>
VStem: 176.965 70<420 476.359>
LayerCount: 2
Fore
SplineSet
287.729 380 m 0
 342.729 380 377.341 335 364.644 280 c 0
 351.945 225 296.557 180 241.557 180 c 0
 231.557 180 221.018 182 212.711 185 c 1
 206.938 160 l 2
 191.933 95 217.389 45 335.389 45 c 0
 453.389 45 504.241 105 519.248 170 c 2
 576.965 420 l 2
 591.048 481 569.286 560 444.286 560 c 0
 319.286 560 261.048 481 246.965 420 c 1
 176.965 420 l 1
 203.515 535 311.139 620 458.139 620 c 0
 605.139 620 673.515 535 646.965 420 c 2
 589.248 170 l 2
 557.85 34 442.383 -20 320.383 -20 c 0
 198.383 -20 105.541 24 136.938 160 c 2
 164.644 280 l 2
 177.341 335 232.729 380 287.729 380 c 0
276.187 330 m 0
 248.187 330 221.107 308 214.644 280 c 0
 208.179 252 225.1 230 253.1 230 c 0
 281.1 230 308.179 252 314.644 280 c 0
 321.107 308 304.187 330 276.187 330 c 0
EndSplineSet
EndChar

StartChar: uni0E4D
Encoding: 3661 3661 23
Width: 0
VWidth: 0
Flags: W
HStem: 710 50<-58.0706 51.1814> 910 50<-35.6315 73.6205>
VStem: -117.225 250
AnchorPoint: "thai_above" 333.267 630 mark 0
LayerCount: 2
Fore
SplineSet
25.0898 910 m 0
 -15.9102 910 -57.7598 876 -67.2246 835 c 0
 -76.6904 794 -50.54 760 -9.54004 760 c 0
 31.46 760 73.3096 794 82.7754 835 c 0
 92.2402 876 66.0898 910 25.0898 910 c 0
36.6338 960 m 0
 105.634 960 148.705 904 132.775 835 c 0
 116.845 766 47.916 710 -21.084 710 c 0
 -90.084 710 -133.155 766 -117.225 835 c 0
 -101.295 904 -32.3662 960 36.6338 960 c 0
EndSplineSet
Position2: "Vowel Above-Left" dx=-220 dy=0 dh=0 dv=0
EndChar

StartChar: uni0E33
Encoding: 3635 3635 24
Width: 550
VWidth: 0
Flags: W
HStem: 0 21G<380 454.617> 560 60<287.79 449.075> 710 50<-58.0706 51.1814> 910 50<-35.6315 73.6205>
VStem: 134.656 70<410 470.68>
LayerCount: 2
Fore
SplineSet
544.656 410 m 2
 450 0 l 1
 380 0 l 1
 474.656 410 l 2
 491.048 481 470.286 560 374.286 560 c 0
 278.286 560 221.048 481 204.656 410 c 1
 134.656 410 l 1
 163.515 535 267.139 620 388.139 620 c 0
 509.139 620 573.515 535 544.656 410 c 2
25.0898 910 m 0
 -15.9102 910 -57.7598 876 -67.2246 835 c 0
 -76.6904 794 -50.54 760 -9.54004 760 c 0
 31.46 760 73.3096 794 82.7754 835 c 0
 92.2402 876 66.0898 910 25.0898 910 c 0
36.6338 960 m 0
 105.634 960 148.705 904 132.775 835 c 0
 116.845 766 47.916 710 -21.084 710 c 0
 -90.084 710 -133.155 766 -117.225 835 c 0
 -101.295 904 -32.3662 960 36.6338 960 c 0
EndSplineSet
MultipleSubs2: "Sara Am Decomposite" uni0E4D uni0E32
EndChar

StartChar: uni0E32
Encoding: 3634 3634 25
Width: 550
VWidth: 0
Flags: W
HStem: 0 21G<380 454.617> 560 60<287.79 449.075>
VStem: 134.656 70<410 470.68>
LayerCount: 2
Fore
SplineSet
544.656 410 m 2
 450 0 l 1
 380 0 l 1
 474.656 410 l 2
 491.048 481 470.286 560 374.286 560 c 0
 278.286 560 221.048 481 204.656 410 c 1
 134.656 410 l 1
 163.515 535 267.139 620 388.139 620 c 0
 509.139 620 573.515 535 544.656 410 c 2
EndSplineSet
Substitution2: "Sara AA Substitute" uni0E45
EndChar

StartChar: uni0E25
Encoding: 3621 3621 26
Width: 650
VWidth: 0
Flags: W
HStem: -20 50<189.99 275.647> 130 50<200.947 286.728> 325 55<269.898 449.31> 560 60<342.795 544.01>
LayerCount: 2
Fore
SplineSet
646.965 420 m 2
 556.926 30 l 2
 548.615 -6 472.691 -10 472.691 -10 c 1
 514.248 170 l 2
 529.484 236 462.032 325 365.032 325 c 0
 288.032 325 215.566 284 191.557 180 c 0
 189.479 171 187.17 161 186.092 152 c 1
 208.017 169 234.557 180 261.557 180 c 0
 316.557 180 351.167 135 338.47 80 c 0
 325.771 25 270.383 -20 215.383 -20 c 0
 136.383 -20 92.0049 52 121.557 180 c 0
 152.954 316 260.729 380 367.729 380 c 0
 463.729 380 519.725 328 541.873 268 c 1
 576.965 420 l 2
 591.048 481 574.286 560 449.286 560 c 0
 324.286 560 271.048 481 256.965 420 c 1
 186.965 420 l 1
 213.515 535 316.139 620 463.139 620 c 0
 610.139 620 673.515 535 646.965 420 c 2
250.013 130 m 0
 222.013 130 194.934 108 188.47 80 c 0
 182.005 52 198.926 30 226.926 30 c 0
 254.926 30 282.005 52 288.47 80 c 0
 294.934 108 278.013 130 250.013 130 c 0
EndSplineSet
EndChar

StartChar: uni0E40
Encoding: 3648 3648 27
Width: 340
VWidth: 0
Flags: W
HStem: -10 50<172.52 257.955> 140 50<213.103 269.037> 580 20G<233.903 308.521>
VStem: 120.778 200
LayerCount: 2
Fore
SplineSet
232.321 140 m 0
 204.321 140 177.242 118 170.778 90 c 0
 164.313 62 181.234 40 209.234 40 c 0
 237.234 40 264.313 62 270.778 90 c 0
 277.242 118 260.321 140 232.321 140 c 0
238.521 600 m 1
 308.521 600 l 1
 212.711 185 l 1
 222.403 188 233.865 190 243.865 190 c 0
 298.865 190 333.476 145 320.778 90 c 0
 308.08 35 252.691 -10 197.691 -10 c 0
 142.691 -10 108.08 35 120.778 90 c 2
 238.521 600 l 1
EndSplineSet
EndChar

StartChar: uni0E41
Encoding: 3649 3649 28
Width: 630
VWidth: 0
Flags: W
HStem: -10 50<172.52 257.955 462.52 547.955> 140 50<213.103 269.037 503.103 559.037> 580 20G<233.903 308.521 523.903 598.521>
LayerCount: 2
Fore
SplineSet
522.321 140 m 0
 494.321 140 467.242 118 460.778 90 c 0
 454.313 62 471.234 40 499.234 40 c 0
 527.234 40 554.313 62 560.778 90 c 0
 567.242 118 550.321 140 522.321 140 c 0
528.521 600 m 1
 598.521 600 l 1
 502.711 185 l 1
 512.403 188 523.865 190 533.865 190 c 0
 588.865 190 623.476 145 610.778 90 c 0
 598.08 35 542.691 -10 487.691 -10 c 0
 432.691 -10 398.08 35 410.778 90 c 2
 528.521 600 l 1
232.321 140 m 0
 204.321 140 177.242 118 170.778 90 c 0
 164.313 62 181.234 40 209.234 40 c 0
 237.234 40 264.313 62 270.778 90 c 0
 277.242 118 260.321 140 232.321 140 c 0
238.521 600 m 1
 308.521 600 l 1
 212.711 185 l 1
 222.403 188 233.865 190 243.865 190 c 0
 298.865 190 333.476 145 320.778 90 c 0
 308.08 35 252.691 -10 197.691 -10 c 0
 142.691 -10 108.08 35 120.778 90 c 2
 238.521 600 l 1
EndSplineSet
EndChar

StartChar: uni0E2A
Encoding: 3626 3626 29
Width: 660
VWidth: 0
Flags: W
HStem: -20 50<189.99 275.647> 130 50<200.947 286.728> 325 55<269.898 449.31> 560 60<342.795 544.655>
VStem: 696.225 60<639.686 720>
LayerCount: 2
Fore
SplineSet
646.965 420 m 2
 556.926 30 l 2
 548.615 -6 472.691 -10 472.691 -10 c 1
 514.248 170 l 2
 529.484 236 462.032 325 365.032 325 c 0
 288.032 325 215.566 284 191.557 180 c 0
 189.479 171 187.17 161 186.092 152 c 1
 208.017 169 234.557 180 261.557 180 c 0
 316.557 180 351.167 135 338.47 80 c 0
 325.771 25 270.383 -20 215.383 -20 c 0
 136.383 -20 92.0049 52 121.557 180 c 0
 152.954 316 260.729 380 367.729 380 c 0
 463.729 380 519.725 328 541.873 268 c 1
 576.965 420 l 2
 591.048 481 574.286 560 449.286 560 c 0
 324.286 560 271.048 481 256.965 420 c 1
 186.965 420 l 1
 213.515 535 316.139 620 463.139 620 c 0
 538.139 620 591.06 598 621.748 562 c 1
 655.674 592 676.14 633 696.225 720 c 1
 756.225 720 l 1
 732.445 617 688.824 558 644.514 522 c 1
 654.818 493 655.737 458 646.965 420 c 2
250.013 130 m 0
 222.013 130 194.934 108 188.47 80 c 0
 182.005 52 198.926 30 226.926 30 c 0
 254.926 30 282.005 52 288.47 80 c 0
 294.934 108 278.013 130 250.013 130 c 0
EndSplineSet
Substitution2: "Ascent Substitute" uni0E2A.alt
EndChar

StartChar: uni0E2E
Encoding: 3630 3630 30
Width: 660
VWidth: 0
Flags: W
HStem: -20 65<230.205 446.919> 180 50<215.456 301.82> 330 50<227.466 312.901> 560 60<336.529 542.162>
VStem: 176.965 70<420 476.359> 696.225 60<638.877 720>
LayerCount: 2
Fore
SplineSet
287.729 380 m 0
 342.729 380 377.341 335 364.644 280 c 0
 351.945 225 296.557 180 241.557 180 c 0
 231.557 180 221.018 182 212.711 185 c 1
 206.938 160 l 2
 191.933 95 217.389 45 335.389 45 c 0
 453.389 45 504.241 105 519.248 170 c 2
 576.965 420 l 2
 591.048 481 569.286 560 444.286 560 c 0
 319.286 560 261.048 481 246.965 420 c 1
 176.965 420 l 1
 203.515 535 311.139 620 458.139 620 c 0
 533.139 620 588.06 598 620.286 560 c 1
 655.443 591 675.908 632 696.225 720 c 1
 756.225 720 l 1
 732.215 616 687.594 557 643.282 521 c 1
 654.587 492 655.737 458 646.965 420 c 2
 589.248 170 l 2
 557.85 34 442.383 -20 320.383 -20 c 0
 198.383 -20 105.541 24 136.938 160 c 2
 164.644 280 l 2
 177.341 335 232.729 380 287.729 380 c 0
276.187 330 m 0
 248.187 330 221.107 308 214.644 280 c 0
 208.179 252 225.1 230 253.1 230 c 0
 281.1 230 308.179 252 314.644 280 c 0
 321.107 308 304.187 330 276.187 330 c 0
EndSplineSet
Substitution2: "Ascent Substitute" uni0E2E.alt
EndChar

StartChar: uni0E1D
Encoding: 3613 3613 31
Width: 740
VWidth: 0
Flags: W
HStem: 410 45<293.522 376.499> 555 55<304.474 390.498>
LayerCount: 2
Fore
SplineSet
753.93 840 m 1
 823.93 840 l 1
 768.521 600 l 1
 655.396 110 l 2
 646.161 70 636.234 40 608.617 20 c 0
 582 0 566.691 -10 487.691 -10 c 1
 417.717 250 l 1
 227.691 -10 l 1
 148.691 -10 138 0 120.617 20 c 0
 102.234 40 106.161 70 115.396 110 c 2
 191.582 440 l 2
 216.747 549 284.83 610 360.83 610 c 0
 416.83 610 450.672 566 436.589 505 c 0
 424.583 453 371.656 410 319.656 410 c 0
 294.656 410 273.965 420 260.658 436 c 1
 183.087 100 l 2
 174.545 63 181.467 54 209.774 51 c 1
 401.569 310 l 1
 461.569 310 l 1
 533.774 51 l 1
 563.467 54 574.545 63 583.087 100 c 2
 698.521 600 l 1
 753.93 840 l 1
353.132 555 m 0
 325.132 555 298.053 533 291.589 505 c 0
 285.124 477 302.045 455 330.045 455 c 0
 358.045 455 385.124 477 391.589 505 c 0
 398.053 533 381.132 555 353.132 555 c 0
EndSplineSet
EndChar

StartChar: uni0E1A
Encoding: 3610 3610 32
Width: 720
VWidth: 0
Flags: W
HStem: -20 65<314.551 517.398> 410 50<219.485 275.418> 560 50<230.566 316.001> 580 20G<683.903 758.521>
LayerCount: 2
Fore
SplineSet
279.286 560 m 0xe0
 251.286 560 224.207 538 217.743 510 c 0
 211.278 482 228.199 460 256.199 460 c 0
 284.199 460 311.278 482 317.743 510 c 0
 324.207 538 307.286 560 279.286 560 c 0xe0
688.521 600 m 1xd0
 758.521 600 l 1xd0
 659.248 170 l 2
 627.85 34 520.383 -20 395.383 -20 c 0
 270.383 -20 187.85 34 219.248 170 c 2
 275.811 415 l 1
 266.117 412 254.656 410 244.656 410 c 0
 189.656 410 155.045 455 167.743 510 c 0
 180.44 565 235.83 610 290.83 610 c 0xe0
 345.83 610 380.44 565 367.743 510 c 2
 289.248 170 l 2
 274.241 105 297.389 45 410.389 45 c 0
 523.389 45 574.241 105 589.248 170 c 2
 688.521 600 l 1xd0
EndSplineSet
EndChar

StartChar: uni0E1B
Encoding: 3611 3611 33
Width: 730
VWidth: 0
Flags: W
HStem: -20 65<314.551 517.398> 410 50<219.485 275.418> 560 50<230.566 316.001>
LayerCount: 2
Fore
SplineSet
743.93 840 m 1
 813.93 840 l 1
 758.521 600 l 1
 659.248 170 l 2
 627.85 34 520.383 -20 395.383 -20 c 0
 270.383 -20 187.85 34 219.248 170 c 2
 275.811 415 l 1
 266.117 412 254.656 410 244.656 410 c 0
 189.656 410 155.045 455 167.743 510 c 0
 180.44 565 235.83 610 290.83 610 c 0
 345.83 610 380.44 565 367.743 510 c 2
 289.248 170 l 2
 274.241 105 297.389 45 410.389 45 c 0
 523.389 45 574.241 105 589.248 170 c 2
 688.521 600 l 1
 743.93 840 l 1
279.286 560 m 0
 251.286 560 224.207 538 217.743 510 c 0
 211.278 482 228.199 460 256.199 460 c 0
 284.199 460 311.278 482 317.743 510 c 0
 324.207 538 307.286 560 279.286 560 c 0
EndSplineSet
EndChar

StartChar: uni0E49
Encoding: 3657 3657 34
Width: 0
VWidth: 0
Flags: W
HStem: 1020 40<-78.938 9.72913 35.7207 125.543> 1195 35<17.5444 76.9151>
VStem: 219.351 60<1144.19 1210>
LayerCount: 2
Fore
SplineSet
59.9678 1230 m 0
 97.9678 1230 122.811 1199 113.807 1160 c 0
 99.4932 1098 39.4131 1063 35.7207 1060 c 1
 138.413 1063 196.033 1109 219.351 1210 c 1
 279.351 1210 l 1
 249.338 1080 175.485 1020 15.4854 1020 c 2
 -54.5146 1020 l 2
 -92.5146 1020 -95.2793 1060 -95.2793 1060 c 1
 -39.2793 1060 l 2
 -24.2793 1060 1.25977 1071 23.6465 1090 c 1
 -12.8916 1092 -34.7354 1123 -26.1934 1160 c 0
 -17.1895 1199 20.9678 1230 59.9678 1230 c 0
51.8877 1195 m 0
 31.8877 1195 12.1934 1179 7.80664 1160 c 0
 3.4209 1141 15.7266 1125 35.7266 1125 c 0
 54.7266 1125 73.4209 1141 77.8066 1160 c 0
 82.1934 1179 70.8877 1195 51.8877 1195 c 0
EndSplineSet
Substitution2: "Thai Tone & Vowel Above-Narrow" uni0E49.narrow
Position2: "Nikhahit & Tone High-Left" dx=-210 dy=0 dh=0 dv=0
Position2: "Mai Han-Akat & Tone High-Left" dx=-260 dy=0 dh=0 dv=0
Position2: "Tone High-Left" dx=-180 dy=0 dh=0 dv=0
MultipleSubs2: "Tone High-Low" uni0E49.low
EndChar

StartChar: uni0E1C
Encoding: 3612 3612 35
Width: 730
VWidth: 0
Flags: W
HStem: 410 45<293.522 376.499> 555 55<304.474 390.498> 580 20G<693.903 768.521>
LayerCount: 2
Fore
SplineSet
360.83 610 m 0xc0
 416.83 610 450.672 566 436.589 505 c 0
 424.583 453 371.656 410 319.656 410 c 0
 294.656 410 273.965 420 260.658 436 c 1
 183.087 100 l 2
 174.545 63 181.467 54 209.774 51 c 1
 401.569 310 l 1
 461.569 310 l 1
 533.774 51 l 1
 563.467 54 574.545 63 583.087 100 c 2
 698.521 600 l 1
 768.521 600 l 1xa0
 655.396 110 l 2
 646.161 70 636.234 40 608.617 20 c 0
 582 0 566.691 -10 487.691 -10 c 1
 417.717 250 l 1
 227.691 -10 l 1
 148.691 -10 138 0 120.617 20 c 0
 102.234 40 106.161 70 115.396 110 c 2
 191.582 440 l 2
 216.747 549 284.83 610 360.83 610 c 0xc0
353.132 555 m 0xc0
 325.132 555 298.053 533 291.589 505 c 0
 285.124 477 302.045 455 330.045 455 c 0
 358.045 455 385.124 477 391.589 505 c 0
 398.053 533 381.132 555 353.132 555 c 0xc0
EndSplineSet
EndChar

StartChar: uni0E1E
Encoding: 3614 3614 36
Width: 770
VWidth: 0
Flags: W
HStem: 410 50<229.485 285.418> 560 50<240.566 326.001> 580 20G<733.903 808.521>
LayerCount: 2
Fore
SplineSet
289.286 560 m 0xc0
 261.286 560 234.207 538 227.743 510 c 0
 221.278 482 238.199 460 266.199 460 c 0
 294.199 460 321.278 482 327.743 510 c 0
 334.207 538 317.286 560 289.286 560 c 0xc0
738.521 600 m 1xa0
 808.521 600 l 1xa0
 683.853 60 l 2
 678.542 37 665.925 17 636.154 5 c 0
 606.384 -7 593.691 -10 562.691 -10 c 1
 525.811 415 l 1
 292.691 -10 l 1
 261.691 -10 250.384 -7 226.154 5 c 0
 201.925 17 198.542 37 203.853 60 c 2
 285.811 415 l 1
 276.117 412 264.656 410 254.656 410 c 0
 199.656 410 165.045 455 177.743 510 c 0
 190.44 565 245.83 610 300.83 610 c 0xc0
 355.83 610 390.44 565 377.743 510 c 2
 272.697 55 l 1
 514.125 490 l 1
 519.125 490 l 1
 567.125 490 l 1
 572.125 490 l 1
 612.697 55 l 1
 738.521 600 l 1xa0
EndSplineSet
EndChar

StartChar: uni0E1F
Encoding: 3615 3615 37
Width: 780
VWidth: 0
Flags: W
HStem: 410 50<229.485 285.418> 560 50<240.566 326.001>
LayerCount: 2
Fore
SplineSet
793.93 840 m 1
 863.93 840 l 1
 808.521 600 l 1
 683.853 60 l 2
 678.542 37 665.925 17 636.154 5 c 0
 606.384 -7 593.691 -10 562.691 -10 c 1
 525.811 415 l 1
 292.691 -10 l 1
 261.691 -10 250.384 -7 226.154 5 c 0
 201.925 17 198.542 37 203.853 60 c 2
 285.811 415 l 1
 276.117 412 264.656 410 254.656 410 c 0
 199.656 410 165.045 455 177.743 510 c 0
 190.44 565 245.83 610 300.83 610 c 0
 355.83 610 390.44 565 377.743 510 c 2
 272.697 55 l 1
 514.125 490 l 1
 519.125 490 l 1
 567.125 490 l 1
 572.125 490 l 1
 612.697 55 l 1
 738.521 600 l 1
 793.93 840 l 1
289.286 560 m 0
 261.286 560 234.207 538 227.743 510 c 0
 221.278 482 238.199 460 266.199 460 c 0
 294.199 460 321.278 482 327.743 510 c 0
 334.207 538 317.286 560 289.286 560 c 0
EndSplineSet
EndChar

StartChar: uni0E30
Encoding: 3632 3632 38
Width: 540
VWidth: 0
Flags: W
HStem: 40 50<218.896 390.132> 245 35<196.992 267.79> 350 50<290.466 461.701> 555 35<268.561 339.359>
LayerCount: 2
Fore
SplineSet
316.212 590 m 0
 360.212 590 387.901 554 377.743 510 c 0
 368.046 468 326.966 433 284.273 430 c 1
 302.887 411 334.348 400 377.348 400 c 0
 478.348 400 542.895 489 561.595 570 c 1
 621.595 570 l 1
 594.814 454 508.804 350 365.804 350 c 0
 285.804 350 193.271 404 217.743 510 c 0
 227.901 554 272.212 590 316.212 590 c 0
308.132 555 m 0
 283.132 555 258.515 535 252.743 510 c 0
 246.971 485 262.354 465 287.354 465 c 0
 312.354 465 336.971 485 342.743 510 c 0
 348.515 535 333.132 555 308.132 555 c 0
244.644 280 m 0
 288.644 280 316.332 244 306.174 200 c 0
 296.478 158 255.396 123 212.704 120 c 1
 231.317 101 262.778 90 305.778 90 c 0
 406.778 90 471.325 179 490.025 260 c 1
 550.025 260 l 1
 523.245 144 437.234 40 294.234 40 c 0
 214.234 40 121.701 94 146.174 200 c 0
 156.332 244 200.644 280 244.644 280 c 0
236.562 245 m 0
 211.562 245 186.945 225 181.174 200 c 0
 175.402 175 190.784 155 215.784 155 c 0
 240.784 155 265.402 175 271.174 200 c 0
 276.945 225 261.562 245 236.562 245 c 0
EndSplineSet
EndChar

StartChar: uni0E43
Encoding: 3651 3651 39
Width: 400
VWidth: 0
Flags: W
HStem: -10 50<232.52 317.955> 140 50<273.103 329.037> 770 40<271.623 351.765> 910 40<343.325 364.153> 970 50<343.993 486.919>
VStem: 180.778 372.386
LayerCount: 2
Fore
SplineSet
298.521 600 m 2
 330.149 737 483.078 793 503.164 880 c 0
 513.784 926 487.942 970 413.942 970 c 0
 385.942 970 362.096 962 343.325 950 c 1
 390.863 948 419.628 908 408.547 860 c 0
 397.003 810 347.769 770 297.769 770 c 0
 247.769 770 217.003 810 228.547 860 c 0
 248.171 945 326.485 1020 425.485 1020 c 0
 524.485 1020 571.634 960 553.164 880 c 0
 527.307 768 398.072 728 368.521 600 c 2
 272.711 185 l 1
 282.403 188 293.865 190 303.865 190 c 0
 358.865 190 393.476 145 380.778 90 c 0
 368.08 35 312.691 -10 257.691 -10 c 0
 202.691 -10 168.08 35 180.778 90 c 2
 298.521 600 l 2
330.09 910 m 0
 302.09 910 275.011 888 268.547 860 c 0
 262.082 832 279.003 810 307.003 810 c 0
 335.003 810 362.082 832 368.547 860 c 0
 375.011 888 358.09 910 330.09 910 c 0
292.321 140 m 0
 264.321 140 237.242 118 230.778 90 c 0
 224.313 62 241.234 40 269.234 40 c 0
 297.234 40 324.313 62 330.778 90 c 0
 337.242 118 320.321 140 292.321 140 c 0
EndSplineSet
EndChar

StartChar: uni0E44
Encoding: 3652 3652 40
Width: 400
VWidth: 0
Flags: W
HStem: -10 50<232.52 317.955> 140 50<273.103 329.037> 960 60<275.485 341.32>
LayerCount: 2
Fore
SplineSet
413.171 945 m 1
 575.485 1020 l 1
 591.485 1020 608.098 988 597.016 940 c 0
 571.621 830 407.307 768 368.521 600 c 2
 272.711 185 l 1
 282.403 188 293.865 190 303.865 190 c 0
 358.865 190 393.476 145 380.778 90 c 0
 368.08 35 312.691 -10 257.691 -10 c 0
 202.691 -10 168.08 35 180.778 90 c 2
 298.521 600 l 2
 340.077 780 543.164 880 561.634 960 c 1
 399.318 885 l 1
 399.318 885 337.634 960 261.634 960 c 1
 275.485 1020 l 1
 374.485 1020 413.171 945 413.171 945 c 1
292.321 140 m 0
 264.321 140 237.242 118 230.778 90 c 0
 224.313 62 241.234 40 269.234 40 c 0
 297.234 40 324.313 62 330.778 90 c 0
 337.242 118 320.321 140 292.321 140 c 0
EndSplineSet
EndChar

StartChar: uni0E29
Encoding: 3625 3625 41
Width: 770
VWidth: 0
Flags: W
HStem: -20 65<314.551 517.398> 190 45<491.144 594.096> 280 30<464.657 505.05> 390 30<456.196 517.346> 410 50<219.485 275.418> 560 50<230.566 316.001> 580 20G<683.903 758.521>
VStem: 772.729 55<322.627 380>
AnchorPoint: "thai_above" 1073.27 630 basechar 0
LayerCount: 2
Fore
SplineSet
490.039 390 m 0xf1
 468.039 390 445.883 372 440.804 350 c 0
 435.725 328 449.569 310 471.569 310 c 0
 493.569 310 515.725 328 520.804 350 c 0
 525.883 372 512.039 390 490.039 390 c 0xf1
688.521 600 m 1xf3
 758.521 600 l 1xf3
 679.795 259 l 1
 722.336 283 756.34 322 772.729 380 c 1
 827.729 380 l 1
 809.415 305 748.178 239 668.021 208 c 1
 659.248 170 l 2
 627.85 34 520.383 -20 395.383 -20 c 0
 270.383 -20 187.85 34 219.248 170 c 2
 275.811 415 l 1
 266.117 412 254.656 410 244.656 410 c 0
 189.656 410 155.045 455 167.743 510 c 0
 180.44 565 235.83 610 290.83 610 c 0xed
 345.83 610 380.44 565 367.743 510 c 2
 289.248 170 l 2
 274.241 105 297.389 45 410.389 45 c 0
 523.389 45 574.241 105 589.248 170 c 2
 594.096 191 l 1
 585.865 190 577.865 190 568.865 190 c 0
 487.865 190 386.562 245 410.804 350 c 0
 419.808 389 457.965 420 496.965 420 c 0
 535.965 420 559.808 389 550.804 350 c 0
 541.8 311 503.644 280 464.644 280 c 1
 485.41 253 524.254 235 579.254 235 c 0
 588.254 235 596.254 235 604.484 236 c 1
 688.521 600 l 1xf3
279.286 560 m 0xed
 251.286 560 224.207 538 217.743 510 c 0
 211.278 482 228.199 460 256.199 460 c 0
 284.199 460 311.278 482 317.743 510 c 0
 324.207 538 307.286 560 279.286 560 c 0xed
EndSplineSet
EndChar

StartChar: uni0E42
Encoding: 3650 3650 42
Width: 400
VWidth: 0
Flags: W
HStem: -10 50<232.52 317.955> 140 50<273.103 329.037> 900 21G<485.091 503.09> 970 50<322.115 463.823>
LayerCount: 2
Fore
SplineSet
208.547 860 m 1
 227.478 942 304.485 1020 405.485 1020 c 0
 463.485 1020 494.79 991 508.942 970 c 1
 530.328 989 564.177 1010 595.485 1020 c 1
 580.479 955 l 1
 542.17 945 513.398 920 492.781 900 c 1
 477.4 933 460.942 970 393.942 970 c 0
 334.942 970 292.784 926 279.781 900 c 1
 380.396 894 422.313 833 368.521 600 c 2
 272.711 185 l 1
 282.403 188 293.865 190 303.865 190 c 0
 358.865 190 393.476 145 380.778 90 c 0
 368.08 35 312.691 -10 257.691 -10 c 0
 202.691 -10 168.08 35 180.778 90 c 2
 298.521 600 l 2
 347.696 813 335.547 860 208.547 860 c 1
292.321 140 m 0
 264.321 140 237.242 118 230.778 90 c 0
 224.313 62 241.234 40 269.234 40 c 0
 297.234 40 324.313 62 330.778 90 c 0
 337.242 118 320.321 140 292.321 140 c 0
EndSplineSet
EndChar

StartChar: uni0E21
Encoding: 3617 3617 43
Width: 660
VWidth: 0
Flags: W
HStem: -20 55<138.168 229.492> 145 55<152.065 238.587> 410 50<229.485 285.418> 560 50<240.566 326.001> 580 20G<623.903 698.521>
LayerCount: 2
Fore
SplineSet
289.286 560 m 0xf0
 261.286 560 234.207 538 227.743 510 c 0
 221.278 482 238.199 460 266.199 460 c 0
 294.199 460 321.278 482 327.743 510 c 0
 334.207 538 317.286 560 289.286 560 c 0xf0
628.521 600 m 1xe8
 698.521 600 l 1xe8
 573.853 60 l 2
 563.463 15 530.691 -10 467.691 -10 c 1
 453.157 31 397.165 109 301.705 133 c 1
 304.704 120 304.241 105 300.778 90 c 0
 286.695 29 226.383 -20 165.383 -20 c 0
 104.383 -20 66.6953 29 80.7783 90 c 0
 94.8613 151 155.174 200 216.174 200 c 0
 223.174 200 229.942 199 235.712 198 c 1
 285.811 415 l 1
 276.117 412 264.656 410 254.656 410 c 0
 199.656 410 165.045 455 177.743 510 c 0
 190.44 565 245.83 610 300.83 610 c 0xf0
 355.83 610 390.44 565 377.743 510 c 2
 303.865 190 l 1
 402.709 172 475.087 100 501.082 48 c 1
 628.521 600 l 1xe8
203.476 145 m 0
 173.476 145 142.704 120 135.778 90 c 0
 128.853 60 148.08 35 178.08 35 c 0
 208.08 35 238.853 60 245.778 90 c 0
 252.704 120 233.476 145 203.476 145 c 0
EndSplineSet
EndChar

StartChar: uni0E06
Encoding: 3590 3590 44
Width: 690
VWidth: 0
Flags: W
HStem: -20 55<168.168 259.492> 145 55<182.065 273.882> 320 40<231.301 304.903> 450 40<242.318 316.175> 570 40<267.004 341.165> 580 20G<653.903 728.521>
LayerCount: 2
Fore
SplineSet
658.521 600 m 1xf4
 728.521 600 l 1xf4
 603.853 60 l 2
 593.463 15 560.691 -10 497.691 -10 c 1
 483.157 31 427.165 109 331.705 133 c 1
 334.704 120 334.241 105 330.778 90 c 0
 316.695 29 256.383 -20 195.383 -20 c 0
 134.383 -20 96.6953 29 110.778 90 c 0
 124.861 151 185.174 200 246.174 200 c 0
 256.174 200 265.942 199 275.25 196 c 1
 276.174 200 l 2
 304.34 322 444.649 345 471.199 460 c 0
 481.127 503 481.054 546 456.133 568 c 1
 390.434 500 l 1
 350.434 500 l 1
 350.822 532 344.595 570 311.595 570 c 0
 266.595 570 235.82 519 221.199 460 c 1
 241.355 478 267.125 490 293.125 490 c 0
 340.125 490 369.353 452 358.502 405 c 0
 347.65 358 300.878 320 253.878 320 c 0
 182.878 320 159.346 387 177.354 465 c 0
 190.514 522 241.83 610 320.83 610 c 0
 366.83 610 386.211 577 391.823 545 c 1
 450.83 610 l 1
 469.83 610 l 1xf8
 515.981 589 542.36 530 526.199 460 c 0
 495.263 326 371.107 308 346.174 200 c 2
 343.403 188 l 1
 437.555 167 505.855 99 531.082 48 c 1
 658.521 600 l 1xf4
233.476 145 m 0
 203.476 145 172.704 120 165.778 90 c 0
 158.853 60 178.08 35 208.08 35 c 0
 238.08 35 268.853 60 275.778 90 c 0
 282.704 120 263.476 145 233.476 145 c 0
283.891 450 m 0
 258.891 450 234.273 430 228.502 405 c 0
 222.729 380 238.112 360 263.112 360 c 0
 288.112 360 312.729 380 318.502 405 c 0
 324.273 430 308.891 450 283.891 450 c 0
EndSplineSet
EndChar

StartChar: uni0E31
Encoding: 3633 3633 45
Width: 0
VWidth: 0
Flags: W
HStem: 720 50<-94.1134 77.1219> 925 35<-116.018 -45.2193>
VStem: 177.016 60<876.622 940>
LayerCount: 2
Fore
SplineSet
-68.3662 960 m 0
 -24.3662 960 3.32227 924 -6.83594 880 c 0
 -16.5322 838 -57.6133 803 -100.306 800 c 1
 -81.6924 781 -50.2314 770 -7.23145 770 c 0
 93.7686 770 158.315 859 177.016 940 c 1
 237.016 940 l 1
 210.235 824 124.225 720 -18.7754 720 c 0
 -98.7754 720 -191.308 774 -166.836 880 c 0
 -156.678 924 -112.366 960 -68.3662 960 c 0
-76.4473 925 m 0
 -101.447 925 -126.064 905 -131.836 880 c 0
 -137.607 855 -122.225 835 -97.2246 835 c 0
 -72.2246 835 -47.6074 855 -41.8359 880 c 0
 -36.0645 905 -51.4473 925 -76.4473 925 c 0
EndSplineSet
Substitution2: "Thai Tone & Vowel Above-Narrow" uni0E31.narrow
Position2: "Vowel Above-Left" dx=-240 dy=0 dh=0 dv=0
EndChar

StartChar: uni0E4C
Encoding: 3660 3660 46
Width: 0
VWidth: 0
Flags: W
HStem: 980 35<-10.6965 48.6742>
VStem: 127.659 64<1183.74 1220>
LayerCount: 2
Fore
SplineSet
30.4922 1085 m 0
 11.4922 1085 -7.20215 1069 -11.5889 1050 c 0
 -15.9746 1031 -4.66895 1015 14.3311 1015 c 0
 34.3311 1015 54.0254 1031 58.4111 1050 c 0
 62.7979 1069 50.4922 1085 30.4922 1085 c 0
127.659 1220 m 1
 191.659 1220 l 1
 177.807 1160 117.728 1138 67.9561 1113 c 1
 89.1855 1101 98.876 1078 92.4111 1050 c 0
 83.4082 1011 45.251 980 6.25098 980 c 0
 -31.749 980 -56.5918 1011 -47.5889 1050 c 0
 -28.1953 1134 113.346 1158 127.659 1220 c 1
EndSplineSet
Position2: "Tone High-Left" dx=-140 dy=0 dh=0 dv=0
MultipleSubs2: "Tone High-Low" uni0E4C.low
EndChar

StartChar: uni0E39
Encoding: 3641 3641 47
Width: 0
VWidth: 0
Flags: W
HStem: -350 55<-334.514 -230.372> -240 40<-438.458 -395.47> -110 40<-427.186 -353.111>
VStem: -480.784 362.314
LayerCount: 2
Fore
SplineSet
-394.946 -238 m 1
 -401.178 -239 -408.408 -240 -415.408 -240 c 0
 -462.408 -240 -491.636 -202 -480.784 -155 c 0
 -469.934 -108 -423.161 -70 -376.161 -70 c 0
 -329.161 -70 -299.934 -108 -310.784 -155 c 2
 -335.025 -260 l 2
 -338.72 -276 -323.106 -295 -288.106 -295 c 0
 -253.106 -295 -228.72 -276 -225.025 -260 c 2
 -183.47 -80 l 1
 -118.47 -80 l 1
 -160.025 -260 l 2
 -165.798 -285 -186.804 -350 -300.804 -350 c 0
 -414.804 -350 -405.798 -285 -400.025 -260 c 2
 -394.946 -238 l 1
-385.396 -110 m 0
 -410.396 -110 -435.013 -130 -440.784 -155 c 0
 -446.557 -180 -431.174 -200 -406.174 -200 c 0
 -381.174 -200 -356.557 -180 -350.784 -155 c 0
 -345.013 -130 -360.396 -110 -385.396 -110 c 0
EndSplineSet
Position2: "Vowel Below-Low" dx=0 dy=-200 dh=0 dv=0
EndChar

StartChar: uni0E03
Encoding: 3587 3587 48
Width: 690
VWidth: 0
Flags: W
HStem: -20 60<344.8 506.682> 320 40<231.301 304.903> 450 40<242.318 316.175> 570 40<267.004 341.165> 580 20G<653.903 728.521>
LayerCount: 2
Fore
SplineSet
330.013 130 m 2xf0
 319.162 83 341.234 40 419.234 40 c 0
 497.234 40 539.162 83 550.013 130 c 2
 658.521 600 l 1
 728.521 600 l 1xe8
 620.013 130 l 2
 611.24 92 566.383 -20 405.383 -20 c 0
 244.383 -20 251.24 92 260.013 130 c 2
 276.174 200 l 2
 304.34 322 444.649 345 471.199 460 c 0
 481.127 503 481.054 546 456.133 568 c 1
 390.434 500 l 1
 350.434 500 l 1
 350.822 532 344.595 570 311.595 570 c 0
 266.595 570 235.82 519 221.199 460 c 1
 241.355 478 267.125 490 293.125 490 c 0
 340.125 490 369.353 452 358.502 405 c 0
 347.65 358 300.878 320 253.878 320 c 0
 182.878 320 159.346 387 177.354 465 c 0
 190.514 522 241.83 610 320.83 610 c 0
 366.83 610 386.211 577 391.823 545 c 1
 450.83 610 l 1
 469.83 610 l 1
 515.981 589 542.36 530 526.199 460 c 0
 495.263 326 371.107 308 346.174 200 c 2
 330.013 130 l 2xf0
283.891 450 m 0
 258.891 450 234.273 430 228.502 405 c 0
 222.729 380 238.112 360 263.112 360 c 0
 288.112 360 312.729 380 318.502 405 c 0
 324.273 430 308.891 450 283.891 450 c 0
EndSplineSet
EndChar

StartChar: uni0E22
Encoding: 3618 3618 49
Width: 660
VWidth: 0
Flags: W
HStem: -20 65<219.264 458.795> 270 60<283.296 382.334> 410 45<313.563 396.499> 555 55<323.29 411.173> 580 20G<623.903 698.521>
LayerCount: 2
Fore
SplineSet
373.132 555 m 0xf0
 345.132 555 318.053 533 311.589 505 c 0
 305.124 477 322.045 455 350.045 455 c 0
 378.045 455 405.124 477 411.589 505 c 0
 418.053 533 401.132 555 373.132 555 c 0xf0
628.521 600 m 1xe8
 698.521 600 l 1xe8
 578.47 80 l 2
 573.159 57 454.383 -20 315.383 -20 c 0
 174.383 -20 89.9277 43 116.938 160 c 0
 131.483 223 180.565 271 246.261 300 c 1
 191.187 330 168.191 382 182.736 445 c 0
 206.516 548 291.83 610 365.83 610 c 0xf0
 441.83 610 467.67 553 456.589 505 c 0
 444.583 453 391.656 410 339.656 410 c 0
 293.656 410 262.274 443 264.433 487 c 1
 256.432 474 251.199 460 247.736 445 c 0
 228.574 362 303.187 330 396.187 330 c 1
 382.334 270 l 1
 271.334 270 202.638 228 186.938 160 c 0
 172.163 96 210.389 45 330.389 45 c 0
 428.389 45 486.238 79 513.087 100 c 1
 628.521 600 l 1xe8
EndSplineSet
EndChar

StartChar: uni0E46
Encoding: 3654 3654 50
Width: 660
VWidth: 0
Flags: W
HStem: -290 60<276.9 374.469> 290 45<264.686 340.889> 425 45<274.496 351.05> 565 55<300.716 397.131>
LayerCount: 2
Fore
SplineSet
328.508 470 m 0
 378.508 470 409.273 430 397.729 380 c 0
 386.187 330 336.952 290 286.952 290 c 0
 188.952 290 178.884 385 196.199 460 c 0
 210.975 524 278.139 620 368.139 620 c 0
 430.139 620 454.211 577 460.515 535 c 1
 536.139 620 l 1
 562.139 620 l 1
 632.521 600 652.822 532 633.891 450 c 2
 506.913 -100 l 2
 479.901 -217 410.048 -290 263.048 -290 c 1
 276.9 -230 l 1
 337.9 -230 410.825 -213 436.913 -100 c 2
 563.891 450 l 2
 575.203 499 576.592 544 545.44 565 c 1
 458.508 470 l 1
 403.508 470 l 1
 413.666 514 399.44 565 355.44 565 c 0
 305.44 565 267.281 508 256.199 460 c 0
 254.353 452 252.736 445 252.12 438 c 1
 272.507 457 300.508 470 328.508 470 c 0
318.119 425 m 0
 293.119 425 268.502 405 262.729 380 c 0
 256.958 355 272.341 335 297.341 335 c 0
 322.341 335 346.958 355 352.729 380 c 0
 358.502 405 343.119 425 318.119 425 c 0
EndSplineSet
EndChar

StartChar: uni0E47
Encoding: 3655 3655 51
Width: 0
VWidth: 0
Flags: W
HStem: 690 35<-115.866 -32.3428> 780 20G<-182.681 -125.306> 835 30<-33.424 22.3769> 920 45<-210.156 29.8708>
VStem: 67.4111 55<999.312 1050>
LayerCount: 2
Fore
SplineSet
4.70117 865 m 0
 40.7012 865 63.0059 836 54.6943 800 c 0
 40.6113 739 -12.7012 690 -80.7012 690 c 0
 -127.701 690 -157.16 714 -166.08 749 c 1
 -209.547 695 l 1
 -291.547 695 -325.002 758 -308.379 830 c 0
 -291.757 902 -229.212 965 -147.212 965 c 2
 -27.2119 965 l 2
 24.7881 965 58.4082 1011 67.4111 1050 c 1
 122.411 1050 l 1
 105.789 978 44.3984 920 -27.6016 920 c 2
 -157.602 920 l 2
 -205.602 920 -244.376 869 -253.379 830 c 0
 -261.229 796 -250.156 753 -215.695 742 c 1
 -165.306 800 l 1
 -125.306 800 l 1
 -131.77 772 -128.62 725 -72.6201 725 c 0
 -56.6201 725 -42.6973 729 -31.3115 735 c 1
 -63.6191 738 -83.1553 766 -75.3057 800 c 0
 -66.9941 836 -31.2988 865 4.70117 865 c 0
-2.22461 835 m 0
 -21.2246 835 -40.9189 819 -45.3057 800 c 0
 -49.6924 781 -37.3857 765 -18.3857 765 c 0
 0.614258 765 20.3076 781 24.6943 800 c 0
 29.0811 819 16.7754 835 -2.22461 835 c 0
EndSplineSet
Substitution2: "Thai Tone & Vowel Above-Narrow" uni0E47.narrow
Position2: "Vowel Above-Left" dx=-180 dy=0 dh=0 dv=0
EndChar

StartChar: uni0E0B
Encoding: 3595 3595 52
Width: 710
VWidth: 0
Flags: W
HStem: -20 60<344.8 506.682> 320 40<231.301 304.903> 450 40<242.318 316.175> 570 40<267.004 341.165>
VStem: 736.225 70<651.867 720>
LayerCount: 2
Fore
SplineSet
555.199 460 m 1
 611.582 440 683.732 406 675.421 370 c 2
 620.013 130 l 2
 611.24 92 566.383 -20 405.383 -20 c 0
 244.383 -20 251.24 92 260.013 130 c 2
 276.174 200 l 2
 304.34 322 444.649 345 471.199 460 c 0
 481.127 503 481.054 546 456.133 568 c 1
 390.434 500 l 1
 350.434 500 l 1
 350.822 532 344.595 570 311.595 570 c 0
 266.595 570 235.82 519 221.199 460 c 1
 241.355 478 267.125 490 293.125 490 c 0
 340.125 490 369.353 452 358.502 405 c 0
 347.65 358 300.878 320 253.878 320 c 0
 182.878 320 159.346 387 177.354 465 c 0
 190.514 522 241.83 610 320.83 610 c 0
 366.83 610 386.211 577 391.823 545 c 1
 450.83 610 l 1
 469.83 610 l 1
 508.674 592 534.285 547 530.356 491 c 1
 627.897 515 710.368 608 736.225 720 c 1
 806.225 720 l 1
 773.673 579 669.895 489 555.199 460 c 1
283.891 450 m 0
 258.891 450 234.273 430 228.502 405 c 0
 222.729 380 238.112 360 263.112 360 c 0
 288.112 360 312.729 380 318.502 405 c 0
 324.273 430 308.891 450 283.891 450 c 0
330.013 130 m 2
 319.162 83 341.234 40 419.234 40 c 0
 497.234 40 539.162 83 550.013 130 c 2
 605.421 370 l 2
 610.962 394 555.272 417 517.043 429 c 1
 475.34 322 369.029 299 346.174 200 c 2
 330.013 130 l 2
EndSplineSet
Substitution2: "Ascent Substitute" uni0E0B.alt
EndChar

StartChar: uni0E02
Encoding: 3586 3586 53
Width: 660
VWidth: 0
Flags: W
HStem: -20 60<314.8 476.682> 350 40<222.456 296.829> 480 40<243.093 308.101> 560 50<270.88 407.494> 580 20G<623.903 698.521>
LayerCount: 2
Fore
SplineSet
355.83 610 m 0xf0
 462.83 610 492.36 530 476.199 460 c 0
 448.033 338 343.646 319 316.174 200 c 2
 300.013 130 l 2
 289.162 83 311.234 40 389.234 40 c 0
 467.234 40 509.162 83 520.013 130 c 2
 628.521 600 l 1
 698.521 600 l 1xe8
 590.013 130 l 2
 581.24 92 536.383 -20 375.383 -20 c 0
 214.383 -20 221.24 92 230.013 130 c 2
 246.174 200 l 2
 277.571 336 394.419 344 421.199 460 c 0
 433.436 513 410.286 560 344.286 560 c 0
 308.286 560 267.899 541 242.743 510 c 1
 256.128 516 270.052 520 285.052 520 c 0
 332.052 520 361.278 482 350.428 435 c 0
 339.577 388 292.804 350 245.804 350 c 0
 185.804 350 162.348 400 176.199 460 c 0
 194.899 541 266.83 610 355.83 610 c 0xf0
275.816 480 m 0
 250.816 480 226.199 460 220.428 435 c 0
 214.656 410 230.039 390 255.039 390 c 0
 280.039 390 304.656 410 310.428 435 c 0
 316.199 460 300.816 480 275.816 480 c 0
EndSplineSet
EndChar

StartChar: uni0E0A
Encoding: 3594 3594 54
Width: 680
VWidth: 0
Flags: W
HStem: -20 60<314.8 476.682> 350 40<222.456 296.829> 480 40<243.093 308.101> 560 50<270.88 406.205>
VStem: 706.225 70<651.867 720>
LayerCount: 2
Fore
SplineSet
575.421 370 m 2
 581.886 398 504.888 424 469.428 435 c 1
 433.341 335 341.569 310 316.174 200 c 2
 300.013 130 l 2
 289.162 83 311.234 40 389.234 40 c 0
 467.234 40 509.162 83 520.013 130 c 2
 575.421 370 l 2
525.199 460 m 1
 581.582 440 653.732 406 645.421 370 c 2
 590.013 130 l 2
 581.24 92 536.383 -20 375.383 -20 c 0
 214.383 -20 221.24 92 230.013 130 c 2
 246.174 200 l 2
 277.571 336 394.419 344 421.199 460 c 0
 433.436 513 410.286 560 344.286 560 c 0
 308.286 560 267.899 541 242.743 510 c 1
 256.128 516 270.052 520 285.052 520 c 0
 332.052 520 361.278 482 350.428 435 c 0
 339.577 388 292.804 350 245.804 350 c 0
 185.804 350 162.348 400 176.199 460 c 0
 194.899 541 266.83 610 355.83 610 c 0
 448.83 610 483.747 549 480.433 487 c 1
 585.896 502 678.521 600 706.225 720 c 1
 776.225 720 l 1
 743.673 579 639.895 489 525.199 460 c 1
275.816 480 m 0
 250.816 480 226.199 460 220.428 435 c 0
 214.656 410 230.039 390 255.039 390 c 0
 280.039 390 304.656 410 310.428 435 c 0
 316.199 460 300.816 480 275.816 480 c 0
EndSplineSet
Substitution2: "Ascent Substitute" uni0E0A.alt
EndChar

StartChar: uni0E19
Encoding: 3609 3609 55
Width: 690
VWidth: 0
Flags: W
HStem: -20 55<468.168 559.492> 145 64<483.935 538.252> 410 50<229.485 285.418> 560 50<240.566 326.001> 580 20G<623.903 698.521>
LayerCount: 2
Fore
SplineSet
423.396 123 m 1xe8
 355.624 85 294.771 25 267.691 -10 c 1
 204.691 -10 193.463 15 203.853 60 c 2
 285.811 415 l 1
 276.117 412 264.656 410 254.656 410 c 0
 199.656 410 165.045 455 177.743 510 c 0
 190.44 565 245.83 610 300.83 610 c 0xf0
 355.83 610 390.44 565 377.743 510 c 2
 275.007 65 l 1
 330.32 127 444.636 202 538.252 209 c 1
 628.521 600 l 1
 698.521 600 l 1
 606.174 200 l 1
 589.865 190 l 1
 623.94 173 640.937 134 630.778 90 c 0
 616.695 29 556.383 -20 495.383 -20 c 0
 434.383 -20 396.695 29 410.778 90 c 0
 413.549 102 418.088 113 423.396 123 c 1xe8
289.286 560 m 0
 261.286 560 234.207 538 227.743 510 c 0
 221.278 482 238.199 460 266.199 460 c 0
 294.199 460 321.278 482 327.743 510 c 0
 334.207 538 317.286 560 289.286 560 c 0
533.476 145 m 0
 503.476 145 472.704 120 465.778 90 c 0
 458.853 60 478.08 35 508.08 35 c 0
 538.08 35 568.853 60 575.778 90 c 0
 582.704 120 563.476 145 533.476 145 c 0
EndSplineSet
EndChar

StartChar: uni0E23
Encoding: 3619 3619 56
Width: 570
VWidth: 0
Flags: W
HStem: -10 50<297.611 393.238> 160 50<312.935 409.347> 400 45<232.736 393.568> 550 60<593.081 626.978> 565 55<313.858 500.444>
LayerCount: 2
Fore
SplineSet
152.348 400 m 1xe8
 182.591 531 293.139 620 423.139 620 c 0xe8
 496.139 620 537.903 580 561.978 550 c 1
 574.133 568 613.83 610 640.83 610 c 1
 626.978 550 l 1xf0
 603.978 550 565.897 515 549.279 495 c 1
 520.053 533 473.44 565 410.44 565 c 0
 316.44 565 247.973 498 232.736 445 c 1
 435.736 445 541.582 440 513.878 320 c 2
 463.087 100 l 2
 449.004 39 388.691 -10 327.691 -10 c 0
 266.691 -10 229.004 39 243.087 100 c 0
 257.17 161 317.482 210 378.482 210 c 0
 392.482 210 405.79 207 416.866 203 c 1
 443.878 320 l 2
 461.424 396 389.348 400 152.348 400 c 1xe8
366.938 160 m 0
 333.938 160 300.705 133 293.087 100 c 0
 285.468 67 306.234 40 339.234 40 c 0
 372.234 40 405.468 67 413.087 100 c 0
 420.705 133 399.938 160 366.938 160 c 0
EndSplineSet
EndChar

StartChar: uni0E07
Encoding: 3591 3591 57
Width: 560
VWidth: 0
Flags: W
HStem: 315 55<145.421 196.422> 410 50<429.485 485.418> 560 50<440.566 526.001>
LayerCount: 2
Fore
SplineSet
398.542 37 m 1
 485.811 415 l 1
 476.117 412 464.656 410 454.656 410 c 0
 399.656 410 365.045 455 377.743 510 c 0
 390.44 565 445.83 610 500.83 610 c 0
 555.83 610 590.44 565 577.743 510 c 2
 473.853 60 l 2
 463.463 15 410.691 -10 347.691 -10 c 1
 261.178 239 207.724 315 132.724 315 c 1
 145.421 370 l 1
 251.421 370 312.104 282 398.542 37 c 1
489.286 560 m 0
 461.286 560 434.207 538 427.743 510 c 0
 421.278 482 438.199 460 466.199 460 c 0
 494.199 460 521.278 482 527.743 510 c 0
 534.207 538 517.286 560 489.286 560 c 0
EndSplineSet
EndChar

StartChar: uni0E0E
Encoding: 3598 3598 58
Width: 700
VWidth: 0
Flags: W
HStem: -300 40<141.082 260.411> -160 40<154.813 294.836> -10 50<152.52 237.955> 140 50<163.601 237.09> 410 10<409.635 424.656> 560 60<382.83 583.065>
LayerCount: 2
Fore
SplineSet
503.139 620 m 0
 638.139 620 715.823 545 684.656 410 c 2
 590 0 l 1
 534.592 -240 l 2
 525.818 -278 464.048 -290 423.048 -290 c 1
 399.743 -261 373.977 -234 347.825 -213 c 1
 310.589 -266 254.739 -300 180.739 -300 c 0
 119.739 -300 78.8203 -265 91.5176 -210 c 0
 104.216 -155 161.296 -120 222.296 -120 c 0
 259.296 -120 295.756 -131 328.37 -150 c 1
 331.679 -140 334.987 -130 337.296 -120 c 1
 387.296 -120 l 1
 382.909 -139 376.522 -158 368.598 -175 c 1
 402.058 -199 433.362 -228 460.667 -257 c 1
 520 0 l 1
 614.656 410 l 2
 633.587 492 601.286 560 489.286 560 c 0
 395.286 560 320.974 511 285.891 450 c 1
 426.965 420 l 1
 424.656 410 l 1
 424.656 410 340.731 393 319.261 300 c 2
 310.025 260 l 2
 295.942 199 320.633 176 300.778 90 c 0
 288.08 35 232.691 -10 177.691 -10 c 0
 122.691 -10 88.0801 35 100.778 90 c 0
 113.476 145 168.865 190 223.865 190 c 0
 228.865 190 232.865 190 237.634 189 c 1
 235.097 204 233.1 230 240.025 260 c 2
 249.261 300 l 2
 263.574 362 299.808 389 325.578 401 c 1
 209.273 430 l 1
 229.74 484 336.139 620 503.139 620 c 0
212.321 140 m 0
 184.321 140 157.242 118 150.778 90 c 0
 144.313 62 161.234 40 189.234 40 c 0
 217.234 40 244.313 62 250.778 90 c 0
 257.242 118 240.321 140 212.321 140 c 0
189.975 -260 m 0
 241.975 -260 283.977 -234 310.597 -188 c 1
 279.752 -170 247.062 -160 213.062 -160 c 0
 185.062 -160 146.752 -170 137.518 -210 c 0
 128.283 -250 161.975 -260 189.975 -260 c 0
EndSplineSet
Substitution2: "Descent Shorten" uni0E0E.shorten
EndChar

StartChar: uni0E2B
Encoding: 3627 3627 59
Width: 700
VWidth: 0
Flags: W
HStem: 0 21G<180 259.617 510 584.617> 410 50<219.485 275.418> 560 50<230.566 316.001 600.566 686.001>
LayerCount: 2
Fore
SplineSet
279.286 560 m 0
 251.286 560 224.207 538 217.743 510 c 0
 211.278 482 228.199 460 256.199 460 c 0
 284.199 460 311.278 482 317.743 510 c 0
 324.207 538 307.286 560 279.286 560 c 0
660.83 610 m 0
 715.83 610 750.44 565 737.743 510 c 0
 728.046 468 693.504 431 652.272 417 c 1
 658.887 411 665.732 406 672.348 400 c 1
 580 0 l 1
 510 0 l 1
 601.193 395 l 1
 514.193 395 294.017 169 275.778 90 c 2
 255 0 l 1
 180 0 l 1
 275.811 415 l 1
 266.117 412 254.656 410 244.656 410 c 0
 189.656 410 155.045 455 167.743 510 c 0
 180.44 565 235.83 610 290.83 610 c 0
 345.83 610 380.44 565 367.743 510 c 2
 299.637 215 l 1
 347.027 273 462.731 393 560.043 429 c 1
 539.429 448 530.124 477 537.743 510 c 0
 550.44 565 605.83 610 660.83 610 c 0
649.286 560 m 0
 621.286 560 594.207 538 587.743 510 c 0
 581.278 482 598.199 460 626.199 460 c 0
 654.199 460 681.278 482 687.743 510 c 0
 694.207 538 677.286 560 649.286 560 c 0
EndSplineSet
EndChar

StartChar: uni0E3A
Encoding: 3642 3642 60
Width: 0
VWidth: 0
Flags: W
HStem: -200 120<-224.469 -140.173>
VStem: -242.321 120<-181.73 -98.2702>
LayerCount: 2
Fore
SplineSet
-122.321 -140 m 0
 -130.171 -174 -162.174 -200 -196.174 -200 c 0
 -230.174 -200 -250.171 -174 -242.321 -140 c 0
 -234.472 -106 -202.47 -80 -168.47 -80 c 0
 -134.47 -80 -114.472 -106 -122.321 -140 c 0
EndSplineSet
Position2: "Vowel Below-Low" dx=0 dy=-200 dh=0 dv=0
EndChar

StartChar: uni0E53
Encoding: 3667 3667 61
Width: 850
VWidth: 0
Flags: W
HStem: -20 60<277.499 393.494> 0 21G<680 754.617> 200 60<301.903 418.133> 560 60<359.904 485.767>
LayerCount: 2
Fore
SplineSet
429.286 560 m 0x70
 346.286 560 262.506 444 229.261 300 c 0
 213.1 230 209.095 178 213.321 140 c 1
 239.021 208 309.025 260 380.025 260 c 0
 457.025 260 505.481 197 487.704 120 c 0
 469.928 43 392.383 -20 315.383 -20 c 0xb0
 201.383 -20 107.084 74 159.261 300 c 0
 201.971 485 323.139 620 443.139 620 c 0
 533.139 620 577.362 556 572.582 440 c 1
 708.139 620 l 1
 743.139 620 l 1
 848.905 593 867.512 509 833.112 360 c 2
 750 0 l 1
 680 0 l 1
 763.112 360 l 2
 791.74 484 776.207 538 729.286 560 c 1
 556.187 330 l 1
 496.187 330 l 1
 529.432 474 507.286 560 429.286 560 c 0x70
366.174 200 m 0
 322.174 200 277.862 164 267.704 120 c 0
 257.546 76 285.234 40 329.234 40 c 0
 373.234 40 417.546 76 427.704 120 c 0
 437.862 164 410.174 200 366.174 200 c 0
EndSplineSet
EndChar

StartChar: uni0E24
Encoding: 3620 3620 62
Width: 680
VWidth: 0
Flags: W
HStem: -10 50<212.52 297.955> 140 50<253.103 309.037> 410 10<375.271 394.656> 560 60<362.901 563.065>
LayerCount: 2
Fore
SplineSet
283.865 190 m 0
 338.865 190 373.476 145 360.778 90 c 0
 348.08 35 292.691 -10 237.691 -10 c 0
 182.691 -10 148.08 35 160.778 90 c 2
 206.952 290 l 2
 220.804 350 255.039 390 282.502 405 c 1
 189.273 430 l 1
 209.74 484 316.139 620 483.139 620 c 0
 618.139 620 695.823 545 664.656 410 c 2
 570 0 l 1
 507.666 -270 l 1
 437.666 -270 l 1
 500 0 l 1
 594.656 410 l 2
 613.587 492 581.286 560 469.286 560 c 0
 375.286 560 301.436 513 265.891 450 c 1
 396.965 420 l 1
 394.656 410 l 1
 393.656 410 l 1
 381.425 409 299.808 389 276.952 290 c 2
 252.711 185 l 1
 262.403 188 273.865 190 283.865 190 c 0
272.321 140 m 0
 244.321 140 217.242 118 210.778 90 c 0
 204.313 62 221.234 40 249.234 40 c 0
 277.234 40 304.313 62 310.778 90 c 0
 317.242 118 300.321 140 272.321 140 c 0
EndSplineSet
EndChar

StartChar: uni0E26
Encoding: 3622 3622 63
Width: 700
VWidth: 0
Flags: W
HStem: -10 50<152.52 237.955> 140 50<163.601 237.09> 410 10<409.635 424.656> 560 60<382.83 583.065>
LayerCount: 2
Fore
SplineSet
503.139 620 m 0
 638.139 620 715.823 545 684.656 410 c 2
 590 0 l 1
 527.666 -270 l 1
 457.666 -270 l 1
 520 0 l 1
 614.656 410 l 2
 633.587 492 601.286 560 489.286 560 c 0
 395.286 560 320.974 511 285.891 450 c 1
 426.965 420 l 1
 424.656 410 l 1
 424.656 410 340.731 393 319.261 300 c 2
 310.025 260 l 2
 295.942 199 320.633 176 300.778 90 c 0
 288.08 35 232.691 -10 177.691 -10 c 0
 122.691 -10 88.0801 35 100.778 90 c 0
 113.476 145 168.865 190 223.865 190 c 0
 228.865 190 232.865 190 237.634 189 c 1
 235.097 204 233.1 230 240.025 260 c 2
 249.261 300 l 2
 263.574 362 299.808 389 325.578 401 c 1
 209.273 430 l 1
 229.74 484 336.139 620 503.139 620 c 0
212.321 140 m 0
 184.321 140 157.242 118 150.778 90 c 0
 144.313 62 161.234 40 189.234 40 c 0
 217.234 40 244.313 62 250.778 90 c 0
 257.242 118 240.321 140 212.321 140 c 0
EndSplineSet
EndChar

StartChar: uni0E45
Encoding: 3653 3653 64
Width: 320
VWidth: 0
Flags: W
HStem: 560 60<67.7902 229.075>
VStem: -85.3438 70<410 470.68>
LayerCount: 2
Fore
SplineSet
230 0 m 1
 167.666 -270 l 1
 97.666 -270 l 1
 160 0 l 1
 254.656 410 l 2
 271.048 481 250.286 560 154.286 560 c 0
 58.2861 560 1.04785 481 -15.3438 410 c 1
 -85.3438 410 l 1
 -56.4854 535 47.1387 620 168.139 620 c 0
 289.139 620 353.515 535 324.656 410 c 2
 230 0 l 1
EndSplineSet
EndChar

StartChar: uni0E50
Encoding: 3664 3664 65
Width: 800
VWidth: 0
Flags: W
HStem: -20 60<304.286 525.202> 560 60<413.319 634.235>
LayerCount: 2
Fore
SplineSet
229.261 300 m 0
 196.016 156 257.234 40 409.234 40 c 0
 561.234 40 676.016 156 709.261 300 c 0
 742.506 444 681.286 560 529.286 560 c 0
 377.286 560 262.506 444 229.261 300 c 0
159.261 300 m 0
 200.124 477 351.139 620 543.139 620 c 0
 735.139 620 820.124 477 779.261 300 c 0
 738.396 123 587.383 -20 395.383 -20 c 0
 203.383 -20 118.396 123 159.261 300 c 0
EndSplineSet
EndChar

StartChar: uni0E27
Encoding: 3623 3623 66
Width: 560
VWidth: 0
Flags: W
HStem: -10 50<317.611 413.238> 160 50<332.935 429.347> 560 60<279.33 458.893>
VStem: 126.965 70<420 476.359>
LayerCount: 2
Fore
SplineSet
436.866 203 m 1
 486.965 420 l 2
 499.894 476 487.286 560 374.286 560 c 0
 261.286 560 209.894 476 196.965 420 c 1
 126.965 420 l 1
 153.515 535 257.139 620 388.139 620 c 0
 519.139 620 583.515 535 556.965 420 c 2
 483.087 100 l 2
 469.004 39 408.691 -10 347.691 -10 c 0
 286.691 -10 249.004 39 263.087 100 c 0
 277.17 161 337.482 210 398.482 210 c 0
 412.482 210 425.79 207 436.866 203 c 1
386.938 160 m 0
 353.938 160 320.705 133 313.087 100 c 0
 305.468 67 326.234 40 359.234 40 c 0
 392.234 40 425.468 67 433.087 100 c 0
 440.705 133 419.938 160 386.938 160 c 0
EndSplineSet
EndChar

StartChar: uni0E17
Encoding: 3607 3607 67
Width: 690
VWidth: 0
Flags: W
HStem: 0 21G<180 259.617 520 594.617> 410 50<219.485 275.418> 545 65<520.728 620.833> 560 50<230.566 316.001>
LayerCount: 2
Fore
SplineSet
275.811 415 m 1xe0
 266.117 412 254.656 410 244.656 410 c 0
 189.656 410 155.045 455 167.743 510 c 0
 180.44 565 235.83 610 290.83 610 c 0xd0
 345.83 610 380.44 565 367.743 510 c 2
 325.725 328 l 1
 359.732 406 465.83 610 605.83 610 c 0
 666.83 610 721.826 571 684.656 410 c 2
 590 0 l 1
 520 0 l 1
 614.656 410 l 2
 636.127 503 629.823 545 579.823 545 c 0
 455.823 545 335.027 273 296.557 180 c 1
 255 0 l 1
 180 0 l 1
 275.811 415 l 1xe0
279.286 560 m 0
 251.286 560 224.207 538 217.743 510 c 0
 211.278 482 228.199 460 256.199 460 c 0
 284.199 460 311.278 482 317.743 510 c 0
 324.207 538 307.286 560 279.286 560 c 0
EndSplineSet
EndChar

StartChar: uni0E2C
Encoding: 3628 3628 68
Width: 810
VWidth: 0
Flags: W
HStem: 410 50<229.485 285.418> 450 50<658.719 703.268> 560 50<240.566 326.001> 600 50<669.8 756.156>
VStem: 854.682 50<595.593 670>
AnchorPoint: "thai_above" 1033.27 630 basechar 0
LayerCount: 2
Fore
SplineSet
779.662 475 m 1x58
 683.853 60 l 2
 678.542 37 665.925 17 636.154 5 c 0
 606.384 -7 593.691 -10 562.691 -10 c 1
 525.811 415 l 1
 292.691 -10 l 1
 261.691 -10 250.384 -7 226.154 5 c 0
 201.925 17 198.542 37 203.853 60 c 2
 285.811 415 l 1
 276.117 412 264.656 410 254.656 410 c 0
 199.656 410 165.045 455 177.743 510 c 0
 190.44 565 245.83 610 300.83 610 c 0xa8
 355.83 610 390.44 565 377.743 510 c 2
 272.697 55 l 1
 514.125 490 l 1
 519.125 490 l 1
 567.125 490 l 1
 572.125 490 l 1
 612.697 55 l 1
 704.353 452 l 1
 698.121 451 690.891 450 683.891 450 c 0
 628.891 450 594.279 495 606.978 550 c 0
 619.676 605 675.064 650 730.064 650 c 0
 784.064 650 819.137 607 807.67 553 c 1
 826.903 580 842.907 619 854.682 670 c 1
 904.682 670 l 1
 884.135 581 839.281 508 779.662 475 c 1x58
718.521 600 m 0x58
 690.521 600 663.441 578 656.978 550 c 0
 650.514 522 667.434 500 695.434 500 c 0
 723.434 500 750.514 522 756.978 550 c 0
 763.441 578 746.521 600 718.521 600 c 0x58
289.286 560 m 0xa8
 261.286 560 234.207 538 227.743 510 c 0
 221.278 482 238.199 460 266.199 460 c 0
 294.199 460 321.278 482 327.743 510 c 0
 334.207 538 317.286 560 289.286 560 c 0xa8
EndSplineSet
EndChar

StartChar: uni0E18
Encoding: 3608 3608 69
Width: 620
VWidth: 0
Flags: W
HStem: -20 65<237.468 414.317> 400 45<262.736 427.133> 550 60<623.081 656.978> 565 55<343.858 530.444>
LayerCount: 2
Fore
SplineSet
182.348 400 m 1xd0
 212.591 531 323.139 620 453.139 620 c 0xd0
 526.139 620 567.903 580 591.978 550 c 1
 604.133 568 643.83 610 670.83 610 c 1
 656.978 550 l 1xe0
 633.978 550 595.897 515 579.279 495 c 1
 550.053 533 503.44 565 440.44 565 c 0
 346.44 565 277.973 498 262.736 445 c 1
 465.736 445 611.582 440 583.878 320 c 2
 544.63 150 l 2
 516.003 26 407.383 -20 305.383 -20 c 0
 203.383 -20 116.003 26 144.63 150 c 2
 179.261 300 l 1
 249.261 300 l 1
 214.63 150 l 2
 201.933 95 234.389 45 320.389 45 c 0
 406.389 45 461.933 95 474.63 150 c 2
 513.878 320 l 2
 531.424 396 419.348 400 182.348 400 c 1xd0
EndSplineSet
EndChar

StartChar: uni0E10
Encoding: 3600 3600 70
Width: 600
VWidth: 0
Flags: W
HStem: -340 35<30.8038 108.047> -225 35<41.3157 120.553> -210 30<358.842 402.449> -110 30<368.405 424.206> 140 45<209.779 285.727> 275 45<219.94 296.466> 400 45<262.736 423.568> 550 60<623.081 656.978> 565 55<343.858 530.444>
LayerCount: 2
Fore
SplineSet
182.348 400 m 1x9e80
 212.591 531 323.139 620 453.139 620 c 0x9e80
 526.139 620 567.903 580 591.978 550 c 1
 604.133 568 643.83 610 670.83 610 c 1
 656.978 550 l 1x9f
 633.978 550 595.897 515 579.279 495 c 1
 550.053 533 503.44 565 440.44 565 c 0
 346.44 565 277.973 498 262.736 445 c 1
 465.736 445 571.582 440 543.878 320 c 2
 483.853 60 l 2
 473.463 15 421.691 -10 377.691 -10 c 1
 390.395 97 373.095 178 342.407 227 c 1
 329.325 179 281.321 140 232.321 140 c 0
 182.321 140 151.557 180 163.1 230 c 0
 174.644 280 223.878 320 273.878 320 c 0
 353.878 320 417.637 215 418.47 80 c 1
 473.878 320 l 2
 491.424 396 419.348 400 182.348 400 c 1x9e80
263.488 275 m 0
 238.488 275 213.871 255 208.1 230 c 0
 202.328 205 217.711 185 242.711 185 c 0
 267.711 185 292.328 205 298.1 230 c 0
 303.871 255 288.488 275 263.488 275 c 0
132.129 -255 m 1
 119.054 -238 102.055 -225 83.0547 -225 c 0xde
 64.0547 -225 35.5146 -236 28.8203 -265 c 0
 22.125 -294 45.585 -305 64.585 -305 c 0
 81.585 -305 108.739 -300 132.129 -255 c 1
402.672 -205 m 1
 393.979 -208 385.518 -210 376.518 -210 c 0xbe
 340.518 -210 318.213 -181 326.524 -145 c 0
 334.835 -109 370.53 -80 406.53 -80 c 0
 442.53 -80 464.835 -109 456.524 -145 c 2
 425.356 -280 l 2
 416.584 -318 379.813 -330 338.813 -330 c 1
 269.285 -224 l 1
 208.813 -330 l 1
 173.813 -330 l 1
 169.43 -323 162.585 -305 152.202 -285 c 1
 128.122 -320 97.5049 -340 56.5049 -340 c 0
 6.50488 -340 -20.877 -307 -11.1797 -265 c 0
 -1.4834 -223 41.1348 -190 91.1348 -190 c 0xde
 114.135 -190 133.826 -200 148.363 -215 c 1
 151.672 -205 155.442 -193 158.443 -180 c 1
 193.443 -180 l 1xbe
 187.903 -204 180.593 -227 172.206 -246 c 1
 183.051 -264 190.896 -282 197.201 -298 c 1
 253.826 -200 l 1
 282.826 -200 l 1
 293.826 -200 l 1
 359.971 -299 l 1
 378.432 -297 383.048 -290 383.048 -290 c 1
 402.672 -205 l 1
399.604 -110 m 0
 380.604 -110 360.91 -126 356.524 -145 c 0
 352.138 -164 364.443 -180 383.443 -180 c 0
 402.443 -180 422.138 -164 426.524 -145 c 0
 430.91 -126 418.604 -110 399.604 -110 c 0
EndSplineSet
Substitution2: "Descent Substitute" uni0E10.descless
EndChar

StartChar: uni0E2F
Encoding: 3631 3631 71
Width: 560
VWidth: 0
Flags: W
HStem: -20 60<269.234 366.804> 360 50<252.774 426.614> 565 35<230.87 301.668>
LayerCount: 2
Fore
SplineSet
278.521 600 m 0
 322.521 600 350.21 564 340.052 520 c 0
 330.355 478 289.274 443 246.582 440 c 1
 265.195 421 296.656 410 339.656 410 c 0
 440.656 410 515.203 499 533.903 580 c 1
 573.903 580 l 1
 593.903 580 l 1
 499.248 170 l 2
 472.236 53 402.383 -20 255.383 -20 c 1
 269.234 40 l 1
 330.234 40 403.159 57 429.248 170 c 2
 486.733 419 l 1
 447.423 383 395.112 360 328.112 360 c 0
 248.112 360 155.579 414 180.052 520 c 0
 190.21 564 234.521 600 278.521 600 c 0
270.44 565 m 0
 245.44 565 220.823 545 215.052 520 c 0
 209.279 495 224.662 475 249.662 475 c 0
 274.662 475 299.279 495 305.052 520 c 0
 310.823 545 295.44 565 270.44 565 c 0
EndSplineSet
EndChar

StartChar: uni0E5A
Encoding: 3674 3674 72
Width: 720
VWidth: 0
Flags: W
HStem: -20 50<266.926 355.095 476.926 544.494> 360 50<262.774 434.634> 565 35<240.87 311.668>
LayerCount: 2
Fore
SplineSet
649.248 170 m 2
 619.004 39 577.383 -20 465.383 -20 c 1
 476.926 30 l 1
 535.926 30 561.543 50 589.248 170 c 2
 683.903 580 l 1
 743.903 580 l 1
 649.248 170 l 2
288.521 600 m 0
 332.521 600 360.21 564 350.052 520 c 0
 340.355 478 299.274 443 256.582 440 c 1
 275.195 421 306.656 410 349.656 410 c 0
 450.656 410 515.203 499 533.903 580 c 1
 578.903 580 l 1
 583.903 580 l 1
 489.248 170 l 2
 462.236 53 402.383 -20 255.383 -20 c 1
 266.926 30 l 1
 327.926 30 403.159 57 429.248 170 c 2
 484.656 410 l 1
 447.499 379 399.112 360 338.112 360 c 0
 258.112 360 165.579 414 190.052 520 c 0
 200.21 564 244.521 600 288.521 600 c 0
280.44 565 m 0
 255.44 565 230.823 545 225.052 520 c 0
 219.279 495 234.662 475 259.662 475 c 0
 284.662 475 309.279 495 315.052 520 c 0
 320.823 545 305.44 565 280.44 565 c 0
EndSplineSet
EndChar

StartChar: uni0E13
Encoding: 3603 3603 73
Width: 950
VWidth: 0
Flags: W
HStem: -20 55<738.168 829.492> -10 50<212.52 297.955> 140 50<253.103 309.037> 145 64<751.342 808.252> 410 10<375.271 394.656> 560 60<362.901 563.065> 580 20G<893.903 968.521>
LayerCount: 2
Fore
SplineSet
803.476 145 m 0x98
 773.476 145 742.704 120 735.778 90 c 0
 728.853 60 748.08 35 778.08 35 c 0
 808.08 35 838.853 60 845.778 90 c 0
 852.704 120 833.476 145 803.476 145 c 0x98
272.321 140 m 0x68
 244.321 140 217.242 118 210.778 90 c 0
 204.313 62 221.234 40 249.234 40 c 0
 277.234 40 304.313 62 310.778 90 c 0
 317.242 118 300.321 140 272.321 140 c 0x68
283.865 190 m 0
 338.865 190 373.476 145 360.778 90 c 0
 348.08 35 292.691 -10 237.691 -10 c 0
 182.691 -10 148.08 35 160.778 90 c 2
 206.952 290 l 2
 220.804 350 255.039 390 282.502 405 c 1
 189.273 430 l 1
 209.74 484 316.139 620 483.139 620 c 0
 618.139 620 695.823 545 664.656 410 c 2
 600.013 130 l 1
 583.853 60 l 1
 583.391 58 l 1
 629.166 122 720.404 201 808.252 209 c 1x5c
 898.521 600 l 1
 968.521 600 l 1
 876.174 200 l 1
 859.865 190 l 1
 893.94 173 910.937 134 900.778 90 c 0
 886.695 29 826.383 -20 765.383 -20 c 0xaa
 704.383 -20 666.695 29 680.778 90 c 0
 682.855 99 685.934 108 689.78 116 c 1
 624.545 63 577.691 -10 577.691 -10 c 1
 514.691 -10 503.463 15 513.853 60 c 2
 530.013 130 l 1
 594.656 410 l 2
 613.587 492 581.286 560 469.286 560 c 0x4c
 375.286 560 301.436 513 265.891 450 c 1
 396.965 420 l 1
 394.656 410 l 1
 393.656 410 l 1
 381.425 409 299.808 389 276.952 290 c 2
 252.711 185 l 1
 262.403 188 273.865 190 283.865 190 c 0
EndSplineSet
EndChar

StartChar: uni0E08
Encoding: 3592 3592 74
Width: 600
VWidth: 0
Flags: W
HStem: 190 50<238.694 324.593> 340 50<249.775 335.538> 560 60<301.019 493.693>
VStem: 146.965 70<420 476.359>
LayerCount: 2
Fore
SplineSet
454.241 105 m 1
 526.965 420 l 2
 541.048 481 520.286 560 404.286 560 c 0
 288.286 560 231.048 481 216.965 420 c 1
 146.965 420 l 1
 173.515 535 283.139 620 418.139 620 c 0
 553.139 620 623.515 535 596.965 420 c 2
 513.853 60 l 2
 503.463 15 451.691 -10 407.691 -10 c 1
 420.625 98 410.328 205 382.258 274 c 1
 363.176 226 313.865 190 263.865 190 c 0
 208.865 190 174.254 235 186.952 290 c 0
 199.649 345 255.039 390 310.039 390 c 0
 402.039 390 455.258 274 454.241 105 c 1
298.495 340 m 0
 270.495 340 243.416 318 236.952 290 c 0
 230.487 262 247.408 240 275.408 240 c 0
 303.408 240 330.487 262 336.952 290 c 0
 343.416 318 326.495 340 298.495 340 c 0
EndSplineSet
EndChar

StartChar: uni0E0D
Encoding: 3597 3597 75
Width: 930
VWidth: 0
Flags: W
HStem: -270 45<552.386 690.406> -105 35<514.187 579.007> -20 60<609.923 750.471> -10 50<212.52 297.955> 140 50<253.103 309.037> 410 10<375.271 394.656> 560 60<362.901 563.065> 580 20G<893.903 968.521>
VStem: 769.222 60<-148.679 -90>
LayerCount: 2
Fore
SplineSet
550.759 -105 m 0xcc80
 528.759 -105 506.604 -123 501.524 -145 c 0
 496.445 -167 510.289 -185 532.289 -185 c 0
 554.289 -185 576.445 -167 581.524 -145 c 0
 586.604 -123 572.759 -105 550.759 -105 c 0xcc80
558.839 -70 m 0
 599.839 -70 625.989 -104 616.524 -145 c 0
 609.137 -177 582.672 -205 551.363 -215 c 1
 570.747 -222 594.055 -225 618.055 -225 c 0
 685.055 -225 750.521 -171 769.222 -90 c 1
 829.222 -90 l 1
 800.133 -216 691.666 -270 607.666 -270 c 0
 517.666 -270 450.363 -215 466.524 -145 c 0
 475.989 -104 517.839 -70 558.839 -70 c 0
272.321 140 m 0
 244.321 140 217.242 118 210.778 90 c 0
 204.313 62 221.234 40 249.234 40 c 0xdc80
 277.234 40 304.313 62 310.778 90 c 0
 317.242 118 300.321 140 272.321 140 c 0
283.865 190 m 0
 338.865 190 373.476 145 360.778 90 c 0
 348.08 35 292.691 -10 237.691 -10 c 0
 182.691 -10 148.08 35 160.778 90 c 2
 206.952 290 l 2
 220.804 350 255.039 390 282.502 405 c 1
 189.273 430 l 1
 209.74 484 316.139 620 483.139 620 c 0xde80
 618.139 620 695.823 545 664.656 410 c 2
 600.013 130 l 2
 592.395 97 595.234 40 674.234 40 c 0
 753.234 40 782.395 97 790.013 130 c 2
 898.521 600 l 1
 968.521 600 l 1xed80
 860.013 130 l 2
 851.24 92 811.383 -20 660.383 -20 c 0
 509.383 -20 521.24 92 530.013 130 c 2
 594.656 410 l 2
 613.587 492 581.286 560 469.286 560 c 0xee80
 375.286 560 301.436 513 265.891 450 c 1
 396.965 420 l 1
 394.656 410 l 1
 393.656 410 l 1
 381.425 409 299.808 389 276.952 290 c 2
 252.711 185 l 1
 262.403 188 273.865 190 283.865 190 c 0
EndSplineSet
Substitution2: "Descent Substitute" uni0E0D.descless
EndChar

StartChar: uni0E0F
Encoding: 3599 3599 76
Width: 700
VWidth: 0
Flags: W
HStem: -300 40<68.6092 157.037> -170 40<79.871 181.804> -10 50<152.52 237.955> 140 50<163.601 237.09> 410 10<409.635 424.656> 560 60<382.83 583.065>
LayerCount: 2
Fore
SplineSet
188.75 -196 m 1
 172.443 -180 151.752 -170 125.752 -170 c 0
 100.752 -170 71.5967 -188 65.3633 -215 c 0
 59.1299 -242 79.9746 -260 104.975 -260 c 0
 139.975 -260 167.36 -241 188.75 -196 c 1
503.139 620 m 0
 638.139 620 715.823 545 684.656 410 c 2
 590 0 l 1
 534.592 -240 l 2
 525.818 -278 464.048 -290 423.048 -290 c 1
 374.291 -172 l 1
 278.048 -290 l 1
 231.048 -290 l 1
 226.666 -270 221.283 -250 213.208 -233 c 1
 184.742 -274 145.739 -300 95.7393 -300 c 0
 45.7393 -300 7.89648 -269 20.3633 -215 c 0
 32.8301 -161 84.9873 -130 134.987 -130 c 0
 161.987 -130 185.141 -138 203.908 -152 c 1
 206.524 -145 208.141 -138 209.987 -130 c 1
 254.987 -130 l 1
 250.37 -150 244.983 -169 237.059 -186 c 1
 248.364 -202 257.209 -220 264.592 -240 c 1
 356.987 -130 l 1
 407.987 -130 l 1
 459.897 -256 l 1
 461.129 -255 l 1
 520 0 l 1
 614.656 410 l 2
 633.587 492 601.286 560 489.286 560 c 0
 395.286 560 320.974 511 285.891 450 c 1
 426.965 420 l 1
 424.656 410 l 1
 424.656 410 340.731 393 319.261 300 c 2
 310.025 260 l 2
 295.942 199 320.633 176 300.778 90 c 0
 288.08 35 232.691 -10 177.691 -10 c 0
 122.691 -10 88.0801 35 100.778 90 c 0
 113.476 145 168.865 190 223.865 190 c 0
 228.865 190 232.865 190 237.634 189 c 1
 235.097 204 233.1 230 240.025 260 c 2
 249.261 300 l 2
 263.574 362 299.808 389 325.578 401 c 1
 209.273 430 l 1
 229.74 484 336.139 620 503.139 620 c 0
212.321 140 m 0
 184.321 140 157.242 118 150.778 90 c 0
 144.313 62 161.234 40 189.234 40 c 0
 217.234 40 244.313 62 250.778 90 c 0
 257.242 118 240.321 140 212.321 140 c 0
EndSplineSet
Substitution2: "Descent Shorten" uni0E0F.shorten
EndChar

StartChar: uni0E4B
Encoding: 3659 3659 77
Width: 0
VWidth: 0
Flags: W
HStem: 1090 50<-6.81055 71.6465 143.189 221.646>
VStem: -18.3535 251.543
LayerCount: 2
Fore
SplineSet
101.659 1220 m 1
 161.659 1220 l 1
 143.189 1140 l 1
 233.189 1140 l 1
 221.646 1090 l 1
 131.646 1090 l 1
 108.56 990 l 1
 57.7939 1030 l 1
 71.6465 1090 l 1
 -18.3535 1090 l 1
 -6.81055 1140 l 1
 83.1895 1140 l 1
 101.659 1220 l 1
EndSplineSet
Position2: "Nikhahit & Tone High-Left" dx=-240 dy=0 dh=0 dv=0
Position2: "Mai Han-Akat & Tone High-Left" dx=-300 dy=0 dh=0 dv=0
Position2: "Tone High-Left" dx=-180 dy=0 dh=0 dv=0
MultipleSubs2: "Tone High-Low" uni0E4B.low
EndChar

StartChar: uni0E0F.shorten
Encoding: 63290 63290 78
Width: 690
VWidth: 0
Flags: W
HStem: -220 40<87.0788 175.507> -90 40<98.3408 200.274> -10 50<152.52 237.955> 140 50<163.601 237.09> 410 10<409.635 424.656> 560 60<382.83 583.065>
LayerCount: 2
Fore
SplineSet
207.22 -116 m 1
 190.913 -100 170.222 -90 144.222 -90 c 0
 119.222 -90 90.0664 -108 83.833 -135 c 0
 77.5996 -162 98.4434 -180 123.443 -180 c 0
 158.443 -180 185.83 -161 207.22 -116 c 1
503.139 620 m 0
 638.139 620 715.823 545 684.656 410 c 2
 608.47 80 l 1
 590 0 l 1
 553.062 -160 l 2
 544.288 -198 482.518 -210 441.518 -210 c 1
 392.76 -92 l 1
 296.518 -210 l 1
 249.518 -210 l 1
 245.135 -190 239.752 -170 231.677 -153 c 1
 203.212 -194 164.209 -220 114.209 -220 c 0
 64.209 -220 26.3662 -189 38.833 -135 c 0
 51.2998 -81 103.457 -50 153.457 -50 c 0
 180.457 -50 203.609 -58 222.378 -72 c 1
 224.993 -65 226.609 -58 228.457 -50 c 1
 273.457 -50 l 1
 268.839 -70 263.453 -89 255.528 -106 c 1
 266.834 -122 275.679 -140 283.062 -160 c 1
 375.457 -50 l 1
 426.457 -50 l 1
 478.367 -176 l 1
 479.598 -175 l 1
 520 0 l 1
 538.47 80 l 1
 614.656 410 l 2
 633.587 492 601.286 560 489.286 560 c 0
 395.286 560 320.974 511 285.891 450 c 1
 426.965 420 l 1
 424.656 410 l 1
 424.656 410 340.731 393 319.261 300 c 2
 310.025 260 l 2
 295.942 199 320.633 176 300.778 90 c 0
 288.08 35 232.691 -10 177.691 -10 c 0
 122.691 -10 88.0801 35 100.778 90 c 0
 113.476 145 168.865 190 223.865 190 c 0
 228.865 190 232.865 190 237.634 189 c 1
 235.097 204 233.1 230 240.025 260 c 2
 249.261 300 l 2
 263.574 362 299.808 389 325.578 401 c 1
 209.273 430 l 1
 229.74 484 336.139 620 503.139 620 c 0
212.321 140 m 0
 184.321 140 157.242 118 150.778 90 c 0
 144.313 62 161.234 40 189.234 40 c 0
 217.234 40 244.313 62 250.778 90 c 0
 257.242 118 240.321 140 212.321 140 c 0
EndSplineSet
EndChar

StartChar: uni0E0E.shorten
Encoding: 63291 63291 79
Width: 690
VWidth: 0
Flags: W
HStem: -220 40<159.552 278.88> -80 40<173.282 313.305> -10 50<152.52 237.955> 140 50<163.601 237.09> 410 10<409.635 424.656> 560 60<382.83 583.065>
LayerCount: 2
Fore
SplineSet
208.443 -180 m 0
 260.443 -180 302.446 -154 329.066 -108 c 1
 298.222 -90 265.53 -80 231.53 -80 c 0
 203.53 -80 165.222 -90 155.987 -130 c 0
 146.752 -170 180.443 -180 208.443 -180 c 0
503.139 620 m 0
 638.139 620 715.823 545 684.656 410 c 2
 608.47 80 l 1
 590 0 l 1
 553.062 -160 l 2
 544.288 -198 482.518 -210 441.518 -210 c 1
 418.213 -181 392.446 -154 366.295 -133 c 1
 329.059 -186 273.209 -220 199.209 -220 c 0
 138.209 -220 97.2891 -185 109.987 -130 c 0
 122.685 -75 179.766 -40 240.766 -40 c 0
 277.766 -40 314.226 -51 346.839 -70 c 1
 350.147 -60 353.457 -50 355.766 -40 c 1
 405.766 -40 l 1
 401.379 -59 394.992 -78 387.067 -95 c 1
 420.526 -119 451.831 -148 479.137 -177 c 1
 520 0 l 1
 538.47 80 l 1
 614.656 410 l 2
 633.587 492 601.286 560 489.286 560 c 0
 395.286 560 320.974 511 285.891 450 c 1
 426.965 420 l 1
 424.656 410 l 1
 424.656 410 340.731 393 319.261 300 c 2
 310.025 260 l 2
 295.942 199 320.633 176 300.778 90 c 0
 288.08 35 232.691 -10 177.691 -10 c 0
 122.691 -10 88.0801 35 100.778 90 c 0
 113.476 145 168.865 190 223.865 190 c 0
 228.865 190 232.865 190 237.634 189 c 1
 235.097 204 233.1 230 240.025 260 c 2
 249.261 300 l 2
 263.574 362 299.808 389 325.578 401 c 1
 209.273 430 l 1
 229.74 484 336.139 620 503.139 620 c 0
212.321 140 m 0
 184.321 140 157.242 118 150.778 90 c 0
 144.313 62 161.234 40 189.234 40 c 0
 217.234 40 244.313 62 250.778 90 c 0
 257.242 118 240.321 140 212.321 140 c 0
EndSplineSet
EndChar

StartChar: uni0E5B
Encoding: 3675 3675 80
Width: 1340
VWidth: 0
Flags: W
HStem: -20 45<301.301 505.25> 150 45<368.312 508.959> 250 40<361.408 441.714> 280 40<1113.04 1314.64> 390 40<375.777 455.419> 575 45<385.777 547.862>
VStem: 826.35 42.5537<148 426 515.99 580>
LayerCount: 2
Fore
SplineSet
429.273 430 m 0xde
 479.273 430 510.039 390 498.495 340 c 0
 486.952 290 437.717 250 387.717 250 c 0xee
 371.717 250 358.641 254 347.257 261 c 1
 354.713 211 390.02 195 435.02 195 c 0
 496.02 195 563.792 233 588.495 340 c 0
 622.202 486 579.749 575 472.749 575 c 0
 361.749 575 248.97 472 209.261 300 c 0
 176.246 157 237.771 25 395.771 25 c 0
 642.771 25 760.877 307 823.903 580 c 1
 868.903 580 l 1
 877.169 148 l 1
 1060.05 520 l 1
 1100.05 520 l 1
 1076.73 419 1079.88 320 1163.88 320 c 2
 1323.88 320 l 1
 1314.64 280 l 1
 1154.64 280 l 2
 1075.64 280 1044.96 329 1044.5 405 c 1
 878.853 60 l 1
 833.853 60 l 1
 826.35 426 l 1
 752.25 196 623.383 -20 385.383 -20 c 0
 208.383 -20 118.396 123 159.261 300 c 0
 202.202 486 344.139 620 483.139 620 c 0
 625.139 620 675.665 501 638.495 340 c 0
 613.792 233 522.63 150 424.63 150 c 0
 328.63 150 282.407 227 303.878 320 c 0
 318.884 385 379.273 430 429.273 430 c 0xde
420.039 390 m 0
 392.039 390 364.96 368 358.495 340 c 0
 352.031 312 368.952 290 396.952 290 c 0
 424.952 290 452.031 312 458.495 340 c 0
 464.96 368 448.039 390 420.039 390 c 0
EndSplineSet
EndChar

StartChar: uni0E4E
Encoding: 3662 3662 81
Width: 0
VWidth: 0
Flags: W
HStem: 700 50<-248.566 -131.149> 910 50<-157.883 -108.719> 1090 50<-121.547 -6.20528>
VStem: 3.17676 50<1010 1079.58>
LayerCount: 2
Fore
SplineSet
-108.22 887 m 1
 -118.757 902 -136.91 910 -159.91 910 c 0
 -203.91 910 -247.99 875 -258.379 830 c 0
 -268.537 786 -240.849 750 -196.849 750 c 0
 -173.849 750 -151.771 759 -134.308 774 c 1
 -107.389 739 l 1
 -135.93 715 -172.393 700 -208.393 700 c 0
 -279.393 700 -324.771 759 -308.379 830 c 0
 -296.144 883 -253.754 928 -203.906 949 c 1
 -210.75 967 -211.902 988 -206.823 1010 c 0
 -190.2 1082 -117.811 1140 -46.8105 1140 c 0
 25.1895 1140 69.7998 1082 53.1768 1010 c 1
 3.17676 1010 l 1
 13.5664 1055 -13.3535 1090 -58.3535 1090 c 0
 -102.354 1090 -146.434 1055 -156.823 1010 c 0
 -161.21 991 -157.365 973 -148.366 960 c 1
 -112.366 960 -82.5986 946 -65.1396 922 c 1
 -108.22 887 l 1
EndSplineSet
EndChar

StartChar: uni0E4F
Encoding: 3663 3663 82
Width: 780
VWidth: 0
Flags: W
HStem: -20 50<292.406 510.724> 140 50<370.476 506.997> 410 50<411.524 548.045> 570 50<407.797 626.115>
LayerCount: 2
Fore
SplineSet
484.656 410 m 0
 423.656 410 363.344 361 349.261 300 c 0
 335.178 239 372.865 190 433.865 190 c 0
 494.865 190 555.178 239 569.261 300 c 0
 583.344 361 545.656 410 484.656 410 c 0
496.199 460 m 0
 584.199 460 639.577 388 619.261 300 c 0
 598.944 212 510.321 140 422.321 140 c 0
 334.321 140 278.944 212 299.261 300 c 0
 319.577 388 408.199 460 496.199 460 c 0
521.595 570 m 0
 372.595 570 223.66 449 189.261 300 c 0
 154.861 151 247.926 30 396.926 30 c 0
 545.926 30 694.861 151 729.261 300 c 0
 763.66 449 670.595 570 521.595 570 c 0
533.139 620 m 0
 710.139 620 820.124 477 779.261 300 c 0
 738.396 123 562.383 -20 385.383 -20 c 0
 208.383 -20 98.3965 123 139.261 300 c 0
 180.124 477 356.139 620 533.139 620 c 0
EndSplineSet
EndChar

StartChar: uni0E51
Encoding: 3665 3665 83
Width: 800
VWidth: 0
Flags: W
HStem: -60 60<400 507.556> 90 60<259.675 431.06> 190 50<414.922 451.865> 360 50<429.109 524.737> 560 60<413.319 634.235>
LayerCount: 2
Fore
SplineSet
494.656 410 m 0
 555.656 410 593.344 361 579.261 300 c 0
 552.479 184 447.778 90 330.778 90 c 0
 203.778 90 130.171 174 159.261 300 c 0
 200.124 477 351.139 620 543.139 620 c 0
 735.139 620 820.124 477 779.261 300 c 0
 730.086 87 563.147 -60 386.147 -60 c 1
 400 0 l 1
 528 0 665.165 109 709.261 300 c 0
 742.506 444 681.286 560 529.286 560 c 0
 377.286 560 262.506 444 229.261 300 c 0
 211.715 224 237.63 150 344.63 150 c 0
 387.63 150 423.324 166 451.865 190 c 1
 449.865 190 448.865 190 446.865 190 c 0
 385.865 190 345.178 239 359.261 300 c 0
 373.344 361 433.656 410 494.656 410 c 0
483.112 360 m 0
 450.112 360 416.879 333 409.261 300 c 0
 401.642 267 422.408 240 455.408 240 c 0
 488.408 240 521.642 267 529.261 300 c 0
 536.879 333 516.112 360 483.112 360 c 0
EndSplineSet
EndChar

StartChar: uni0E52
Encoding: 3666 3666 84
Width: 930
VWidth: 0
Flags: W
HStem: 0 60<203.853 783.853> 180 50<450.535 547.104> 350 50<467.361 562.428> 560 60<501.057 623.54> 790 20G<266.195 337.003>
VStem: 267.003 70<540.938 810>
LayerCount: 2
Fore
SplineSet
520.804 350 m 0
 487.804 350 454.57 323 446.952 290 c 0
 439.333 257 460.1 230 493.1 230 c 0
 526.1 230 559.333 257 566.952 290 c 0
 574.57 323 553.804 350 520.804 350 c 0
267.003 810 m 1
 337.003 810 l 1
 337.003 810 354.609 713 328.521 600 c 2
 203.853 60 l 1
 783.853 60 l 1
 860.039 390 l 2
 882.895 489 886.207 538 839.286 560 c 1
 692.348 400 l 1
 632.348 400 l 1
 651.971 485 640.286 560 569.286 560 c 0
 498.286 560 446.971 485 427.348 400 c 0
 422.729 380 421.112 360 421.957 342 c 1
 447.807 376 490.348 400 532.348 400 c 0
 593.348 400 631.035 351 616.952 290 c 0
 602.869 229 542.557 180 481.557 180 c 0
 380.557 180 335.104 282 362.348 400 c 0
 389.59 518 482.139 620 583.139 620 c 0
 655.139 620 694.133 568 700.279 495 c 1
 818.139 620 l 1
 853.139 620 l 1
 943.136 594 963.515 535 930.039 390 c 2
 853.853 60 l 2
 842.309 10 825 0 770 0 c 2
 190 0 l 2
 135 0 122.309 10 133.853 60 c 2
 258.521 600 l 2
 282.993 706 267.003 810 267.003 810 c 1
EndSplineSet
EndChar

StartChar: uni0E54
Encoding: 3668 3668 85
Width: 890
VWidth: 0
Flags: W
HStem: 0 60<306.216 553.853 607.628 760> 160 50<540.783 646.478> 350 50<561.875 667.487> 540 60<409.214 832.653> 790 20G<961.073 1047>
VStem: 977.003 70<743.764 810>
LayerCount: 2
Fore
SplineSet
632.348 400 m 0
 698.348 400 739.881 346 724.643 280 c 0
 709.406 214 642.938 160 576.938 160 c 0
 562.938 160 550.4 162 539.555 167 c 1
 569.625 98 639.853 60 673.853 60 c 2
 773.853 60 l 1
 760 0 l 1
 390 0 l 2
 210 0 130.937 134 169.261 300 c 0
 207.585 466 348.521 600 528.521 600 c 2
 708.521 600 l 2
 839.521 600 945.144 672 977.003 810 c 1
 1047 810 l 1
 1008.68 644 874.669 540 694.669 540 c 2
 514.669 540 l 2
 383.669 540 271.12 438 239.261 300 c 0
 207.4 162 272.853 60 403.853 60 c 2
 553.853 60 l 1
 553.853 60 446.629 137 477.334 270 c 0
 494.419 344 559.348 400 632.348 400 c 0
620.804 350 m 0
 581.804 350 543.646 319 534.643 280 c 0
 525.64 241 549.482 210 588.482 210 c 0
 627.482 210 665.64 241 674.643 280 c 0
 683.646 319 659.804 350 620.804 350 c 0
EndSplineSet
EndChar

StartChar: uni0E55
Encoding: 3669 3669 86
Width: 890
VWidth: 0
Flags: W
HStem: 0 60<306.216 553.853 607.628 760> 160 50<540.783 646.478> 350 50<561.875 667.487> 540 75<585.885 690.118> 540 60<409.214 539.521 718.521 832.939> 745 55<604.81 707.245> 790 20G<961.419 1047>
VStem: 977.003 70<743.764 810>
LayerCount: 2
Fore
SplineSet
661.997 745 m 0xf5
 625.997 745 590.302 716 581.99 680 c 0
 573.679 644 595.984 615 631.984 615 c 0
 667.984 615 703.679 644 711.99 680 c 0
 720.302 716 697.997 745 661.997 745 c 0xf5
620.804 350 m 0
 581.804 350 543.646 319 534.643 280 c 0
 525.64 241 549.482 210 588.482 210 c 0
 627.482 210 665.64 241 674.643 280 c 0
 683.646 319 659.804 350 620.804 350 c 0
632.348 400 m 0
 698.348 400 739.881 346 724.643 280 c 0
 709.406 214 642.938 160 576.938 160 c 0
 562.938 160 550.4 162 539.555 167 c 1
 569.625 98 639.853 60 673.853 60 c 2
 773.853 60 l 1
 760 0 l 1
 390 0 l 2
 210 0 130.937 134 169.261 300 c 0
 207.585 466 348.521 600 528.521 600 c 2
 539.521 600 l 1
 525.369 621 519.833 649 526.99 680 c 0
 542.228 746 608.694 800 674.694 800 c 0xed
 740.694 800 782.228 746 766.99 680 c 0
 759.833 649 741.369 621 718.521 600 c 1
 844.444 604 945.836 675 977.003 810 c 1
 1047 810 l 1
 1008.68 644 874.669 540 694.669 540 c 2
 514.669 540 l 2xeb
 383.669 540 271.12 438 239.261 300 c 0
 207.4 162 272.853 60 403.853 60 c 2
 553.853 60 l 1
 553.853 60 446.629 137 477.334 270 c 0
 494.419 344 559.348 400 632.348 400 c 0
EndSplineSet
EndChar

StartChar: uni0E56
Encoding: 3670 3670 87
Width: 800
VWidth: 0
Flags: W
HStem: -20 60<311.42 533.596> 160 50<250.873 356.478> 350 50<271.875 377.487> 540 60<344.265 633.089> 790 20G<227.841 317.003>
VStem: 247.003 70<626.441 810>
LayerCount: 2
Fore
SplineSet
342.348 400 m 0
 408.348 400 449.881 346 434.644 280 c 0
 419.406 214 352.938 160 286.938 160 c 0
 270.938 160 256.632 163 243.017 169 c 1
 257.854 86 320.234 40 419.234 40 c 0
 557.234 40 672.321 140 709.261 300 c 0
 741.12 438 665.669 540 534.669 540 c 2
 424.669 540 l 2
 244.669 540 208.679 644 247.003 810 c 1
 317.003 810 l 1
 285.144 672 307.521 600 438.521 600 c 2
 548.521 600 l 2
 728.521 600 817.585 466 779.261 300 c 0
 738.166 122 600.383 -20 405.383 -20 c 0
 215.383 -20 151.088 113 187.334 270 c 0
 204.419 344 269.348 400 342.348 400 c 0
330.804 350 m 0
 291.804 350 253.646 319 244.644 280 c 0
 235.64 241 259.482 210 298.482 210 c 0
 337.482 210 375.64 241 384.644 280 c 0
 393.646 319 369.804 350 330.804 350 c 0
EndSplineSet
EndChar

StartChar: uni0E57
Encoding: 3671 3671 88
Width: 1050
VWidth: 0
Flags: W
HStem: -20 60<277.499 393.494> 200 60<301.903 418.133> 560 60<359.904 485.767> 580 20G<1013.9 1088.52>
LayerCount: 2
Fore
SplineSet
366.174 200 m 0xc0
 322.174 200 277.862 164 267.704 120 c 0
 257.546 76 285.234 40 329.234 40 c 0
 373.234 40 417.546 76 427.704 120 c 0
 437.862 164 410.174 200 366.174 200 c 0xc0
429.286 560 m 0xe0
 346.286 560 262.506 444 229.261 300 c 0
 213.1 230 209.095 178 213.321 140 c 1
 239.021 208 309.025 260 380.025 260 c 0
 457.025 260 505.481 197 487.704 120 c 0
 469.928 43 392.383 -20 315.383 -20 c 0
 201.383 -20 107.084 74 159.261 300 c 0
 201.971 485 323.139 620 443.139 620 c 0
 533.139 620 577.362 556 572.582 440 c 1
 708.139 620 l 1
 743.139 620 l 1xe0
 848.905 593 867.512 509 833.112 360 c 2
 762.236 53 l 1
 843.313 62 902.395 97 933.1 230 c 2
 1018.52 600 l 1
 1088.52 600 l 1xd0
 1003.1 230 l 2
 953.232 14 827.691 -10 677.691 -10 c 1
 680 0 l 1
 691.543 50 l 1
 763.112 360 l 2
 791.74 484 776.207 538 729.286 560 c 1
 556.187 330 l 1
 496.187 330 l 1
 529.432 474 507.286 560 429.286 560 c 0xe0
EndSplineSet
EndChar

StartChar: uni0E58
Encoding: 3672 3672 89
Width: 910
VWidth: 0
Flags: W
HStem: -20 55<564.393 719.504> 160 50<681.799 787.356> 350 50<702.808 807.365> 540 60<390.604 822.653> 790 20G<951.073 1037>
VStem: 967.003 70<743.764 810>
LayerCount: 2
Fore
SplineSet
772.348 400 m 0
 852.348 400 885.956 329 868.871 255 c 2
 856.174 200 l 2
 815.079 22 720.383 -20 615.383 -20 c 0
 524.383 -20 463.389 45 453.63 150 c 1
 367.691 -10 l 1
 187.691 -10 120.937 134 159.261 300 c 0
 197.585 466 328.521 600 508.521 600 c 2
 698.521 600 l 2
 829.521 600 935.144 672 967.003 810 c 1
 1037 810 l 1
 998.679 644 864.669 540 684.669 540 c 2
 494.669 540 l 2
 363.669 540 261.12 438 229.261 300 c 0
 200.863 177 239.315 75 340.467 54 c 1
 464.644 280 l 1
 499.644 280 l 1
 524.643 280 l 1
 490.244 131 549.08 35 628.08 35 c 0
 715.08 35 771.009 91 784.63 150 c 2
 792.018 182 l 1
 768.786 168 742.938 160 716.938 160 c 0
 650.938 160 609.406 214 624.643 280 c 0
 639.881 346 706.348 400 772.348 400 c 0
760.804 350 m 0
 721.804 350 683.646 319 674.643 280 c 0
 665.64 241 689.482 210 728.482 210 c 0
 767.482 210 805.64 241 814.643 280 c 0
 823.646 319 799.804 350 760.804 350 c 0
EndSplineSet
EndChar

StartChar: uni0E59
Encoding: 3673 3673 90
Width: 960
VWidth: 0
Flags: W
HStem: -20 60<277.499 393.494> 0 21G<596.046 670> 200 60<301.903 418.133> 560 60<359.904 479.354> 790 20G<1012.39 1087>
LayerCount: 2
Fore
SplineSet
366.174 200 m 0xb8
 322.174 200 277.862 164 267.704 120 c 0
 257.546 76 285.234 40 329.234 40 c 0
 373.234 40 417.546 76 427.704 120 c 0
 437.862 164 410.174 200 366.174 200 c 0xb8
952.36 530 m 2
 1017 810 l 1
 1087 810 l 1
 1022.36 530 l 2
 985.19 369 923.261 300 749.261 300 c 1
 763.112 360 l 1
 770.039 390 l 2
 792.895 489 766.207 538 719.286 560 c 1
 591.424 396 l 1
 670 0 l 1
 600 0 l 1x78
 516.965 420 l 1
 495.82 519 481.286 560 429.286 560 c 0
 346.286 560 262.506 444 229.261 300 c 0
 213.1 230 209.095 178 213.321 140 c 1
 239.021 208 309.025 260 380.025 260 c 0
 457.025 260 505.481 197 487.704 120 c 0
 469.928 43 392.383 -20 315.383 -20 c 0
 201.383 -20 107.084 74 159.261 300 c 0
 201.971 485 323.139 620 443.139 620 c 0
 528.139 620 556.056 559 577.585 466 c 1
 698.139 620 l 1
 733.139 620 l 1
 838.905 593 859.973 498 835.039 390 c 2
 829.498 366 l 1
 893.499 379 927.427 422 952.36 530 c 2
EndSplineSet
EndChar

StartChar: uni0E4A
Encoding: 3658 3658 91
Width: 0
VWidth: 0
Flags: W
HStem: 1026 30<-70.5112 -13.3817> 1030 40<57.0293 83.3021> 1126 30<-60.9053 -4.41877> 1210 46<-44.4694 9.1405>
VStem: 223.662 54<1165.84 1246>
LayerCount: 2
Fore
SplineSet
89.3506 1210 m 1x78
 49.1924 1166 l 1
 9.19238 1166 l 1
 10.1172 1183 12.3506 1210 -10.6494 1210 c 0
 -33.6494 1210 -57.7295 1175 -66.3486 1142 c 1
 -52.502 1150 -38.1162 1156 -23.1162 1156 c 0
 12.8838 1156 35.958 1126 27.6465 1090 c 0
 19.5664 1055 -17.1289 1026 -53.1289 1026 c 0xb8
 -108.129 1026 -130.662 1080 -116.811 1140 c 0
 -102.728 1201 -55.0293 1256 -0.0292969 1256 c 0
 33.9707 1256 43.1992 1231 46.8125 1212 c 1
 79.9707 1256 l 1
 99.9707 1256 l 2
 143.971 1256 168.427 1206 154.575 1146 c 0
 149.034 1122 140.955 1100 129.8 1082 c 1
 157.185 1088 195.265 1123 223.662 1246 c 1
 277.662 1246 l 1
 252.267 1136 199.794 1030 47.7939 1030 c 1
 56.1055 1066 l 1
 57.0293 1070 l 1
 79.0293 1070 95.3398 1106 104.575 1146 c 0
 110.347 1171 108.504 1202 89.3506 1210 c 1x78
-30.042 1126 m 0
 -49.042 1126 -67.7363 1110 -72.3535 1090 c 0
 -76.7402 1071 -65.2031 1056 -46.2031 1056 c 0
 -26.2031 1056 -6.74023 1071 -2.35352 1090 c 0
 2.26367 1110 -10.042 1126 -30.042 1126 c 0
EndSplineSet
Substitution2: "Thai Tone & Vowel Above-Narrow" uni0E4A.narrow
Position2: "Nikhahit & Tone High-Left" dx=-190 dy=0 dh=0 dv=0
Position2: "Mai Han-Akat & Tone High-Left" dx=-260 dy=0 dh=0 dv=0
Position2: "Tone High-Left" dx=-180 dy=0 dh=0 dv=0
MultipleSubs2: "Tone High-Low" uni0E4A.low
EndChar

StartChar: uni0E3F
Encoding: 3647 3647 92
Width: 780
VWidth: 0
Flags: W
HStem: 0 60<193.853 350 413.853 568.325> 385 60<282.736 438.884 502.736 618.356> 740 60<350.843 520.843 584.694 674.486>
LayerCount: 2
Fore
SplineSet
569.325 950 m 1
 619.325 950 l 1
 584.694 800 l 1
 770.771 796 810.685 696 786.212 590 c 0
 768.897 515 712.121 451 632.503 418 c 1
 716.039 390 765.032 325 740.791 220 c 0
 706.854 73 593 0 450 0 c 2
 400 0 l 1
 365.37 -150 l 1
 315.37 -150 l 1
 350 0 l 1
 110 0 l 1
 294.694 800 l 1
 534.694 800 l 1
 569.325 950 l 1
463.853 60 m 2
 573.853 60 650.937 134 670.791 220 c 0
 693.878 320 629.885 385 508.884 385 c 2
 488.884 385 l 1
 413.853 60 l 1
 463.853 60 l 2
570.843 740 m 1
 502.736 445 l 1
 522.736 445 l 2
 626.736 445 701.437 526 716.212 590 c 0
 736.298 677 695.149 737 570.843 740 c 1
452.736 445 m 1
 520.843 740 l 1
 350.843 740 l 1
 282.736 445 l 1
 452.736 445 l 1
363.853 60 m 1
 438.884 385 l 1
 268.884 385 l 1
 193.853 60 l 1
 363.853 60 l 1
EndSplineSet
EndChar

StartChar: uni0E11
Encoding: 3601 3601 93
Width: 770
VWidth: 0
Flags: W
HStem: 0 21G<250 329.617 600 674.617> 320 40<231.301 304.903> 450 40<242.318 316.175> 545 65<600.109 700.833> 570 40<267.004 341.165>
LayerCount: 2
Fore
SplineSet
320.83 610 m 0xe8
 366.83 610 386.211 577 391.823 545 c 1xf0
 450.83 610 l 1
 469.83 610 l 1xe8
 500.598 596 522.44 565 529.206 525 c 1
 573.287 573 626.83 610 685.83 610 c 0
 746.83 610 801.826 571 764.656 410 c 2
 670 0 l 1
 600 0 l 1
 694.656 410 l 2
 716.127 503 709.823 545 659.823 545 c 0xf0
 612.823 545 565.819 506 524.353 452 c 1
 491.032 325 395.646 306 371.174 200 c 2
 325 0 l 1
 250 0 l 1
 296.174 200 l 2
 324.34 322 444.649 345 471.199 460 c 0
 481.127 503 481.054 546 456.133 568 c 1
 390.434 500 l 1
 350.434 500 l 1
 350.822 532 344.595 570 311.595 570 c 0
 266.595 570 235.82 519 221.199 460 c 1
 241.355 478 267.125 490 293.125 490 c 0
 340.125 490 369.353 452 358.502 405 c 0
 347.65 358 300.878 320 253.878 320 c 0
 182.878 320 159.346 387 177.354 465 c 0
 190.514 522 241.83 610 320.83 610 c 0xe8
283.891 450 m 0
 258.891 450 234.273 430 228.502 405 c 0
 222.729 380 238.112 360 263.112 360 c 0
 288.112 360 312.729 380 318.502 405 c 0
 324.273 430 308.891 450 283.891 450 c 0
EndSplineSet
EndChar

StartChar: uni0E12
Encoding: 3602 3602 94
Width: 930
VWidth: 0
Flags: W
HStem: -20 55<488.168 579.492> 240 40<359.263 419.908> 380 40<372.968 453.11> 580 20G<351.639 406.188 530.855 594.639 893.903 968.521>
LayerCount: 2
Fore
SplineSet
417.729 380 m 0
 389.729 380 362.65 358 356.187 330 c 0
 349.723 302 366.644 280 394.644 280 c 0
 422.644 280 449.723 302 456.187 330 c 0
 462.65 358 445.729 380 417.729 380 c 0
898.521 600 m 1
 968.521 600 l 1
 843.853 60 l 2
 833.463 15 800.691 -10 737.691 -10 c 1
 726.31 23 707.393 84 653.704 120 c 1
 654.626 111 653.087 100 650.778 90 c 0
 636.695 29 576.383 -20 515.383 -20 c 0
 454.383 -20 416.695 29 430.778 90 c 0
 443.245 144 492.634 189 545.712 198 c 1
 596.965 420 l 2
 615.665 501 591.361 543 559.286 560 c 1
 440.816 480 l 1
 359.286 560 l 1
 319.361 543 275.665 501 256.965 420 c 0
 226.721 289 240.099 217 215.396 110 c 2
 212.625 98 l 1
 266.092 152 347.172 187 400.64 241 c 1
 395.408 240 390.408 240 385.408 240 c 0
 335.408 240 304.644 280 316.187 330 c 0
 327.729 380 376.965 420 426.965 420 c 0
 476.965 420 507.729 380 496.187 330 c 0
 460.402 175 214.703 107 187.691 -10 c 1
 187.691 -10 99.6152 -6 106.926 30 c 1
 106.926 30 138.238 79 152.321 140 c 0
 175.87 242 155.798 285 186.965 420 c 0
 214.207 538 315.139 620 388.139 620 c 1
 455.823 545 l 1
 558.139 620 l 1
 631.139 620 694.207 538 666.965 420 c 2
 614.558 193 l 1
 709.248 170 757.24 92 769.234 40 c 1
 898.521 600 l 1
553.476 145 m 0
 523.476 145 492.704 120 485.778 90 c 0
 478.853 60 498.08 35 528.08 35 c 0
 558.08 35 588.853 60 595.778 90 c 0
 602.704 120 583.476 145 553.476 145 c 0
EndSplineSet
EndChar

StartChar: uni0E0C
Encoding: 3596 3596 95
Width: 930
VWidth: 0
Flags: W
HStem: -20 55<488.168 579.492> -10 50<212.52 297.955> 140 50<253.103 309.037> 410 10<375.271 394.656> 560 60<362.901 563.065> 580 20G<893.903 968.521>
LayerCount: 2
Fore
SplineSet
553.476 145 m 0xb0
 523.476 145 492.704 120 485.778 90 c 0
 478.853 60 498.08 35 528.08 35 c 0
 558.08 35 588.853 60 595.778 90 c 0
 602.704 120 583.476 145 553.476 145 c 0xb0
272.321 140 m 0
 244.321 140 217.242 118 210.778 90 c 0
 204.313 62 221.234 40 249.234 40 c 0x70
 277.234 40 304.313 62 310.778 90 c 0
 317.242 118 300.321 140 272.321 140 c 0
283.865 190 m 0
 338.865 190 373.476 145 360.778 90 c 0
 348.08 35 292.691 -10 237.691 -10 c 0
 182.691 -10 148.08 35 160.778 90 c 2
 206.952 290 l 2
 220.804 350 255.039 390 282.502 405 c 1
 189.273 430 l 1
 209.74 484 316.139 620 483.139 620 c 0x78
 618.139 620 695.823 545 664.656 410 c 2
 614.558 193 l 1
 709.248 170 757.24 92 769.234 40 c 1
 898.521 600 l 1
 968.521 600 l 1
 843.853 60 l 2
 833.463 15 800.691 -10 737.691 -10 c 1x74
 726.31 23 707.393 84 653.704 120 c 1
 654.626 111 653.087 100 650.778 90 c 0
 636.695 29 576.383 -20 515.383 -20 c 0
 454.383 -20 416.695 29 430.778 90 c 0
 443.245 144 492.634 189 545.712 198 c 1
 594.656 410 l 2
 613.587 492 581.286 560 469.286 560 c 0xb8
 375.286 560 301.436 513 265.891 450 c 1
 396.965 420 l 1
 394.656 410 l 1
 393.656 410 l 1
 381.425 409 299.808 389 276.952 290 c 2
 252.711 185 l 1
 262.403 188 273.865 190 283.865 190 c 0
EndSplineSet
EndChar

StartChar: uni0E09
Encoding: 3593 3593 96
Width: 670
VWidth: 0
Flags: W
HStem: -20 55<448.168 539.492> 145 60<464.395 527.328> 200 45<183.632 225.883> 335 45<193.792 270.272> 560 60<344.703 539.697>
VStem: 186.965 70<420 476.359>
LayerCount: 2
Fore
SplineSet
402.936 121 m 1xbc
 341.624 85 285.926 30 257.691 -10 c 1
 194.691 -10 183.463 15 193.853 60 c 2
 226.636 202 l 1
 220.404 201 213.174 200 206.174 200 c 0xbc
 156.174 200 125.408 240 136.952 290 c 0
 148.495 340 197.729 380 247.729 380 c 0
 297.729 380 328.495 340 316.952 290 c 2
 263.853 60 l 1
 262.774 51 l 1
 314.78 116 436.636 202 527.328 205 c 1xdc
 576.965 420 l 2
 591.048 481 565.286 560 449.286 560 c 0
 333.286 560 271.048 481 256.965 420 c 1
 186.965 420 l 1
 213.515 535 328.139 620 463.139 620 c 0
 598.139 620 673.515 535 646.965 420 c 2
 596.174 200 l 1
 575.172 187 l 1
 605.017 169 620.475 132 610.778 90 c 0
 596.695 29 536.383 -20 475.383 -20 c 0
 414.383 -20 376.695 29 390.778 90 c 0
 393.317 101 397.626 111 402.936 121 c 1xbc
237.341 335 m 0
 212.341 335 187.724 315 181.952 290 c 0
 176.18 265 191.562 245 216.562 245 c 0
 241.562 245 266.18 265 271.952 290 c 0
 277.724 315 262.341 335 237.341 335 c 0
513.476 145 m 0xdc
 483.476 145 452.704 120 445.778 90 c 0
 438.853 60 458.08 35 488.08 35 c 0
 518.08 35 548.853 60 555.778 90 c 0
 562.704 120 543.476 145 513.476 145 c 0xdc
EndSplineSet
EndChar

StartChar: uni0E0A.alt
Encoding: 3681 3681 97
Width: 680
VWidth: 0
Flags: W
HStem: -20 60<314.8 476.682> 350 40<222.456 296.829> 480 40<243.093 308.101> 560 50<270.88 406.869> 580 70<662.681 773.903>
LayerCount: 2
Fore
SplineSet
575.421 370 m 2xe0
 581.886 398 504.888 424 469.428 435 c 1
 433.341 335 341.569 310 316.174 200 c 2
 300.013 130 l 2
 289.162 83 311.234 40 389.234 40 c 0
 467.234 40 509.162 83 520.013 130 c 2
 575.421 370 l 2xe0
506.585 466 m 1
 564.198 447 654.656 410 645.421 370 c 2
 590.013 130 l 2
 581.24 92 536.383 -20 375.383 -20 c 0
 214.383 -20 221.24 92 230.013 130 c 2
 246.174 200 l 2
 277.571 336 394.419 344 421.199 460 c 0
 433.436 513 410.286 560 344.286 560 c 0
 308.286 560 267.899 541 242.743 510 c 1
 256.128 516 270.052 520 285.052 520 c 0
 332.052 520 361.278 482 350.428 435 c 0
 339.577 388 292.804 350 245.804 350 c 0
 185.804 350 162.348 400 176.199 460 c 0
 194.899 541 266.83 610 355.83 610 c 0xf0
 444.83 610 480.901 554 480.279 495 c 1
 532.056 559 651.064 650 790.064 650 c 1
 773.903 580 l 1xe8
 648.903 580 537.204 512 506.585 466 c 1
275.816 480 m 0
 250.816 480 226.199 460 220.428 435 c 0
 214.656 410 230.039 390 255.039 390 c 0
 280.039 390 304.656 410 310.428 435 c 0
 316.199 460 300.816 480 275.816 480 c 0
EndSplineSet
EndChar

StartChar: uni0E0B.alt
Encoding: 3682 3682 98
Width: 710
VWidth: 0
Flags: W
HStem: -20 60<344.8 506.682> 320 40<231.301 304.903> 450 40<242.318 316.175> 570 40<267.004 341.165> 580 70<692.48 803.903>
LayerCount: 2
Fore
SplineSet
545.123 464 m 1xe8
 602.506 444 684.425 409 675.421 370 c 2
 620.013 130 l 2
 611.24 92 566.383 -20 405.383 -20 c 0
 244.383 -20 251.24 92 260.013 130 c 2
 276.174 200 l 2
 304.34 322 444.649 345 471.199 460 c 0
 481.127 503 481.054 546 456.133 568 c 1
 390.434 500 l 1
 350.434 500 l 1
 350.822 532 344.595 570 311.595 570 c 0
 266.595 570 235.82 519 221.199 460 c 1
 241.355 478 267.125 490 293.125 490 c 0
 340.125 490 369.353 452 358.502 405 c 0
 347.65 358 300.878 320 253.878 320 c 0
 182.878 320 159.346 387 177.354 465 c 0
 190.514 522 241.83 610 320.83 610 c 0
 366.83 610 386.211 577 391.823 545 c 1
 450.83 610 l 1
 469.83 610 l 1xf0
 504.136 594 528.594 557 530.512 509 c 1
 585.057 572 691.064 650 820.064 650 c 1
 803.903 580 l 1
 675.903 580 571.512 509 545.123 464 c 1xe8
283.891 450 m 0
 258.891 450 234.273 430 228.502 405 c 0
 222.729 380 238.112 360 263.112 360 c 0
 288.112 360 312.729 380 318.502 405 c 0
 324.273 430 308.891 450 283.891 450 c 0
330.013 130 m 2
 319.162 83 341.234 40 419.234 40 c 0
 497.234 40 539.162 83 550.013 130 c 2
 605.421 370 l 2
 610.962 394 555.272 417 517.043 429 c 1
 475.34 322 369.029 299 346.174 200 c 2
 330.013 130 l 2
EndSplineSet
EndChar

StartChar: uni0E28.alt
Encoding: 3683 3683 99
Width: 680
VWidth: 0
Flags: W
HStem: 0 21G<500 574.617> 240 40<359.294 439.405> 380 40<373.826 453.11> 560 60<352.603 553.797> 615 55<706.348 791.984>
LayerCount: 2
Fore
SplineSet
426.965 420 m 0xf0
 476.965 420 507.729 380 496.187 330 c 0
 484.644 280 435.408 240 385.408 240 c 0
 339.408 240 309.488 275 314.646 319 c 1
 267.873 268 232.941 186 213.087 100 c 2
 187.691 -10 l 1
 187.691 -10 99.6152 -6 106.926 30 c 1
 106.926 30 138.238 79 152.321 140 c 0
 175.87 242 151.18 265 182.348 400 c 0
 213.977 537 337.139 620 473.139 620 c 0xf0
 538.139 620 591.752 601 626.672 566 c 1
 655.677 618 719.682 670 804.682 670 c 1
 791.984 615 l 1xe8
 720.984 615 674.749 575 653.437 526 c 1
 669.587 492 673.891 450 662.348 400 c 2
 570 0 l 1
 500 0 l 1
 592.348 400 l 2
 611.278 482 580.286 560 459.286 560 c 0
 338.286 560 271.278 482 252.348 400 c 0
 238.726 341 235.029 299 233.025 260 c 1
 275.495 340 343.965 420 426.965 420 c 0xf0
417.729 380 m 0
 389.729 380 362.65 358 356.187 330 c 0
 349.723 302 366.644 280 394.644 280 c 0
 422.644 280 449.723 302 456.187 330 c 0
 462.65 358 445.729 380 417.729 380 c 0
EndSplineSet
EndChar

StartChar: uni0E2A.alt
Encoding: 3684 3684 100
Width: 660
VWidth: 0
Flags: W
HStem: -20 50<189.99 275.647> 130 50<200.947 286.728> 325 55<269.898 449.31> 560 60<342.795 545.422> 615 55<687.069 771.984>
LayerCount: 2
Fore
SplineSet
646.965 420 m 2xe8
 556.926 30 l 2
 548.615 -6 472.691 -10 472.691 -10 c 1
 514.248 170 l 2
 529.484 236 462.032 325 365.032 325 c 0
 288.032 325 215.566 284 191.557 180 c 0
 189.479 171 187.17 161 186.092 152 c 1
 208.017 169 234.557 180 261.557 180 c 0
 316.557 180 351.167 135 338.47 80 c 0
 325.771 25 270.383 -20 215.383 -20 c 0
 136.383 -20 92.0049 52 121.557 180 c 0
 152.954 316 260.729 380 367.729 380 c 0
 463.729 380 519.725 328 541.873 268 c 1
 576.965 420 l 2
 591.048 481 574.286 560 449.286 560 c 0
 324.286 560 271.048 481 256.965 420 c 1
 186.965 420 l 1
 213.515 535 316.139 620 463.139 620 c 0xf0
 529.139 620 579.214 603 610.287 573 c 1
 640.831 623 703.682 670 784.682 670 c 1
 771.984 615 l 1
 705.984 615 660.903 580 638.745 536 c 1
 654.357 504 657.123 464 646.965 420 c 2xe8
250.013 130 m 0
 222.013 130 194.934 108 188.47 80 c 0
 182.005 52 198.926 30 226.926 30 c 0
 254.926 30 282.005 52 288.47 80 c 0
 294.934 108 278.013 130 250.013 130 c 0
EndSplineSet
EndChar

StartChar: uni0E2E.alt
Encoding: 3686 3686 101
Width: 660
VWidth: 0
Flags: W
HStem: -20 65<230.205 446.919> 180 50<215.456 301.82> 330 50<227.466 312.901> 560 60<336.529 542.274> 615 55<686.205 771.984>
VStem: 176.965 70<420 476.359>
LayerCount: 2
Fore
SplineSet
287.729 380 m 0xec
 342.729 380 377.341 335 364.644 280 c 0
 351.945 225 296.557 180 241.557 180 c 0
 231.557 180 221.018 182 212.711 185 c 1
 206.938 160 l 2
 191.933 95 217.389 45 335.389 45 c 0
 453.389 45 504.241 105 519.248 170 c 2
 576.965 420 l 2
 591.048 481 569.286 560 444.286 560 c 0
 319.286 560 261.048 481 246.965 420 c 1
 176.965 420 l 1
 203.515 535 311.139 620 458.139 620 c 0xf4
 526.139 620 576.982 602 609.826 571 c 1
 639.6 622 702.682 670 784.682 670 c 1
 771.984 615 l 1
 704.984 615 659.673 579 637.283 534 c 1
 653.896 502 656.892 463 646.965 420 c 2
 589.248 170 l 2
 557.85 34 442.383 -20 320.383 -20 c 0
 198.383 -20 105.541 24 136.938 160 c 2
 164.644 280 l 2
 177.341 335 232.729 380 287.729 380 c 0xec
276.187 330 m 0
 248.187 330 221.107 308 214.644 280 c 0
 208.179 252 225.1 230 253.1 230 c 0
 281.1 230 308.179 252 314.644 280 c 0
 321.107 308 304.187 330 276.187 330 c 0
EndSplineSet
EndChar

StartChar: B
Encoding: 66 66 102
Width: 780
VWidth: 0
Flags: W
HStem: 0 60<193.853 568.325> 385 60<282.736 618.356> 740 60<350.843 675.247>
AnchorPoint: "diac_top" 556.238 850 basechar 0
AnchorPoint: "cedilla" 386.238 40 basechar 0
AnchorPoint: "ogonek" 386.238 40 basechar 0
AnchorPoint: "diac_bottom" 327.2 -50 basechar 0
LayerCount: 2
Fore
SplineSet
560.843 740 m 2
 350.843 740 l 1
 282.736 445 l 1
 522.736 445 l 2
 626.736 445 701.437 526 716.212 590 c 0
 736.76 679 692.843 740 560.843 740 c 2
450 0 m 2
 110 0 l 1
 294.694 800 l 1
 574.694 800 l 2
 769.694 800 811.146 698 786.212 590 c 0
 768.897 515 712.121 451 632.503 418 c 1
 716.039 390 765.032 325 740.791 220 c 0
 706.854 73 593 0 450 0 c 2
463.853 60 m 2
 573.853 60 650.937 134 670.791 220 c 0
 693.878 320 629.885 385 508.884 385 c 2
 268.884 385 l 1
 193.853 60 l 1
 463.853 60 l 2
EndSplineSet
EndChar

StartChar: period
Encoding: 46 46 103
Width: 320
VWidth: 0
Flags: W
HStem: 0 120<132.965 214.739>
VStem: 113.853 120<18.6565 101.343>
LayerCount: 2
Fore
SplineSet
233.853 60 m 0
 226.233 27 193 0 160 0 c 0
 127 0 106.233 27 113.853 60 c 0
 121.471 93 154.704 120 187.704 120 c 0
 220.704 120 241.471 93 233.853 60 c 0
EndSplineSet
EndChar

StartChar: x
Encoding: 120 120 104
Width: 650
VWidth: 0
Flags: W
HStem: 0 21G<30 130.602 528.632 620> 580 20G<198.521 289.921 627.886 728.521>
AnchorPoint: "diac_top" 475.064 650 basechar 0
AnchorPoint: "cedilla" 109.234 40 basechar 0
AnchorPoint: "diac_bottom" 313.457 -50 basechar 0
LayerCount: 2
Fore
SplineSet
198.521 600 m 1
 278.521 600 l 1
 410.19 369 l 1
 648.521 600 l 1
 728.521 600 l 1
 438.646 319 l 1
 620 0 l 1
 540 0 l 1
 387.104 269 l 1
 110 0 l 1
 30 0 l 1
 358.646 319 l 1
 198.521 600 l 1
EndSplineSet
EndChar

StartChar: i
Encoding: 105 105 105
Width: 320
VWidth: 0
Flags: W
HStem: 0 21G<125 199.617> 580 20G<258.903 333.521> 730 120<301.499 383.273>
VStem: 282.386 120<748.657 831.343>
AnchorPoint: "diac_bottom" 148.457 -50 basechar 0
AnchorPoint: "ogonek" 179.234 40 basechar 0
AnchorPoint: "cedilla" 186.238 40 basechar 0
LayerCount: 2
Fore
SplineSet
402.386 790 m 4
 394.768 757 361.534 730 328.534 730 c 4
 295.534 730 274.768 757 282.386 790 c 4
 290.005 823 323.238 850 356.238 850 c 4
 389.238 850 410.005 823 402.386 790 c 4
263.521 600 m 1
 333.521 600 l 1
 195 0 l 1
 125 0 l 1
 263.521 600 l 1
EndSplineSet
EndChar

StartChar: o
Encoding: 111 111 106
Width: 660
VWidth: 0
Flags: W
HStem: -20 60<241.671 449.467> 560 60<354.258 551.553>
AnchorPoint: "diac_top" 480.064 650 basechar 0
AnchorPoint: "ogonek" 359.234 40 basechar 0
AnchorPoint: "cedilla" 349.234 40 basechar 0
AnchorPoint: "diac_bottom" 318.457 -50 basechar 0
LayerCount: 2
Fore
SplineSet
459.286 560 m 0
 349.286 560 262.895 489 233.112 360 c 2
 200.791 220 l 2
 175.626 111 224.234 40 339.234 40 c 0
 454.234 40 535.626 111 560.791 220 c 2
 593.112 360 l 2
 622.895 489 569.286 560 459.286 560 c 0
473.139 620 m 0
 613.139 620 701.898 528 663.112 360 c 2
 630.791 220 l 2
 593.159 57 463.383 -20 325.383 -20 c 0
 187.383 -20 93.1592 57 130.791 220 c 2
 163.112 360 l 2
 201.898 528 333.139 620 473.139 620 c 0
EndSplineSet
EndChar

StartChar: O
Encoding: 79 79 107
Width: 800
VWidth: 0
Flags: W
HStem: -20 60<296.064 532.405> 760 60<453.195 687.502>
AnchorPoint: "ring_above" 573.151 750 basechar 0
AnchorPoint: "diac_top" 596.238 850 basechar 0
AnchorPoint: "ogonek" 439.234 40 basechar 0
AnchorPoint: "cedilla" 429.234 40 basechar 0
AnchorPoint: "diac_bottom" 388.457 -50 basechar 0
LayerCount: 2
Fore
SplineSet
760.052 520 m 2
 789.833 649 738.46 760 575.46 760 c 0
 412.46 760 309.833 649 280.052 520 c 2
 222.334 270 l 2
 194.63 150 244.234 40 409.234 40 c 0
 574.234 40 674.63 150 702.334 270 c 2
 760.052 520 l 2
830.052 520 m 2
 772.334 270 l 2
 730.316 88 575.383 -20 395.383 -20 c 0
 215.383 -20 110.316 88 152.334 270 c 2
 210.052 520 l 2
 252.993 706 412.312 820 589.312 820 c 0
 766.312 820 873.224 707 830.052 520 c 2
EndSplineSet
EndChar

StartChar: I
Encoding: 73 73 108
Width: 320
VWidth: 0
Flags: W
HStem: 0 21G<125 199.617> 780 20G<305.077 379.694>
VStem: 125 254.694
AnchorPoint: "diac_top" 356.238 850 basechar 0
AnchorPoint: "hook_above" 356.238 850 basechar 0
AnchorPoint: "ogonek" 179.234 40 basechar 0
AnchorPoint: "cedilla" 186.238 40 basechar 0
AnchorPoint: "diac_bottom" 148.457 -50 basechar 0
LayerCount: 2
Fore
SplineSet
309.694 800 m 1
 379.694 800 l 1
 195 0 l 1
 125 0 l 1
 309.694 800 l 1
EndSplineSet
EndChar

StartChar: X
Encoding: 88 88 109
Width: 770
VWidth: 0
Flags: W
HStem: 0 21G<25 134.371 644.863 745> 780 20G<249.694 349.821 780.333 889.694>
AnchorPoint: "diac_top" 581.238 850 basechar 0
AnchorPoint: "ring_above" 558.151 750 basechar 0
AnchorPoint: "cedilla" 99.2344 40 basechar 0
AnchorPoint: "diac_bottom" 373.457 -50 basechar 0
LayerCount: 2
Fore
SplineSet
249.694 800 m 1
 339.694 800 l 1
 497.664 488 l 1
 799.694 800 l 1
 889.694 800 l 1
 528.581 427 l 1
 745 0 l 1
 655 0 l 1
 469.498 366 l 1
 115 0 l 1
 25 0 l 1
 438.581 427 l 1
 249.694 800 l 1
EndSplineSet
EndChar

StartChar: H
Encoding: 72 72 110
Width: 800
VWidth: 0
Flags: W
HStem: 0 21G<110 184.617 620 694.617> 370 60<279.273 705.421> 780 20G<290.077 364.694 800.077 874.694>
AnchorPoint: "diac_bottom" 388.457 -50 basechar 0
AnchorPoint: "diac_top" 596.238 850 basechar 0
AnchorPoint: "cedilla" 149.234 40 basechar 0
LayerCount: 2
Fore
SplineSet
690 0 m 1
 620 0 l 1
 705.421 370 l 1
 265.421 370 l 1
 180 0 l 1
 110 0 l 1
 294.694 800 l 1
 364.694 800 l 1
 279.273 430 l 1
 719.273 430 l 1
 804.694 800 l 1
 874.694 800 l 1
 690 0 l 1
EndSplineSet
EndChar

StartChar: P
Encoding: 80 80 111
Width: 740
VWidth: 0
Flags: W
HStem: 0 21G<110 184.617> 320 60<267.729 607.432> 740 60<350.843 676.735>
AnchorPoint: "diac_bottom" 327.2 -50 basechar 0
AnchorPoint: "diac_top" 556.238 850 basechar 0
LayerCount: 2
Fore
SplineSet
594.694 800 m 2
 795.694 800 824.22 668 799.286 560 c 0
 774.353 452 684.878 320 483.878 320 c 2
 253.878 320 l 1
 180 0 l 1
 110 0 l 1
 294.694 800 l 1
 594.694 800 l 2
580.843 740 m 2
 350.843 740 l 1
 267.729 380 l 1
 497.729 380 l 2
 620.729 380 705.737 458 729.286 560 c 0
 752.835 662 703.843 740 580.843 740 c 2
EndSplineSet
EndChar

StartChar: p
Encoding: 112 112 112
Width: 710
VWidth: 0
Flags: W
HStem: -20 60<281.554 478.31> 560 60<407.646 589.487> 580 20G<243.903 318.521>
AnchorPoint: "diac_bottom" 408.457 -50 basechar 0
AnchorPoint: "diac_top" 510.064 650 basechar 0
LayerCount: 2
Fore
SplineSet
280.658 436 m 1xc0
 221.787 181 l 1
 227.317 101 278.234 40 369.234 40 c 0
 486.234 40 575.626 111 610.025 260 c 2
 633.112 360 l 2
 662.895 489 611.286 560 489.286 560 c 0
 399.286 560 318.511 496 280.658 436 c 1xc0
117.666 -270 m 1
 47.666 -270 l 1
 248.521 600 l 1
 318.521 600 l 1xa0
 299.128 516 l 1
 354.98 576 436.139 620 523.139 620 c 0
 679.139 620 739.82 519 703.112 360 c 2
 680.025 260 l 2
 636.622 72 519.383 -20 375.383 -20 c 0
 281.383 -20 224.617 20 198.008 78 c 1
 117.666 -270 l 1
EndSplineSet
EndChar

StartChar: K
Encoding: 75 75 113
Width: 730
VWidth: 0
Flags: W
HStem: 0 21G<110 184.617 590.053 690> 390 60<283.891 401.891> 780 20G<290.077 364.694 725.106 824.694>
AnchorPoint: "diac_top" 566.238 850 basechar 0
AnchorPoint: "diac_bottom" 358.457 -50 basechar 0
LayerCount: 2
Fore
SplineSet
744.694 800 m 1
 824.694 800 l 1
 466.582 440 l 1
 690 0 l 1
 600 0 l 1
 406.039 390 l 1
 270.039 390 l 1
 180 0 l 1
 110 0 l 1
 294.694 800 l 1
 364.694 800 l 1
 283.891 450 l 1
 401.891 450 l 1
 744.694 800 l 1
EndSplineSet
EndChar

StartChar: j
Encoding: 106 106 114
Width: 340
VWidth: 0
Flags: W
HStem: -290 60<-33.0996 64.1176> 580 20G<283.903 358.521> 730 120<321.499 403.273>
VStem: 302.386 120<748.657 831.343>
AnchorPoint: "diac_bottom" 347.2 -50 basechar 0
LayerCount: 2
Fore
SplineSet
422.386 790 m 4
 414.768 757 381.534 730 348.534 730 c 4
 315.534 730 294.768 757 302.386 790 c 4
 310.005 823 343.238 850 376.238 850 c 4
 409.238 850 430.005 823 422.386 790 c 4
196.913 -100 m 2
 169.901 -217 100.048 -290 -46.9521 -290 c 1
 -33.0996 -230 l 1
 59.9004 -230 106.828 -187 126.913 -100 c 2
 288.521 600 l 1
 358.521 600 l 1
 196.913 -100 l 2
EndSplineSet
EndChar

StartChar: D
Encoding: 68 68 115
Width: 780
VWidth: 0
Flags: W
HStem: 0 60<193.853 519.876> 740 60<350.843 631.998>
AnchorPoint: "diac_top" 546.238 850 basechar 0
AnchorPoint: "ogonek" 379.234 40 basechar 0
AnchorPoint: "cedilla" 379.234 40 basechar 0
AnchorPoint: "diac_bottom" 327.2 -50 basechar 0
LayerCount: 2
Fore
SplineSet
350 0 m 2
 110 0 l 1
 294.694 800 l 1
 504.694 800 l 2
 760.694 800 857.914 684 803.891 450 c 2
 776.187 330 l 2
 722.395 97 592 0 350 0 c 2
490.843 740 m 1
 350.843 740 l 1
 193.853 60 l 1
 363.853 60 l 2
 581.853 60 667.4 162 706.187 330 c 2
 733.891 450 l 2
 777.294 638 699.611 739 490.843 740 c 1
EndSplineSet
EndChar

StartChar: E
Encoding: 69 69 116
Width: 670
VWidth: 0
Flags: W
HStem: 0 60<193.853 590> 370 60<279.273 635.421> 740 60<350.843 750.843>
CounterMasks: 1 e0
AnchorPoint: "hook_above" 531.238 850 basechar 0
AnchorPoint: "diac_top" 531.238 850 basechar 0
AnchorPoint: "cedilla" 369.234 40 basechar 0
AnchorPoint: "ogonek" 549.234 40 basechar 0
AnchorPoint: "diac_bottom" 317.2 -50 basechar 0
LayerCount: 2
Fore
SplineSet
193.853 60 m 1
 603.853 60 l 1
 590 0 l 1
 180 0 l 1
 110 0 l 1
 130.778 90 l 1
 191.958 355 l 1
 212.736 445 l 1
 273.916 710 l 1
 294.694 800 l 1
 364.694 800 l 1
 764.694 800 l 1
 750.843 740 l 1
 350.843 740 l 1
 279.273 430 l 1
 649.273 430 l 1
 635.421 370 l 1
 265.421 370 l 1
 193.853 60 l 1
EndSplineSet
EndChar

StartChar: L
Encoding: 76 76 117
Width: 590
VWidth: 0
Flags: W
HStem: 0 60<193.853 570> 780 20G<290.077 364.694>
AnchorPoint: "diac_top" 346.238 850 basechar 0
AnchorPoint: "diac_bottom" 288.457 -50 basechar 0
LayerCount: 2
Fore
SplineSet
193.853 60 m 1
 583.853 60 l 1
 570 0 l 1
 180 0 l 1
 110 0 l 1
 123.853 60 l 1
 294.694 800 l 1
 364.694 800 l 1
 193.853 60 l 1
EndSplineSet
EndChar

StartChar: F
Encoding: 70 70 118
Width: 650
VWidth: 0
Flags: W
HStem: 0 21G<110 184.617> 370 60<279.273 635.421> 740 60<350.843 750.843>
AnchorPoint: "diac_bottom" 317.2 -50 basechar 0
AnchorPoint: "diac_top" 531.238 850 basechar 0
LayerCount: 2
Fore
SplineSet
180 0 m 1
 110 0 l 1
 191.958 355 l 1
 212.736 445 l 1
 273.916 710 l 1
 294.694 800 l 1
 364.694 800 l 1
 764.694 800 l 1
 750.843 740 l 1
 350.843 740 l 1
 279.273 430 l 1
 649.273 430 l 1
 635.421 370 l 1
 265.421 370 l 1
 180 0 l 1
EndSplineSet
EndChar

StartChar: J
Encoding: 74 74 119
Width: 540
VWidth: 0
Flags: W
HStem: -20 60<172.724 335.967> 780 20G<540.077 614.694>
VStem: 84.6299 70<60.4669 150>
AnchorPoint: "diac_top" 586.238 850 basechar 0
AnchorPoint: "diac_bottom" 228.457 -50 basechar 0
LayerCount: 2
Fore
SplineSet
235.383 -20 m 0
 121.383 -20 62.2363 53 84.6299 150 c 1
 154.63 150 l 1
 142.855 99 158.234 40 249.234 40 c 0
 339.234 40 382.855 99 394.63 150 c 2
 544.694 800 l 1
 614.694 800 l 1
 464.63 150 l 2
 442.236 53 350.383 -20 235.383 -20 c 0
EndSplineSet
EndChar

StartChar: T
Encoding: 84 84 120
Width: 580
VWidth: 0
Flags: W
HStem: 0 21G<255 329.617> 740 60<244.694 425.843 495.843 690.843>
AnchorPoint: "diac_top" 486.238 850 basechar 0
AnchorPoint: "cedilla" 289.234 40 basechar 0
AnchorPoint: "diac_bottom" 278.457 -50 basechar 0
LayerCount: 2
Fore
SplineSet
230.843 740 m 1
 244.694 800 l 1
 439.694 800 l 1
 509.694 800 l 1
 704.694 800 l 1
 690.843 740 l 1
 495.843 740 l 1
 325 0 l 1
 255 0 l 1
 425.843 740 l 1
 230.843 740 l 1
EndSplineSet
EndChar

StartChar: N
Encoding: 78 78 121
Width: 800
VWidth: 0
Flags: W
HStem: 0 21G<110 184.617 611.864 694.617> 780 20G<290.077 372.831 800.077 874.694>
AnchorPoint: "diac_top" 596.238 850 basechar 0
AnchorPoint: "cedilla" 139.234 40 basechar 0
AnchorPoint: "diac_bottom" 388.457 -50 basechar 0
LayerCount: 2
Fore
SplineSet
180 0 m 1
 110 0 l 1
 294.694 800 l 1
 364.694 800 l 1
 645.396 110 l 1
 804.694 800 l 1
 874.694 800 l 1
 690 0 l 1
 620 0 l 1
 339.299 690 l 1
 180 0 l 1
EndSplineSet
EndChar

StartChar: M
Encoding: 77 77 122
Width: 960
VWidth: 0
Flags: W
HStem: 0 21G<110 184.617 456.133 513.102 780 854.617> 780 20G<290.077 378.363 941.791 1034.69>
AnchorPoint: "diac_bottom" 468.457 -50 basechar 0
AnchorPoint: "diac_top" 676.238 850 basechar 0
AnchorPoint: "cedilla" 479.234 40 basechar 0
LayerCount: 2
Fore
SplineSet
850 0 m 1
 780 0 l 1
 932.373 660 l 1
 500 0 l 1
 480 0 l 1
 460 0 l 1
 332.373 660 l 1
 180 0 l 1
 110 0 l 1
 294.694 800 l 1
 364.694 800 l 1
 374.694 800 l 1
 503.087 100 l 1
 954.694 800 l 1
 964.694 800 l 1
 1034.69 800 l 1
 850 0 l 1
EndSplineSet
EndChar

StartChar: U
Encoding: 85 85 123
Width: 800
VWidth: 0
Flags: W
HStem: -20 60<301.162 530.744> 780 20G<280.077 354.694 810.077 884.694>
AnchorPoint: "hook_above" 596.238 850 basechar 0
AnchorPoint: "ring_above" 573.151 750 basechar 0
AnchorPoint: "diac_top" 596.238 850 basechar 0
AnchorPoint: "ogonek" 439.234 40 basechar 0
AnchorPoint: "cedilla" 426.238 40 basechar 0
AnchorPoint: "diac_bottom" 388.457 -50 basechar 0
LayerCount: 2
Fore
SplineSet
760.025 260 m 2
 719.624 85 572.383 -20 395.383 -20 c 0
 218.383 -20 119.624 85 160.025 260 c 2
 284.694 800 l 1
 354.694 800 l 1
 230.025 260 l 2
 196.55 115 286.234 40 409.234 40 c 0
 532.234 40 656.55 115 690.025 260 c 2
 814.694 800 l 1
 884.694 800 l 1
 760.025 260 l 2
EndSplineSet
EndChar

StartChar: b
Encoding: 98 98 124
Width: 710
VWidth: 0
Flags: W
HStem: -20 60<282.197 481.968> 0 21G<110 184.617> 560 60<400.386 586.336> 880 20G<313.164 387.781>
AnchorPoint: "diac_top" 560.064 650 basechar 0
AnchorPoint: "diac_bottom" 348.457 -50 basechar 0
LayerCount: 2
Fore
SplineSet
199.393 84 m 1xb0
 180 0 l 1
 110 0 l 1x70
 317.781 900 l 1
 387.781 900 l 1
 300.514 522 l 1
 353.903 580 429.139 620 523.139 620 c 0
 667.139 620 741.898 528 698.495 340 c 2
 675.408 240 l 2
 638.7 81 531.383 -20 375.383 -20 c 0
 288.383 -20 227.541 24 199.393 84 c 1xb0
217.862 164 m 1
 228.011 104 279.234 40 369.234 40 c 0xb0
 491.234 40 575.626 111 605.408 240 c 2
 628.495 340 l 2
 662.895 489 606.286 560 489.286 560 c 0
 398.286 560 319.203 499 276.733 419 c 1
 217.862 164 l 1
EndSplineSet
EndChar

StartChar: R
Encoding: 82 82 125
Width: 780
VWidth: 0
Flags: W
HStem: 0 21G<110 184.617 642.195 730> 320 60<267.729 523.72> 740 60<350.843 676.735>
AnchorPoint: "diac_top" 556.238 850 basechar 0
AnchorPoint: "diac_bottom" 368.457 -50 basechar 0
LayerCount: 2
Fore
SplineSet
594.694 800 m 2
 795.694 800 824.22 668 799.286 560 c 0
 779.662 475 719.807 376 598.803 337 c 1
 730 0 l 1
 650 0 l 1
 524.34 322 l 1
 511.108 321 497.878 320 483.878 320 c 2
 253.878 320 l 1
 180 0 l 1
 110 0 l 1
 294.694 800 l 1
 594.694 800 l 2
580.843 740 m 2
 350.843 740 l 1
 267.729 380 l 1
 497.729 380 l 2
 620.729 380 705.737 458 729.286 560 c 0
 752.835 662 703.843 740 580.843 740 c 2
EndSplineSet
EndChar

StartChar: V
Encoding: 86 86 126
Width: 800
VWidth: 0
Flags: W
HStem: 0 21G<361.492 447.742> 780 20G<224.694 307.953 852.201 944.694>
AnchorPoint: "diac_top" 596.238 850 basechar 0
AnchorPoint: "diac_bottom" 388.457 -50 basechar 0
LayerCount: 2
Fore
SplineSet
365 0 m 1
 224.694 800 l 1
 304.694 800 l 1
 420.547 89 l 1
 864.694 800 l 1
 944.694 800 l 1
 435 0 l 1
 365 0 l 1
EndSplineSet
EndChar

StartChar: Y
Encoding: 89 89 127
Width: 700
VWidth: 0
Flags: W
HStem: 0 21G<315 389.617> 780 20G<224.694 311.297 748.857 844.694>
AnchorPoint: "hook_above" 546.238 850 basechar 0
AnchorPoint: "diac_bottom" 338.457 -50 basechar 0
AnchorPoint: "ring_above" 523.151 750 basechar 0
AnchorPoint: "diac_top" 546.238 850 basechar 0
LayerCount: 2
Fore
SplineSet
224.694 800 m 1
 304.694 800 l 1
 440.039 390 l 1
 764.694 800 l 1
 844.694 800 l 1
 458.878 320 l 1
 385 0 l 1
 315 0 l 1
 388.878 320 l 1
 224.694 800 l 1
EndSplineSet
EndChar

StartChar: A
Encoding: 65 65 128
Width: 800
VWidth: 0
Flags: W
HStem: 0 21G<40 132.506 676.729 760> 180 60<269.408 641.408> 780 20G<536.952 623.202>
AnchorPoint: "diac_top" 596.238 850 basechar 0
AnchorPoint: "hook_above" 596.238 850 basechar 0
AnchorPoint: "ring_above" 573.151 750 basechar 0
AnchorPoint: "diac_bottom" 388.457 -50 basechar 0
AnchorPoint: "ogonek" 709.234 40 basechar 0
AnchorPoint: "cedilla" 716.238 40 basechar 0
LayerCount: 2
Fore
SplineSet
641.408 240 m 1
 564.147 711 l 1
 269.408 240 l 1
 641.408 240 l 1
760 0 m 1
 680 0 l 1
 650.557 180 l 1
 232.557 180 l 1
 120 0 l 1
 40 0 l 1
 549.694 800 l 1
 619.694 800 l 1
 760 0 l 1
EndSplineSet
EndChar

StartChar: Q
Encoding: 81 81 129
Width: 800
VWidth: 0
Flags: W
HStem: -20 60<296.064 537.791> 760 60<453.195 687.502>
AnchorPoint: "diac_bottom" 388.457 -50 basechar 0
AnchorPoint: "diac_top" 596.238 850 basechar 0
AnchorPoint: "ring_above" 573.151 750 basechar 0
LayerCount: 2
Fore
SplineSet
830.052 520 m 2
 772.334 270 l 2
 753.865 190 713.858 125 659.546 76 c 1
 746.227 -38 l 1
 694.53 -80 l 1
 605.312 36 l 1
 544 0 472.383 -20 395.383 -20 c 0
 215.383 -20 110.316 88 152.334 270 c 2
 210.052 520 l 2
 252.993 706 412.312 820 589.312 820 c 0
 766.312 820 873.224 707 830.052 520 c 2
476.866 203 m 1
 528.562 245 l 1
 622.628 124 l 1
 663.094 165 689.867 216 702.334 270 c 2
 760.052 520 l 2
 789.833 649 738.46 760 575.46 760 c 0
 412.46 760 309.833 649 280.052 520 c 2
 222.334 270 l 2
 194.63 150 244.234 40 409.234 40 c 0
 472.234 40 525.929 56 568.932 82 c 1
 476.866 203 l 1
EndSplineSet
EndChar

StartChar: Z
Encoding: 90 90 130
Width: 740
VWidth: 0
Flags: W
HStem: 0 60<163.853 670> 740 60<284.694 740.843>
AnchorPoint: "diac_top" 566.238 850 basechar 0
AnchorPoint: "cedilla" 389.234 40 basechar 0
AnchorPoint: "diac_bottom" 358.457 -50 basechar 0
LayerCount: 2
Fore
SplineSet
284.694 800 m 1
 834.694 800 l 1
 820.843 740 l 1
 163.853 60 l 1
 683.853 60 l 1
 670 0 l 1
 70 0 l 1
 83.8525 60 l 1
 740.843 740 l 1
 270.843 740 l 1
 284.694 800 l 1
EndSplineSet
EndChar

StartChar: W
Encoding: 87 87 131
Width: 1100
VWidth: 0
Flags: W
HStem: 0 21G<278.617 370.239 738.996 830.617> 780 20G<224.694 305.832 689.465 770.688 1154.32 1244.69>
VStem: 706.066 63.6279<635.601 676> 740 64.2412<105 167.339>
AnchorPoint: "diac_top" 746.238 850 basechar 0
AnchorPoint: "diac_bottom" 538.457 -50 basechar 0
AnchorPoint: "ring_above" 723.151 750 basechar 0
LayerCount: 2
Fore
SplineSet
1244.69 800 m 1xd0
 820 0 l 1
 810 0 l 1
 750 0 l 1
 740 0 l 1xd0
 706.066 676 l 1
 360 0 l 1
 350 0 l 1
 290 0 l 1
 280 0 l 1
 224.694 800 l 1
 304.694 800 l 1
 344.241 105 l 1
 699.694 800 l 1
 769.694 800 l 1xe0
 804.241 105 l 1
 1164.69 800 l 1
 1244.69 800 l 1xd0
EndSplineSet
EndChar

StartChar: S
Encoding: 83 83 132
Width: 790
VWidth: 0
Flags: W
HStem: -20 60<283.679 536.624> 760 60<444.651 676.727>
VStem: 147.717 70<99.2149 250> 736.212 70<590 706.203>
AnchorPoint: "diac_bottom" 383.457 -50 basechar 0
AnchorPoint: "diac_top" 591.238 850 basechar 0
AnchorPoint: "cedilla" 429.234 40 basechar 0
LayerCount: 2
Fore
SplineSet
753.1 230 m 0
 717.546 76 567.383 -20 385.383 -20 c 0
 203.383 -20 110.547 89 147.717 250 c 1
 217.717 250 l 1
 189.32 127 251.234 40 399.234 40 c 0
 547.234 40 656.55 115 683.1 230 c 0
 710.111 347 588.807 376 480.039 390 c 0
 384.809 402 207.657 423 246.212 590 c 0
 270.223 694 394.312 820 579.312 820 c 0
 764.312 820 830.223 694 806.212 590 c 1
 736.212 590 l 1
 753.527 665 717.46 760 565.46 760 c 0
 413.46 760 333.527 665 316.212 590 c 0
 292.664 488 399.046 468 495.045 455 c 0
 618.352 439 793.963 407 753.1 230 c 0
EndSplineSet
EndChar

StartChar: u
Encoding: 117 117 133
Width: 660
VWidth: 0
Flags: W
HStem: -20 60<247.535 442.089> 580 20G<233.903 308.521 623.903 698.521>
AnchorPoint: "diac_top" 480.064 650 basechar 0
AnchorPoint: "hook_above" 486.99 680 basechar 0
AnchorPoint: "ring_above" 480.064 650 basechar 0
AnchorPoint: "ogonek" 359.234 40 basechar 0
AnchorPoint: "cedilla" 356.238 40 basechar 0
AnchorPoint: "diac_bottom" 297.2 -50 basechar 0
LayerCount: 2
Fore
SplineSet
216.174 200 m 2
 193.779 103 233.234 40 339.234 40 c 0
 445.234 40 513.779 103 536.174 200 c 2
 628.521 600 l 1
 698.521 600 l 1
 606.174 200 l 2
 573.391 58 456.383 -20 325.383 -20 c 0
 194.383 -20 113.391 58 146.174 200 c 2
 238.521 600 l 1
 308.521 600 l 1
 216.174 200 l 2
EndSplineSet
EndChar

StartChar: C
Encoding: 67 67 134
Width: 810
VWidth: 0
Flags: W
HStem: -20 60<296.049 552.667> 760 60<457.797 702.672>
AnchorPoint: "diac_top" 601.238 850 basechar 0
AnchorPoint: "ogonek" 436.238 40 basechar 0
AnchorPoint: "diac_bottom" 377.2 -50 basechar 0
AnchorPoint: "cedilla" 434.234 40 basechar 0
LayerCount: 2
Fore
SplineSet
599.312 820 m 0
 769.312 820 885.302 716 844.669 540 c 1
 774.669 540 l 1
 810.915 697 705.46 760 585.46 760 c 0
 465.46 760 330.915 697 294.669 540 c 2
 227.717 250 l 2
 191.471 93 299.234 40 419.234 40 c 0
 539.234 40 671.471 93 707.717 250 c 1
 777.717 250 l 1
 737.084 74 575.383 -20 405.383 -20 c 0
 235.383 -20 117.084 74 157.717 250 c 2
 224.669 540 l 2
 265.302 716 429.312 820 599.312 820 c 0
EndSplineSet
EndChar

StartChar: d
Encoding: 100 100 135
Width: 710
VWidth: 0
Flags: W
HStem: -20 60<259.034 440.875> 0 21G<530 604.617> 560 60<370.21 566.967> 880 20G<733.164 807.781>
AnchorPoint: "cedilla" 369.234 40 basechar 0
AnchorPoint: "diac_bottom" 338.457 -50 basechar 0
AnchorPoint: "diac_top" 450.064 650 basechar 0
LayerCount: 2
Fore
SplineSet
567.862 164 m 1xb0
 626.733 419 l 1
 621.203 499 570.286 560 479.286 560 c 0
 362.286 560 272.895 489 238.495 340 c 2
 215.408 240 l 2
 185.626 111 237.234 40 359.234 40 c 0
 449.234 40 530.011 104 567.862 164 c 1xb0
549.393 84 m 1
 493.541 24 412.383 -20 325.383 -20 c 0xb0
 169.383 -20 108.7 81 145.408 240 c 2
 168.495 340 l 2
 211.898 528 329.139 620 473.139 620 c 0
 567.139 620 623.903 580 650.514 522 c 1
 737.781 900 l 1
 807.781 900 l 1
 600 0 l 1
 530 0 l 1x70
 549.393 84 l 1
EndSplineSet
EndChar

StartChar: G
Encoding: 71 71 136
Width: 820
VWidth: 0
Flags: W
HStem: -20 60<304 563.563> 350 60<539.656 740.804> 760 60<454.371 706.065>
AnchorPoint: "diac_bottom" 398.457 -50 basechar 0
AnchorPoint: "diac_top" 606.238 850 basechar 0
LayerCount: 2
Fore
SplineSet
419.234 40 m 0
 551.234 40 636.471 93 696.938 160 c 1
 740.804 350 l 1
 525.804 350 l 1
 539.656 410 l 1
 814.656 410 l 1
 752.321 140 l 1
 673.388 32 537.383 -20 405.383 -20 c 0
 238.383 -20 118.008 78 157.717 250 c 2
 224.669 540 l 2
 264.378 712 422.312 820 599.312 820 c 0
 776.312 820 884.378 712 844.669 540 c 1
 774.669 540 l 1
 803.527 665 748.46 760 585.46 760 c 0
 423.46 760 323.527 665 294.669 540 c 2
 227.717 250 l 2
 201.167 135 272.234 40 419.234 40 c 0
EndSplineSet
EndChar

StartChar: g
Encoding: 103 103 137
Width: 710
VWidth: 0
Flags: W
HStem: -290 60<191.634 412.419> -20 60<262.185 448.134> 560 60<366.553 566.324> 580 20G<663.903 738.521>
AnchorPoint: "diac_top" 500.064 650 basechar 0
LayerCount: 2
Fore
SplineSet
630.658 436 m 1xe0
 620.511 496 569.286 560 479.286 560 c 0
 357.286 560 272.895 489 243.112 360 c 2
 220.025 260 l 2
 185.626 111 242.234 40 359.234 40 c 0
 450.234 40 529.317 101 571.787 181 c 1
 630.658 436 l 1xe0
581.53 -80 m 2
 552.21 -207 440.048 -290 283.048 -290 c 0
 126.048 -290 52.21 -207 81.5303 -80 c 1
 151.53 -80 l 1
 131.214 -168 179.9 -230 296.9 -230 c 0
 413.9 -230 491.214 -168 511.53 -80 c 2
 548.008 78 l 1
 494.617 20 419.383 -20 325.383 -20 c 0
 181.383 -20 106.622 72 150.025 260 c 2
 173.112 360 l 2
 209.82 519 317.139 620 473.139 620 c 0xe0
 560.139 620 620.98 576 649.128 516 c 1
 668.521 600 l 1
 738.521 600 l 1xd0
 581.53 -80 l 2
EndSplineSet
EndChar

StartChar: l
Encoding: 108 108 138
Width: 350
VWidth: 0
Flags: W
HStem: -10 60<226.004 247.691> 880 20G<333.164 407.781>
AnchorPoint: "diac_top" 379.325 950 basechar 0
AnchorPoint: "diac_bottom" 178.457 -50 basechar 0
LayerCount: 2
Fore
SplineSet
247.691 -10 m 1
 165.691 -10 136.003 26 153.087 100 c 2
 337.781 900 l 1
 407.781 900 l 1
 227.704 120 l 2
 215.237 66 224.543 50 261.543 50 c 1
 247.691 -10 l 1
EndSplineSet
EndChar

StartChar: n
Encoding: 110 110 139
Width: 670
VWidth: 0
Flags: W
HStem: 0 21G<100 174.617 510 584.617> 560 60<412.201 584.558> 580 20G<233.903 308.521>
AnchorPoint: "diac_bottom" 328.457 -50 basechar 0
AnchorPoint: "diac_top" 500.064 650 basechar 0
AnchorPoint: "cedilla" 129.234 40 basechar 0
LayerCount: 2
Fore
SplineSet
238.521 600 m 1xa0
 308.521 600 l 1xa0
 283.125 490 l 1
 326.361 543 408.139 620 523.139 620 c 0
 645.139 620 705.131 542 676.965 420 c 2
 580 0 l 1
 510 0 l 1
 606.965 420 l 2
 624.279 495 604.286 560 499.286 560 c 0xc0
 394.286 560 311.816 480 267.195 421 c 1
 170 0 l 1
 100 0 l 1
 238.521 600 l 1xa0
EndSplineSet
EndChar

StartChar: m
Encoding: 109 109 140
Width: 970
VWidth: 0
Flags: W
HStem: 0 21G<100 174.617 455 529.617 810 884.617> 560 60<398.663 538.416 742.614 894.323> 580 20G<233.903 308.521>
AnchorPoint: "diac_top" 640.064 650 basechar 0
AnchorPoint: "diac_bottom" 478.457 -50 basechar 0
AnchorPoint: "cedilla" 489.234 40 basechar 0
LayerCount: 2
Fore
SplineSet
238.521 600 m 1xa0
 308.521 600 l 1xa0
 284.279 495 l 1
 324.747 549 400.139 620 498.139 620 c 0
 574.139 620 618.826 571 627.665 501 c 1
 662.131 542 741.139 620 843.139 620 c 0
 962.139 620 1002.36 530 976.965 420 c 2
 880 0 l 1
 810 0 l 1
 906.965 420 l 2
 928.204 512 904.286 560 819.286 560 c 0
 735.286 560 667.511 496 624.735 432 c 1
 623.812 428 622.888 424 621.965 420 c 2
 525 0 l 1
 455 0 l 1
 551.965 420 l 2
 571.589 505 549.286 560 469.286 560 c 0xc0
 382.286 560 307.816 480 263.732 406 c 1
 170 0 l 1
 100 0 l 1
 238.521 600 l 1xa0
EndSplineSet
EndChar

StartChar: q
Encoding: 113 113 141
Width: 710
VWidth: 0
Flags: W
HStem: -20 60<262.185 448.134> 560 60<366.553 566.324> 580 20G<663.903 738.521>
AnchorPoint: "diac_top" 490.064 650 basechar 0
AnchorPoint: "diac_bottom" 228.457 -50 basechar 0
LayerCount: 2
Fore
SplineSet
630.658 436 m 1xc0
 620.511 496 569.286 560 479.286 560 c 0
 357.286 560 272.895 489 243.112 360 c 2
 220.025 260 l 2
 185.626 111 242.234 40 359.234 40 c 0
 450.234 40 529.317 101 571.787 181 c 1
 630.658 436 l 1xc0
467.666 -270 m 1
 548.008 78 l 1
 494.617 20 419.383 -20 325.383 -20 c 0
 181.383 -20 106.622 72 150.025 260 c 2
 173.112 360 l 2
 209.82 519 317.139 620 473.139 620 c 0xc0
 560.139 620 620.98 576 649.128 516 c 1
 668.521 600 l 1
 738.521 600 l 1xa0
 537.666 -270 l 1
 467.666 -270 l 1
EndSplineSet
EndChar

StartChar: a
Encoding: 97 97 142
Width: 700
VWidth: 0
Flags: W
HStem: -20 60<233.992 425.283> -10 60<594.652 617.691> 290 50<270.505 566.952> 560 60<362.16 565.282>
VStem: 206.965 70<420 478.834>
AnchorPoint: "diac_top" 490.064 650 basechar 0
AnchorPoint: "hook_above" 496.99 680 basechar 0
AnchorPoint: "ring_above" 490.064 650 basechar 0
AnchorPoint: "diac_bottom" 328.457 -50 basechar 0
AnchorPoint: "ogonek" 599.234 40 basechar 0
AnchorPoint: "cedilla" 596.238 40 basechar 0
LayerCount: 2
Fore
SplineSet
566.952 290 m 1xb8
 376.952 290 l 2
 279.952 290 217.024 247 199.248 170 c 0
 181.933 95 227.234 40 329.234 40 c 0
 435.234 40 524.934 108 550.791 220 c 2
 566.952 290 l 1xb8
666.965 420 m 2
 597.704 120 l 2
 585.237 66 594.543 50 631.543 50 c 1
 617.691 -10 l 1x78
 542.691 -10 511.617 20 519.7 81 c 1
 472.079 22 401.383 -20 305.383 -20 c 0
 164.383 -20 103.853 60 129.248 170 c 0
 155.104 282 253.495 340 378.495 340 c 2
 578.495 340 l 1
 596.965 420 l 2
 612.433 487 594.286 560 469.286 560 c 0
 344.286 560 292.433 487 276.965 420 c 1
 206.965 420 l 1
 235.131 542 344.139 620 483.139 620 c 0
 622.139 620 695.131 542 666.965 420 c 2
EndSplineSet
EndChar

StartChar: h
Encoding: 104 104 143
Width: 680
VWidth: 0
Flags: W
HStem: 0 21G<110 184.617 520 594.617> 560 60<422.201 594.558> 880 20G<313.164 387.781>
AnchorPoint: "diac_bottom" 338.457 -50 basechar 0
AnchorPoint: "diac_top" 580.064 650 basechar 0
AnchorPoint: "cedilla" 149.234 40 basechar 0
LayerCount: 2
Fore
SplineSet
317.781 900 m 1
 387.781 900 l 1
 318.521 600 l 1
 293.125 490 l 1
 336.361 543 418.139 620 533.139 620 c 0
 655.139 620 715.131 542 686.965 420 c 2
 590 0 l 1
 520 0 l 1
 616.965 420 l 2
 634.279 495 614.286 560 509.286 560 c 0
 404.286 560 321.816 480 277.195 421 c 1
 180 0 l 1
 110 0 l 1
 248.521 600 l 1
 317.781 900 l 1
EndSplineSet
EndChar

StartChar: e
Encoding: 101 101 144
Width: 680
VWidth: 0
Flags: W
HStem: -20 60<249.377 461.002> 290 50<238.495 598.495> 560 60<364.478 561.359>
AnchorPoint: "hook_above" 496.99 680 basechar 0
AnchorPoint: "diac_bottom" 328.457 -50 basechar 0
AnchorPoint: "diac_top" 490.064 650 basechar 0
AnchorPoint: "cedilla" 369.234 40 basechar 0
AnchorPoint: "ogonek" 369.234 40 basechar 0
LayerCount: 2
Fore
SplineSet
673.112 360 m 2
 656.952 290 l 1
 226.952 290 l 1
 206.174 200 l 2
 183.317 101 236.234 40 349.234 40 c 0
 462.234 40 543.317 101 566.174 200 c 1
 636.174 200 l 1
 600.851 47 463.383 -20 335.383 -20 c 0
 207.383 -20 100.851 47 136.174 200 c 2
 173.112 360 l 2
 211.898 528 344.139 620 483.139 620 c 0
 622.139 620 711.898 528 673.112 360 c 2
603.112 360 m 2
 632.895 489 579.286 560 469.286 560 c 0
 359.286 560 272.895 489 243.112 360 c 2
 238.495 340 l 1
 598.495 340 l 1
 603.112 360 l 2
EndSplineSet
EndChar

StartChar: c
Encoding: 99 99 145
Width: 640
VWidth: 0
Flags: W
HStem: -20 60<237.59 452.772> 560 60<349.714 556.393>
AnchorPoint: "diac_top" 480.064 650 basechar 0
AnchorPoint: "diac_bottom" 318.457 -50 basechar 0
AnchorPoint: "cedilla" 349.234 40 basechar 0
LayerCount: 2
Fore
SplineSet
473.139 620 m 0
 613.139 620 693.283 534 662.348 400 c 1
 592.348 400 l 1
 615.434 500 565.286 560 459.286 560 c 0
 353.286 560 275.434 500 252.348 400 c 2
 203.865 190 l 2
 180.778 90 233.234 40 339.234 40 c 0
 445.234 40 520.778 90 543.865 190 c 1
 613.865 190 l 1
 582.929 56 465.383 -20 325.383 -20 c 0
 185.383 -20 102.929 56 133.865 190 c 2
 182.348 400 l 2
 213.283 534 333.139 620 473.139 620 c 0
EndSplineSet
EndChar

StartChar: w
Encoding: 119 119 146
Width: 850
VWidth: 0
Flags: W
HStem: 0 21G<218.951 309.783 549.452 640.284> 580 20G<188.521 264.234 523.728 594.078 853.572 938.521>
VStem: 188.521 75<439.896 600> 536.74 56.7803<298.786 484> 550 57.8545<86 306.612>
AnchorPoint: "diac_top" 575.064 650 basechar 0
AnchorPoint: "diac_bottom" 413.457 -50 basechar 0
AnchorPoint: "ring_above" 575.064 650 basechar 0
LayerCount: 2
Fore
SplineSet
863.521 600 m 1xe8
 938.521 600 l 1
 630 0 l 1
 610 0 l 1
 565 0 l 1
 550 0 l 1xe8
 536.74 484 l 1
 300 0 l 1
 285 0 l 1
 240 0 l 1
 220 0 l 1
 188.521 600 l 1
 263.521 600 l 1
 281.854 86 l 1
 533.521 600 l 1
 593.521 600 l 1xf0
 607.854 86 l 1
 863.521 600 l 1xe8
EndSplineSet
EndChar

StartChar: v
Encoding: 118 118 147
Width: 660
VWidth: 0
Flags: W
HStem: 0 21G<291.451 377.784> 580 20G<188.521 271.731 656.075 748.521>
AnchorPoint: "diac_bottom" 318.457 -50 basechar 0
AnchorPoint: "diac_top" 480.064 650 basechar 0
LayerCount: 2
Fore
SplineSet
668.521 600 m 1
 748.521 600 l 1
 365 0 l 1
 295 0 l 1
 188.521 600 l 1
 268.521 600 l 1
 350.547 89 l 1
 668.521 600 l 1
EndSplineSet
EndChar

StartChar: z
Encoding: 122 122 148
Width: 620
VWidth: 0
Flags: W
HStem: 0 60<163.853 550> 540 60<228.521 584.669>
AnchorPoint: "diac_bottom" 298.457 -50 basechar 0
AnchorPoint: "diac_top" 460.064 650 basechar 0
AnchorPoint: "cedilla" 329.234 40 basechar 0
LayerCount: 2
Fore
SplineSet
228.521 600 m 1
 678.521 600 l 1
 664.669 540 l 1
 163.853 60 l 1
 563.853 60 l 1
 550 0 l 1
 70 0 l 1
 83.8525 60 l 1
 584.669 540 l 1
 214.669 540 l 1
 228.521 600 l 1
EndSplineSet
EndChar

StartChar: y
Encoding: 121 121 149
Width: 660
VWidth: 0
Flags: W
HStem: -290 60<56.9004 161.45> 580 20G<188.521 271.731 656.075 748.521>
AnchorPoint: "hook_above" 486.99 680 basechar 0
AnchorPoint: "diac_top" 480.064 650 basechar 0
AnchorPoint: "diac_bottom" 497.2 -50 basechar 0
AnchorPoint: "ogonek" 287.2 -50 basechar 0
AnchorPoint: "ring_above" 480.064 650 basechar 0
LayerCount: 2
Fore
SplineSet
668.521 600 m 1
 748.521 600 l 1
 365 0 l 1
 253.443 -180 l 1
 200.051 -264 156.048 -290 43.0479 -290 c 1
 56.9004 -230 l 1
 137.9 -230 160.901 -217 190.752 -170 c 2
 295 0 l 1
 188.521 600 l 1
 268.521 600 l 1
 350.547 89 l 1
 668.521 600 l 1
EndSplineSet
EndChar

StartChar: r
Encoding: 114 114 150
Width: 410
VWidth: 0
Flags: W
HStem: 0 21G<100 174.617> 540 70<416.369 504.669> 580 20G<233.903 308.521>
AnchorPoint: "diac_top" 360.064 650 basechar 0
AnchorPoint: "diac_bottom" 128.457 -50 basechar 0
LayerCount: 2
Fore
SplineSet
238.521 600 m 1xa0
 308.521 600 l 1xa0
 278.277 469 l 1
 314.436 513 405.83 610 520.83 610 c 1
 504.669 540 l 1xc0
 403.669 540 302.737 458 258.191 382 c 1
 170 0 l 1
 100 0 l 1
 238.521 600 l 1xa0
EndSplineSet
EndChar

StartChar: numbersign
Encoding: 35 35 151
Width: 910
VWidth: 0
Flags: W
HStem: 0 21G<205 273.367 495 563.367> 240 50<156.952 305.408 385.952 595.408 675.952 855.408> 510 50<239.286 418.743 499.286 708.743 789.286 937.743> 780 20G<531.327 599.694 821.327 889.694>
LayerCount: 2
Fore
SplineSet
615.952 290 m 1
 708.743 510 l 1
 478.743 510 l 1
 385.952 290 l 1
 615.952 290 l 1
675.952 290 m 1
 866.952 290 l 1
 855.408 240 l 1
 655.408 240 l 1
 555 0 l 1
 495 0 l 1
 595.408 240 l 1
 365.408 240 l 1
 265 0 l 1
 205 0 l 1
 305.408 240 l 1
 145.408 240 l 1
 156.952 290 l 1
 325.952 290 l 1
 418.743 510 l 1
 227.743 510 l 1
 239.286 560 l 1
 439.286 560 l 1
 539.694 800 l 1
 599.694 800 l 1
 499.286 560 l 1
 729.286 560 l 1
 829.694 800 l 1
 889.694 800 l 1
 789.286 560 l 1
 949.286 560 l 1
 937.743 510 l 1
 768.743 510 l 1
 675.952 290 l 1
EndSplineSet
EndChar

StartChar: asterisk
Encoding: 42 42 152
Width: 540
VWidth: 0
Flags: W
HStem: 550 350
VStem: 259.92 361.852
LayerCount: 2
Fore
SplineSet
532.903 580 m 1
 484.978 550 l 1
 425.374 673 l 1
 308.978 550 l 1
 274.903 580 l 1
 392.069 702 l 1
 259.92 749 l 1
 285.771 796 l 1
 418.151 750 l 1
 452.781 900 l 1
 502.781 900 l 1
 468.151 750 l 1
 621.771 796 l 1
 625.92 749 l 1
 472.069 702 l 1
 532.903 580 l 1
EndSplineSet
EndChar

StartChar: s
Encoding: 115 115 153
Width: 680
VWidth: 0
Flags: W
HStem: -20 60<240.468 468.527> 560 60<362.902 563.774>
VStem: 129.248 70<78.3639 170> 601.582 70<440 524.919>
AnchorPoint: "diac_bottom" 328.457 -50 basechar 0
AnchorPoint: "diac_top" 490.064 650 basechar 0
AnchorPoint: "cedilla" 369.234 40 basechar 0
LayerCount: 2
Fore
SplineSet
129.248 170 m 1
 199.248 170 l 1
 184.241 105 225.234 40 349.234 40 c 0
 473.234 40 544.241 105 559.248 170 c 0
 578.179 252 493.411 266 404.644 280 c 0
 309.106 295 185.725 328 211.582 440 c 0
 230.514 522 335.139 620 483.139 620 c 0
 631.139 620 690.514 522 671.582 440 c 1
 601.582 440 l 1
 612.895 489 585.286 560 469.286 560 c 0
 353.286 560 292.895 489 281.582 440 c 0
 264.96 368 346.266 352 418.495 340 c 0
 524.34 322 659.953 303 629.248 170 c 0
 606.161 70 502.383 -20 335.383 -20 c 0
 168.383 -20 106.161 70 129.248 170 c 1
EndSplineSet
EndChar

StartChar: f
Encoding: 102 102 154
Width: 420
VWidth: 0
Flags: W
HStem: 0 21G<170 244.617> 540 60<188.521 294.669 378.521 494.669> 840 60<466.712 563.93>
AnchorPoint: "diac_bottom" 178.457 -50 basechar 0
AnchorPoint: "diac_top" 509.325 950 basechar 0
LayerCount: 2
Fore
SplineSet
174.669 540 m 1
 188.521 600 l 1
 308.521 600 l 1
 333.916 710 l 2
 360.928 827 430.781 900 577.781 900 c 1
 563.93 840 l 1
 470.93 840 424.002 797 403.916 710 c 2
 378.521 600 l 1
 508.521 600 l 1
 494.669 540 l 1
 364.669 540 l 1
 240 0 l 1
 170 0 l 1
 294.669 540 l 1
 174.669 540 l 1
EndSplineSet
EndChar

StartChar: t
Encoding: 116 116 155
Width: 420
VWidth: 0
Flags: W
HStem: 0 21G<175 249.617> 540 60<178.521 299.669 383.521 504.669>
VStem: 164.669 353.852
AnchorPoint: "diac_top" 415.473 890 basechar 0
AnchorPoint: "cedilla" 209.234 40 basechar 0
AnchorPoint: "diac_bottom" 198.457 -50 basechar 0
LayerCount: 2
Fore
SplineSet
423.93 840 m 1
 438.93 840 l 1
 383.521 600 l 1
 518.521 600 l 1
 504.669 540 l 1
 369.669 540 l 1
 245 0 l 1
 175 0 l 1
 299.669 540 l 1
 164.669 540 l 1
 178.521 600 l 1
 313.521 600 l 1
 355.077 780 l 1
 423.93 840 l 1
EndSplineSet
EndChar

StartChar: k
Encoding: 107 107 156
Width: 620
VWidth: 0
Flags: W
HStem: 0 21G<110 184.617 480.312 580> 295 60<261.958 347.106> 580 20G<578.801 678.521> 880 20G<313.164 387.781>
AnchorPoint: "diac_top" 540.064 650 basechar 0
AnchorPoint: "diac_bottom" 308.457 -50 basechar 0
LayerCount: 2
Fore
SplineSet
598.521 600 m 1
 678.521 600 l 1
 412.341 335 l 1
 580 0 l 1
 490 0 l 1
 347.106 295 l 1
 248.106 295 l 1
 180 0 l 1
 110 0 l 1
 317.781 900 l 1
 387.781 900 l 1
 261.958 355 l 1
 356.958 355 l 1
 598.521 600 l 1
EndSplineSet
EndChar

StartChar: hyphen
Encoding: 45 45 157
Width: 560
VWidth: 0
Flags: W
HStem: 295 50<169.649 538.106>
VStem: 158.106 391.543
LayerCount: 2
Fore
SplineSet
169.649 345 m 1
 549.649 345 l 1
 538.106 295 l 1
 158.106 295 l 1
 169.649 345 l 1
EndSplineSet
EndChar

StartChar: bar
Encoding: 124 124 158
Width: 320
VWidth: 0
Flags: W
HStem: 880 20G<333.164 397.781>
VStem: 88.4434 309.338
LayerCount: 2
Fore
SplineSet
337.781 900 m 1
 397.781 900 l 1
 148.443 -180 l 1
 88.4434 -180 l 1
 337.781 900 l 1
EndSplineSet
EndChar

StartChar: slash
Encoding: 47 47 159
Width: 480
VWidth: 0
Flags: W
HStem: 880 20G<547.979 617.781>
LayerCount: 2
Fore
SplineSet
557.781 900 m 1
 617.781 900 l 1
 88.4434 -180 l 1
 28.4434 -180 l 1
 557.781 900 l 1
EndSplineSet
EndChar

StartChar: colon
Encoding: 58 58 160
Width: 320
VWidth: 0
Flags: W
HStem: 0 120<132.965 214.739> 420 120<229.93 311.704>
VStem: 113.853 216.964
LayerCount: 2
Fore
SplineSet
330.816 480 m 0
 323.198 447 289.965 420 256.965 420 c 0
 223.965 420 203.198 447 210.816 480 c 0
 218.436 513 251.669 540 284.669 540 c 0
 317.669 540 338.436 513 330.816 480 c 0
233.853 60 m 0
 226.233 27 193 0 160 0 c 0
 127 0 106.233 27 113.853 60 c 0
 121.471 93 154.704 120 187.704 120 c 0
 220.704 120 241.471 93 233.853 60 c 0
EndSplineSet
EndChar

StartChar: backslash
Encoding: 92 92 161
Width: 480
VWidth: 0
Flags: W
HStem: 880 20G<277.781 338.349>
VStem: 277.781 60<604.13 900> 308.443 60<-180 115.87>
LayerCount: 2
Fore
SplineSet
337.781 900 m 1xc0
 368.443 -180 l 1
 308.443 -180 l 1xa0
 277.781 900 l 1
 337.781 900 l 1xc0
EndSplineSet
EndChar

StartChar: seven
Encoding: 55 55 162
Width: 660
Flags: W
HStem: 0 21G<260 334.617> 740 60<284.694 650.843>
LayerCount: 2
Fore
SplineSet
270.843 740 m 1
 284.694 800 l 1
 744.694 800 l 1
 730.843 740 l 1
 730.843 740 453.745 536 383.1 230 c 2
 330 0 l 1
 260 0 l 1
 313.1 230 l 2
 382.36 530 650.843 740 650.843 740 c 1
 270.843 740 l 1
EndSplineSet
EndChar

StartChar: exclam
Encoding: 33 33 163
Width: 320
VWidth: 0
Flags: W
HStem: 0 120<132.965 214.739> 880 20G<328.164 402.781>
VStem: 113.853 120<18.6565 101.343>
LayerCount: 2
Fore
SplineSet
332.781 900 m 1
 402.781 900 l 1
 278.112 360 l 1
 235.408 240 l 1
 195.408 240 l 1
 208.112 360 l 1
 332.781 900 l 1
233.853 60 m 0
 226.233 27 193 0 160 0 c 0
 127 0 106.233 27 113.853 60 c 0
 121.471 93 154.704 120 187.704 120 c 0
 220.704 120 241.471 93 233.853 60 c 0
EndSplineSet
EndChar

StartChar: quotedbl
Encoding: 34 34 164
Width: 440
VWidth: 0
Flags: W
HStem: 560 240<274.694 284.286 454.694 464.286>
VStem: 234.286 300.408
LayerCount: 2
Fore
SplineSet
454.694 800 m 1
 534.694 800 l 1
 464.286 560 l 1
 414.286 560 l 1
 454.694 800 l 1
274.694 800 m 1
 354.694 800 l 1
 284.286 560 l 1
 234.286 560 l 1
 274.694 800 l 1
EndSplineSet
EndChar

StartChar: dollar
Encoding: 36 36 165
Width: 790
VWidth: 0
Flags: W
HStem: -20 61<285.862 365.383 429.466 534.643> 392 66<375.46 460.5 524.121 592.98> 759 60<440.1 545.229 609.081 677.474>
VStem: 147.717 70<98.5645 250> 736.212 70<590 706.548>
LayerCount: 2
Fore
SplineSet
589.325 950 m 1
 639.325 950 l 1
 609.081 819 l 1
 771.08 806 828.837 688 806.212 590 c 1
 736.212 590 l 1
 752.373 660 722.459 747 595.229 759 c 1
 524.121 451 l 1
 643.966 433 790.731 393 753.1 230 c 0
 719.624 85 583.922 -9 415.613 -19 c 1
 385.37 -150 l 1
 335.37 -150 l 1
 365.383 -20 l 1
 196.229 -12 111.933 95 147.717 250 c 1
 217.717 250 l 1
 190.705 133 246.082 48 379.466 41 c 1
 460.5 392 l 1
 362.502 405 210.197 434 246.212 590 c 0
 269.299 690 385.234 811 559.081 819 c 1
 589.325 950 l 1
475.737 458 m 1
 545.229 759 l 1
 406.382 751 332.835 662 316.212 590 c 0
 294.279 495 385.739 471 475.737 458 c 1
509.115 386 m 1
 429.466 41 l 1
 561.774 51 658.396 123 683.1 230 c 0
 707.803 337 609.421 370 509.115 386 c 1
EndSplineSet
EndChar

StartChar: percent
Encoding: 37 37 166
Width: 840
VWidth: 0
Flags: W
HStem: -10 50<569.349 680.1> 0 21G<100 188.867> 300 50<618.395 729.146> 450 50<295.548 406.299> 760 50<344.594 455.346> 780 20G<835.827 924.694>
LayerCount: 2
Fore
SplineSet
854.694 800 m 1x74
 924.694 800 l 1
 170 0 l 1
 100 0 l 1
 854.694 800 l 1x74
417.003 810 m 0x38
 506.003 810 548.303 729 525.447 630 c 0
 502.591 531 422.891 450 333.891 450 c 0
 244.891 450 202.591 531 225.447 630 c 0
 248.303 729 328.003 810 417.003 810 c 0x38
405.46 760 m 0
 343.46 760 299.761 692 285.447 630 c 0
 271.133 568 283.434 500 345.434 500 c 0
 407.434 500 451.133 568 465.447 630 c 0
 479.761 692 467.46 760 405.46 760 c 0
690.804 350 m 0
 779.804 350 822.104 269 799.248 170 c 0
 776.392 71 696.691 -10 607.691 -10 c 0xb0
 518.691 -10 476.392 71 499.248 170 c 0
 522.104 269 601.804 350 690.804 350 c 0
679.261 300 m 0
 617.261 300 573.562 232 559.248 170 c 0
 544.934 108 557.234 40 619.234 40 c 0
 681.234 40 724.934 108 739.248 170 c 0
 753.562 232 741.261 300 679.261 300 c 0
EndSplineSet
EndChar

StartChar: quotesingle
Encoding: 39 39 167
Width: 240
VWidth: 0
Flags: W
HStem: 560 240<264.694 274.286>
VStem: 224.286 120.408
LayerCount: 2
Fore
SplineSet
264.694 800 m 1
 344.694 800 l 1
 274.286 560 l 1
 224.286 560 l 1
 264.694 800 l 1
EndSplineSet
EndChar

StartChar: parenleft
Encoding: 40 40 168
Width: 400
VWidth: 0
Flags: W
LayerCount: 2
Fore
SplineSet
183.112 360 m 1
 190.039 390 l 2
 262.993 706 345.776 848 562.398 920 c 1
 553.164 880 l 1
 383.618 804 313.989 667 250.039 390 c 2
 243.112 360 l 1
 236.187 330 l 2
 172.236 53 178.607 -84 313.062 -160 c 1
 303.826 -200 l 1
 120.449 -128 103.232 14 176.187 330 c 2
 183.112 360 l 1
EndSplineSet
EndChar

StartChar: parenright
Encoding: 41 41 169
Width: 400
VWidth: 0
Flags: W
LayerCount: 2
Fore
SplineSet
383.112 360 m 1
 376.187 330 l 2
 303.232 14 220.449 -128 3.82617 -200 c 1
 13.0615 -160 l 1
 182.607 -84 252.236 53 316.187 330 c 2
 323.112 360 l 1
 330.039 390 l 2
 393.989 667 387.618 804 253.164 880 c 1
 262.398 920 l 1
 445.776 848 462.993 706 390.039 390 c 2
 383.112 360 l 1
EndSplineSet
EndChar

StartChar: plus
Encoding: 43 43 170
Width: 560
VWidth: 0
Flags: W
HStem: 295 50<169.649 318.106 389.649 538.106>
VStem: 158.106 391.543
LayerCount: 2
Fore
SplineSet
342.321 140 m 1
 282.321 140 l 1
 318.106 295 l 1
 158.106 295 l 1
 169.649 345 l 1
 329.649 345 l 1
 365.434 500 l 1
 425.434 500 l 1
 389.649 345 l 1
 549.649 345 l 1
 538.106 295 l 1
 378.106 295 l 1
 342.321 140 l 1
EndSplineSet
EndChar

StartChar: comma
Encoding: 44 44 171
Width: 320
VWidth: 0
Flags: W
HStem: -150 270
VStem: 113.853 121.536<6.08013 100.446>
LayerCount: 2
Fore
SplineSet
165 0 m 1
 163 0 162 0 160 0 c 0
 127 0 106.233 27 113.853 60 c 0
 121.471 93 154.704 120 187.704 120 c 0
 220.704 120 247.163 96 235.389 45 c 0
 217.381 -33 158.837 -96 85.3701 -150 c 1
 50.3701 -150 l 1
 122.529 -93 150.688 -49 165 0 c 1
EndSplineSet
EndChar

StartChar: zero
Encoding: 48 48 172
Width: 660
Flags: W
HStem: -20 60<252.218 435.777> 760 60<408.917 592.477>
LayerCount: 2
Fore
SplineSet
145.408 240 m 2
 219.286 560 l 2
 255.07 715 371.312 820 519.312 820 c 0
 667.312 820 735.07 715 699.286 560 c 2
 625.408 240 l 2
 589.624 85 473.383 -20 325.383 -20 c 0
 177.383 -20 109.624 85 145.408 240 c 2
215.408 240 m 2
 192.553 141 214.234 40 339.234 40 c 0
 464.234 40 532.553 141 555.408 240 c 2
 629.286 560 l 2
 652.143 659 630.46 760 505.46 760 c 0
 380.46 760 312.143 659 289.286 560 c 2
 215.408 240 l 2
EndSplineSet
EndChar

StartChar: one
Encoding: 49 49 173
Width: 660
Flags: W
HStem: 0 21G<390 464.617> 550 60<260.83 379.829> 780 20G<563.844 644.694>
VStem: 246.978 397.717
LayerCount: 2
Fore
SplineSet
542.373 660 m 1
 486.828 597 345.978 550 246.978 550 c 1
 260.83 610 l 1
 376.83 610 552.993 706 574.694 800 c 1
 644.694 800 l 1
 460 0 l 1
 390 0 l 1
 542.373 660 l 1
EndSplineSet
EndChar

StartChar: two
Encoding: 50 50 174
Width: 660
Flags: W
HStem: 0 60<183.853 570> 760 60<408.242 590.891>
LayerCount: 2
Fore
SplineSet
627.366 595 m 0
 644.682 670 622.46 760 505.46 760 c 0
 388.46 760 324.682 670 307.366 595 c 1
 237.366 595 l 1
 265.994 719 380.312 820 519.312 820 c 0
 658.312 820 725.994 719 697.366 595 c 0
 672.664 488 554.809 402 448.495 340 c 0
 323.642 267 215.481 197 183.853 60 c 1
 583.853 60 l 1
 570 0 l 1
 90 0 l 1
 103.853 60 l 2
 138.944 212 250.183 291 374.267 365 c 0
 469.427 422 604.973 498 627.366 595 c 0
EndSplineSet
EndChar

StartChar: three
Encoding: 51 51 175
Width: 660
Flags: W
HStem: -20 60<236.399 435.381> 385 60<352.736 508.308> 760 60<398.242 580.891>
VStem: 120.791 70<83.4574 220> 227.366 70<595 656.503>
LayerCount: 2
Fore
SplineSet
120.791 220 m 1
 190.791 220 l 1
 171.629 137 199.234 40 329.234 40 c 0
 459.234 40 531.629 137 550.791 220 c 0
 569.953 303 538.885 385 408.884 385 c 2
 338.884 385 l 1
 352.736 445 l 1
 422.736 445 l 2
 539.736 445 600.052 520 617.366 595 c 0
 634.682 670 612.46 760 495.46 760 c 0
 378.46 760 314.682 670 297.366 595 c 1
 227.366 595 l 1
 255.994 719 370.312 820 509.312 820 c 0
 648.312 820 715.994 719 687.366 595 c 0
 669.359 517 618.814 454 548.503 418 c 1
 615.191 382 642.262 313 620.791 220 c 0
 588.932 82 470.383 -20 315.383 -20 c 0
 160.383 -20 88.9316 82 120.791 220 c 1
EndSplineSet
EndChar

StartChar: four
Encoding: 52 52 176
Width: 660
Flags: W
HStem: 0 21G<430 504.617> 165 60<201.945 468.094 551.945 618.094> 780 20G<597.903 684.694>
LayerCount: 2
Fore
SplineSet
131.945 225 m 1
 614.694 800 l 1
 684.694 800 l 1
 551.945 225 l 1
 631.945 225 l 1
 618.094 165 l 1
 538.094 165 l 1
 500 0 l 1
 430 0 l 1
 468.094 165 l 1
 118.093 165 l 1
 131.945 225 l 1
201.945 225 m 1
 481.945 225 l 1
 586.99 680 l 1
 201.945 225 l 1
EndSplineSet
EndChar

StartChar: five
Encoding: 53 53 177
Width: 660
Flags: W
HStem: -20 60<252.218 435.777> 440 60<348.186 518.599> 740 60<392.843 700.843>
VStem: 145.408 70<74.6546 240>
LayerCount: 2
Fore
SplineSet
325.383 -20 m 0
 177.383 -20 109.624 85 145.408 240 c 1
 215.408 240 l 1
 192.553 141 214.234 40 339.234 40 c 0
 464.234 40 532.553 141 555.408 240 c 0
 578.265 339 556.582 440 431.582 440 c 0
 342.582 440 286.346 387 260.804 350 c 1
 193.112 360 l 1
 344.694 800 l 1
 374.694 800 l 1
 412.694 800 l 1
 714.694 800 l 1
 700.843 740 l 1
 392.843 740 l 1
 289.89 437 l 1
 330.277 469 385.434 500 445.434 500 c 0
 593.434 500 661.193 395 625.408 240 c 0
 589.624 85 473.383 -20 325.383 -20 c 0
EndSplineSet
EndChar

StartChar: six
Encoding: 54 54 178
Width: 660
Flags: W
HStem: -20 60<252.218 435.777> 440 60<343.853 518.599> 760 60<402.129 586.753>
LayerCount: 2
Fore
SplineSet
555.408 240 m 0
 578.265 339 556.582 440 431.582 440 c 0
 306.582 440 238.265 339 215.408 240 c 0
 192.553 141 214.234 40 339.234 40 c 0
 464.234 40 532.553 141 555.408 240 c 0
514.312 820 m 0
 653.312 820 725.994 719 697.366 595 c 1
 627.366 595 l 1
 644.682 670 617.46 760 500.46 760 c 0
 383.46 760 314.682 670 297.366 595 c 2
 252.348 400 l 1
 303.969 459 372.434 500 445.434 500 c 0
 593.434 500 661.193 395 625.408 240 c 0
 589.624 85 473.383 -20 325.383 -20 c 0
 177.383 -20 109.624 85 145.408 240 c 2
 227.366 595 l 2
 255.994 719 375.312 820 514.312 820 c 0
EndSplineSet
EndChar

StartChar: eight
Encoding: 56 56 179
Width: 660
Flags: W
HStem: -20 60<246.399 445.381> 385 60<342.22 518.308> 760 60<408.242 590.891>
LayerCount: 2
Fore
SplineSet
432.736 445 m 0
 549.736 445 610.052 520 627.366 595 c 0
 644.682 670 622.46 760 505.46 760 c 0
 388.46 760 324.682 670 307.366 595 c 0
 290.052 520 315.736 445 432.736 445 c 0
558.503 418 m 1
 625.191 382 652.262 313 630.791 220 c 0
 598.932 82 480.383 -20 325.383 -20 c 0
 170.383 -20 98.9316 82 130.791 220 c 0
 152.262 313 211.191 382 294.503 418 c 1
 240.814 454 219.358 517 237.366 595 c 0
 265.994 719 380.312 820 519.312 820 c 0
 658.312 820 725.994 719 697.366 595 c 0
 679.359 517 628.814 454 558.503 418 c 1
418.884 385 m 0
 288.884 385 219.953 303 200.791 220 c 0
 181.629 137 209.234 40 339.234 40 c 0
 469.234 40 541.629 137 560.791 220 c 0
 579.953 303 548.885 385 418.884 385 c 0
EndSplineSet
EndChar

StartChar: nine
Encoding: 57 57 180
Width: 660
Flags: W
HStem: -20 60<257.941 442.565> 300 60<326.096 500.841> 760 60<408.917 592.477>
LayerCount: 2
Fore
SplineSet
289.286 560 m 0
 266.431 461 288.112 360 413.112 360 c 0
 538.112 360 606.431 461 629.286 560 c 0
 652.143 659 630.46 760 505.46 760 c 0
 380.46 760 312.143 659 289.286 560 c 0
330.383 -20 m 0
 191.383 -20 118.7 81 147.328 205 c 1
 217.328 205 l 1
 200.013 130 227.234 40 344.234 40 c 0
 461.234 40 530.013 130 547.328 205 c 2
 592.348 400 l 1
 540.727 341 472.261 300 399.261 300 c 0
 251.261 300 183.502 405 219.286 560 c 0
 255.07 715 371.312 820 519.312 820 c 0
 667.312 820 735.07 715 699.286 560 c 2
 617.328 205 l 2
 588.7 81 469.383 -20 330.383 -20 c 0
EndSplineSet
EndChar

StartChar: semicolon
Encoding: 59 59 181
Width: 320
VWidth: 0
Flags: W
HStem: 420 120<229.93 311.704>
VStem: 50.3701 280.446
LayerCount: 2
Fore
SplineSet
330.816 480 m 0
 323.198 447 289.965 420 256.965 420 c 0
 223.965 420 203.198 447 210.816 480 c 0
 218.436 513 251.669 540 284.669 540 c 0
 317.669 540 338.436 513 330.816 480 c 0
165 0 m 1
 163 0 162 0 160 0 c 0
 127 0 106.233 27 113.853 60 c 0
 121.471 93 154.704 120 187.704 120 c 0
 220.704 120 247.163 96 235.389 45 c 0
 217.381 -33 158.837 -96 85.3701 -150 c 1
 50.3701 -150 l 1
 122.529 -93 150.688 -49 165 0 c 1
EndSplineSet
EndChar

StartChar: less
Encoding: 60 60 182
Width: 600
VWidth: 0
Flags: W
LayerCount: 2
Fore
SplineSet
180.415 305 m 1
 187.341 335 l 1
 614.669 540 l 1
 599.662 475 l 1
 263.878 320 l 1
 528.094 165 l 1
 513.087 100 l 1
 180.415 305 l 1
EndSplineSet
EndChar

StartChar: equal
Encoding: 61 61 183
Width: 560
VWidth: 0
Flags: W
HStem: 190 50<145.408 513.865> 400 50<193.891 562.348>
LayerCount: 2
Fore
SplineSet
193.891 450 m 1
 573.891 450 l 1
 562.348 400 l 1
 182.348 400 l 1
 193.891 450 l 1
145.408 240 m 1
 525.408 240 l 1
 513.865 190 l 1
 133.865 190 l 1
 145.408 240 l 1
EndSplineSet
EndChar

StartChar: greater
Encoding: 62 62 184
Width: 600
VWidth: 0
Flags: W
LayerCount: 2
Fore
SplineSet
560.415 305 m 1
 133.087 100 l 1
 148.093 165 l 1
 483.878 320 l 1
 219.662 475 l 1
 234.669 540 l 1
 567.341 335 l 1
 560.415 305 l 1
EndSplineSet
EndChar

StartChar: question
Encoding: 63 63 185
Width: 640
VWidth: 0
Flags: W
HStem: 0 120<282.965 364.739> 760 60<397.788 581.912>
VStem: 227.743 70.7715<535 662.125> 263.853 120<18.6565 101.343> 330.408 70<240 325.049>
LayerCount: 2
Fore
SplineSet
298.515 535 m 1xe8
 227.743 510 l 1
 221.745 536 220.902 567 228.521 600 c 0
 259.227 733 381.312 820 509.312 820 c 0
 637.312 820 719.227 733 688.521 600 c 0
 662.895 489 577.967 446 485.039 390 c 0
 428.189 356 417.262 313 400.408 240 c 1
 330.408 240 l 1
 354.188 343 371.115 386 485.045 455 c 0
 555.973 498 601.668 527 618.521 600 c 0
 638.837 688 599.46 760 495.46 760 c 0
 391.46 760 318.837 688 298.521 600 c 0
 292.519 574 293.132 555 298.515 535 c 1xe8
383.853 60 m 0xd0
 376.233 27 343 0 310 0 c 0
 277 0 256.233 27 263.853 60 c 0
 271.471 93 304.704 120 337.704 120 c 0
 370.704 120 391.471 93 383.853 60 c 0xd0
EndSplineSet
EndChar

StartChar: at
Encoding: 64 64 186
Width: 1140
VWidth: 0
Flags: W
HStem: -180 45<420.264 698.29> 70 60<503.592 665.978 829.278 880.013 880.475 955.86> 530 60<582.85 763.254> 795 45<621.766 875.566>
LayerCount: 2
Fore
SplineSet
752.869 229 m 1
 753.1 230 l 1
 804.353 452 l 1
 787.125 490 747.36 530 682.36 530 c 0
 576.36 530 517.123 464 495.421 370 c 2
 476.952 290 l 2
 455.25 196 485.013 130 590.013 130 c 0
 660.013 130 719.479 184 752.869 229 c 1
831.595 570 m 1
 901.595 570 l 1
 823.1 230 l 2
 805.554 154 843.013 130 880.013 130 c 1
 880.475 132 l 1
 925.475 132 1040.63 176 1076.19 330 c 0
 1127.9 554 1021.54 795 753.54 795 c 0
 485.54 795 266.516 548 216.187 330 c 0
 153.391 58 313.833 -135 538.833 -135 c 0
 649.833 -135 744.297 -107 828.609 -58 c 1
 837.683 -101 l 1
 738.292 -159 629.443 -180 528.443 -180 c 0
 255.443 -180 97.3877 32 166.187 330 c 0
 232.445 617 484.93 840 763.93 840 c 0
 1042.93 840 1192.45 617 1126.19 330 c 0
 1080.71 133 953.161 70 866.161 70 c 0
 787.161 70 752.472 106 747.17 161 c 1
 704.626 111 642.161 70 561.161 70 c 0
 443.161 70 372.553 141 406.952 290 c 2
 425.421 370 l 2
 458.436 513 568.212 590 681.212 590 c 0
 751.212 590 795.824 558 819.359 517 c 1
 831.595 570 l 1
EndSplineSet
EndChar

StartChar: bracketleft
Encoding: 91 91 187
Width: 400
VWidth: 0
Flags: W
HStem: -180 50<129.987 278.443> 850 50<356.238 516.238>
LayerCount: 2
Fore
SplineSet
183.112 360 m 1
 307.781 900 l 1
 527.781 900 l 1
 516.238 850 l 1
 356.238 850 l 1
 243.112 360 l 1
 129.987 -130 l 1
 289.987 -130 l 1
 278.443 -180 l 1
 58.4434 -180 l 1
 183.112 360 l 1
EndSplineSet
EndChar

StartChar: bracketright
Encoding: 93 93 188
Width: 400
VWidth: 0
Flags: W
HStem: -180 50<49.9873 209.987> 850 50<287.781 436.238>
LayerCount: 2
Fore
SplineSet
383.112 360 m 1
 258.443 -180 l 1
 38.4434 -180 l 1
 49.9873 -130 l 1
 209.987 -130 l 1
 323.112 360 l 1
 436.238 850 l 1
 276.238 850 l 1
 287.781 900 l 1
 507.781 900 l 1
 383.112 360 l 1
EndSplineSet
EndChar

StartChar: asciicircum
Encoding: 94 94 189
Width: 540
VWidth: 0
Flags: W
HStem: 560 240
VStem: 209.286 380
LayerCount: 2
Fore
SplineSet
442.228 746 m 1
 279.286 560 l 1
 209.286 560 l 1
 424.694 800 l 1
 484.694 800 l 1
 589.286 560 l 1
 519.286 560 l 1
 442.228 746 l 1
EndSplineSet
EndChar

StartChar: underscore
Encoding: 95 95 190
Width: 720
VWidth: 0
Flags: W
HStem: -50 50<100 608.457>
LayerCount: 2
Fore
SplineSet
100 0 m 1
 620 0 l 1
 608.457 -50 l 1
 88.457 -50 l 1
 100 0 l 1
EndSplineSet
EndChar

StartChar: grave
Encoding: 96 96 191
Width: 420
VWidth: 0
Flags: W
HStem: 620 180
VStem: 254.694 238.444
LayerCount: 2
Fore
SplineSet
254.694 800 m 1
 364.694 800 l 1
 493.139 620 l 1
 448.139 620 l 1
 254.694 800 l 1
EndSplineSet
EndChar

StartChar: braceleft
Encoding: 123 123 192
Width: 400
VWidth: 0
Flags: W
HStem: -180 50<198.144 298.443> 850 50<412.471 536.238>
LayerCount: 2
Fore
SplineSet
133.112 360 m 1
 134.267 365 l 1
 177.884 385 259.735 432 280.052 520 c 2
 347.003 810 l 2
 359.932 866 410.781 900 467.781 900 c 2
 547.781 900 l 1
 536.238 850 l 1
 456.238 850 l 2
 428.238 850 413.698 839 407.003 810 c 2
 340.052 520 l 2
 310.731 393 213.112 360 213.112 360 c 1
 213.112 360 295.494 327 266.174 200 c 2
 199.222 -90 l 2
 192.526 -119 201.987 -130 229.987 -130 c 2
 309.987 -130 l 1
 298.443 -180 l 1
 218.443 -180 l 2
 161.443 -180 126.293 -146 139.222 -90 c 2
 206.174 200 l 2
 226.49 288 166.341 335 131.958 355 c 1
 133.112 360 l 1
EndSplineSet
EndChar

StartChar: braceright
Encoding: 125 125 193
Width: 400
VWidth: 0
Flags: W
HStem: -180 50<29.9873 153.754> 850 50<267.781 368.081>
LayerCount: 2
Fore
SplineSet
433.112 360 m 1
 431.958 355 l 1
 388.341 335 306.49 288 286.174 200 c 2
 219.222 -90 l 2
 206.293 -146 155.443 -180 98.4434 -180 c 2
 18.4434 -180 l 1
 29.9873 -130 l 1
 109.987 -130 l 2
 137.987 -130 152.526 -119 159.222 -90 c 2
 226.174 200 l 2
 255.494 327 353.112 360 353.112 360 c 1
 353.112 360 270.731 393 300.052 520 c 2
 367.003 810 l 2
 373.698 839 364.238 850 336.238 850 c 2
 256.238 850 l 1
 267.781 900 l 1
 347.781 900 l 2
 404.781 900 439.932 866 427.003 810 c 2
 360.052 520 l 2
 339.735 432 399.884 385 434.267 365 c 1
 433.112 360 l 1
EndSplineSet
EndChar

StartChar: asciitilde
Encoding: 126 126 194
Width: 640
VWidth: 0
Flags: W
HStem: 250 55<427.955 556.026> 335 55<231.729 359.848>
LayerCount: 2
Fore
SplineSet
310.039 390 m 0
 351.039 390 372.499 379 405.804 350 c 0
 435.032 325 449.415 305 490.415 305 c 0
 534.415 305 577.265 339 597.729 380 c 1
 634.267 365 l 1
 609.953 303 537.717 250 477.717 250 c 0
 436.717 250 414.487 262 381.952 290 c 0
 350.954 316 338.341 335 297.341 335 c 0
 253.341 335 210.491 301 190.025 260 c 1
 153.488 275 l 1
 177.803 337 250.039 390 310.039 390 c 0
EndSplineSet
EndChar

StartChar: quotedblleft
Encoding: 8220 8220 195
Width: 520
VWidth: 0
Flags: W
HStem: 550 120<309.682 341.717 509.682 541.717> 800 20G<352.578 424.312 552.578 624.312>
VStem: 239.293 121.537<569.554 663.92> 439.293 121.537<569.554 663.92>
LayerCount: 2
Fore
SplineSet
309.682 670 m 1
 311.682 670 312.682 670 314.682 670 c 0
 347.682 670 368.448 643 360.83 610 c 0
 353.211 577 319.978 550 286.978 550 c 0
 253.978 550 227.519 574 239.293 625 c 0
 257.301 703 315.845 766 389.312 820 c 1
 424.312 820 l 1
 352.152 763 323.994 719 309.682 670 c 1
509.682 670 m 1
 511.682 670 512.682 670 514.682 670 c 0
 547.682 670 568.448 643 560.83 610 c 0
 553.211 577 519.978 550 486.978 550 c 0
 453.978 550 427.519 574 439.293 625 c 0
 457.301 703 515.845 766 589.312 820 c 1
 624.312 820 l 1
 552.152 763 523.994 719 509.682 670 c 1
EndSplineSet
EndChar

StartChar: quotedblright
Encoding: 8221 8221 196
Width: 520
VWidth: 0
Flags: W
HStem: 700 120<294.573 326.607 494.573 526.607>
VStem: 275.46 121.537<706.08 800.446> 475.46 121.537<706.08 800.446>
LayerCount: 2
Fore
SplineSet
326.607 700 m 1
 324.607 700 323.607 700 321.607 700 c 0
 288.607 700 267.841 727 275.46 760 c 0
 283.078 793 316.312 820 349.312 820 c 0
 382.312 820 408.771 796 396.997 745 c 0
 378.989 667 320.444 604 246.978 550 c 1
 211.978 550 l 1
 284.137 607 312.295 651 326.607 700 c 1
526.607 700 m 1
 524.607 700 523.607 700 521.607 700 c 0
 488.607 700 467.841 727 475.46 760 c 0
 483.078 793 516.312 820 549.312 820 c 0
 582.312 820 608.771 796 596.997 745 c 0
 578.989 667 520.444 604 446.978 550 c 1
 411.978 550 l 1
 484.137 607 512.295 651 526.607 700 c 1
EndSplineSet
EndChar

StartChar: quoteleft
Encoding: 8216 8216 197
Width: 320
VWidth: 0
Flags: W
HStem: 550 270
VStem: 239.293 121.537<569.554 663.92>
LayerCount: 2
Fore
SplineSet
309.682 670 m 1
 311.682 670 312.682 670 314.682 670 c 0
 347.682 670 368.448 643 360.83 610 c 0
 353.211 577 319.978 550 286.978 550 c 0
 253.978 550 227.519 574 239.293 625 c 0
 257.301 703 315.845 766 389.312 820 c 1
 424.312 820 l 1
 352.152 763 323.994 719 309.682 670 c 1
EndSplineSet
EndChar

StartChar: quoteright
Encoding: 8217 8217 198
Width: 320
VWidth: 0
Flags: W
HStem: 550 270
VStem: 275.46 121.537<706.08 800.446>
LayerCount: 2
Fore
SplineSet
326.607 700 m 1
 324.607 700 323.607 700 321.607 700 c 0
 288.607 700 267.841 727 275.46 760 c 0
 283.078 793 316.312 820 349.312 820 c 0
 382.312 820 408.771 796 396.997 745 c 0
 378.989 667 320.444 604 246.978 550 c 1
 211.978 550 l 1
 284.137 607 312.295 651 326.607 700 c 1
EndSplineSet
EndChar

StartChar: afii57929
Encoding: 700 700 199
Width: 280
VWidth: 0
Flags: W
HStem: 460 290
VStem: 156.199 206.174
LayerCount: 2
Fore
SplineSet
303.151 750 m 0
 354.151 750 374.147 711 362.373 660 c 0
 344.365 582 280.127 503 211.199 460 c 1
 156.199 460 l 1
 216.127 503 258.132 555 270.83 610 c 1
 231.83 610 207.986 641 216.99 680 c 0
 225.994 719 264.151 750 303.151 750 c 0
EndSplineSet
EndChar

StartChar: Euro
Encoding: 8364 8364 200
Width: 750
Flags: W
HStem: -20 60<377.563 623.289> 280 50<156.187 244.644 326.187 614.643> 470 50<200.052 288.508 370.052 658.508> 760 60<535.03 771.682>
LayerCount: 2
Fore
SplineSet
475.383 -20 m 0
 295.383 -20 200.316 88 242.334 270 c 2
 244.644 280 l 1
 144.644 280 l 1
 156.187 330 l 1
 256.187 330 l 1
 288.508 470 l 1
 188.508 470 l 1
 200.052 520 l 1
 300.052 520 l 1
 342.993 706 492.312 820 669.312 820 c 1
 765.081 819 802.617 791 844.306 755 c 1
 803.916 710 l 1
 768.073 741 734.46 760 655.46 760 c 0
 492.46 760 399.833 649 370.052 520 c 1
 670.052 520 l 1
 658.508 470 l 1
 358.508 470 l 1
 326.187 330 l 1
 626.187 330 l 1
 614.643 280 l 1
 314.644 280 l 1
 312.334 270 l 2
 284.63 150 324.234 40 489.234 40 c 0
 574.234 40 610.697 55 659.624 85 c 1
 678.08 35 l 1
 612.308 -3 576.383 -20 475.383 -20 c 0
EndSplineSet
EndChar

StartChar: yen
Encoding: 165 165 201
Width: 700
VWidth: 0
Flags: W
HStem: 0 21G<315 389.617> 180 50<123.1 356.557 438.1 671.557> 380 50<169.273 351.273 547.273 717.729> 780 20G<224.694 311.32 748.834 844.694>
LayerCount: 2
Fore
SplineSet
224.694 800 m 1
 304.694 800 l 1
 427.273 430 l 1
 471.273 430 l 1
 764.694 800 l 1
 844.694 800 l 1
 547.273 430 l 1
 729.273 430 l 1
 717.729 380 l 1
 506.729 380 l 1
 458.878 320 l 1
 438.1 230 l 1
 683.1 230 l 1
 671.557 180 l 1
 426.557 180 l 1
 385 0 l 1
 315 0 l 1
 356.557 180 l 1
 111.557 180 l 1
 123.1 230 l 1
 368.1 230 l 1
 388.878 320 l 1
 368.729 380 l 1
 157.729 380 l 1
 169.273 430 l 1
 351.273 430 l 1
 224.694 800 l 1
EndSplineSet
EndChar

StartChar: sterling
Encoding: 163 163 202
Width: 700
Flags: W
HStem: 0 60<183.853 630> 370 50<186.965 279.421 360.965 555.421> 600 21G<628.521 713.989> 760 60<479.202 619.564>
VStem: 279.421 67<297.898 370> 628.521 70<600 749.054>
LayerCount: 2
Fore
SplineSet
569.312 820 m 0
 684.312 820 729.457 734 698.521 600 c 1
 628.521 600 l 1
 645.144 672 653.46 760 555.46 760 c 0
 457.46 760 425.144 672 408.521 600 c 0
 394.669 540 378.586 479 360.965 420 c 1
 566.965 420 l 1
 555.421 370 l 1
 346.421 370 l 1
 295.713 211 236.7 81 183.853 60 c 1
 643.853 60 l 1
 630 0 l 1
 90 0 l 1
 103.853 60 l 1
 182.857 112 235.407 227 279.421 370 c 1
 175.421 370 l 1
 186.965 420 l 1
 293.965 420 l 1
 309.124 477 324.207 538 338.521 600 c 0
 369.457 734 454.312 820 569.312 820 c 0
EndSplineSet
EndChar

StartChar: cent
Encoding: 162 162 203
Width: 640
VWidth: 0
Flags: W
HStem: 81 60<259.615 328.7 392.553 478.633> 659 60<373.653 462.143 525.994 578.68>
LayerCount: 2
Fore
SplineSet
529.325 950 m 1
 579.325 950 l 1
 525.994 719 l 1
 647.224 707 714.062 624 685.434 500 c 1
 615.434 500 l 1
 636.212 590 597.603 648 511.911 658 c 1
 392.553 141 l 1
 482.63 150 546.174 200 566.952 290 c 1
 636.952 290 l 1
 608.324 166 505.009 91 378.7 81 c 1
 325.37 -150 l 1
 275.37 -150 l 1
 328.7 81 l 1
 201.316 88 127.632 163 156.952 290 c 2
 205.435 500 l 2
 234.754 627 345.378 712 475.994 719 c 1
 529.325 950 l 1
342.553 141 m 1
 462.143 659 l 1
 366.526 652 296.905 593 275.434 500 c 2
 226.952 290 l 2
 205.481 197 249.938 147 342.553 141 c 1
EndSplineSet
EndChar

StartChar: copyright
Encoding: 169 169 204
Width: 940
Flags: W
HStem: -20 50<354.552 607.198> 190 51<462.766 610.093> 557 53<521.488 674.198> 770 50<517.496 770.142>
LayerCount: 2
Fore
SplineSet
647.769 770 m 0
 443.769 770 239.444 604 192.348 400 c 0
 145.25 196 272.926 30 476.926 30 c 0
 680.926 30 885.25 196 932.348 400 c 0
 979.444 604 851.769 770 647.769 770 c 0
659.312 820 m 0
 891.312 820 1035.91 632 982.348 400 c 0
 928.786 168 697.383 -20 465.383 -20 c 0
 233.383 -20 88.7861 168 142.348 400 c 0
 195.908 632 427.312 820 659.312 820 c 0
615.83 610 m 0
 713.83 610 766.054 546 746.199 460 c 1
 686.199 460 l 1
 700.744 523 669.594 557 603.594 557 c 0
 537.594 557 490.744 523 476.199 460 c 2
 448.495 340 l 2
 435.104 282 464.64 241 530.64 241 c 0
 596.64 241 645.104 282 658.495 340 c 1
 718.495 340 l 1
 698.641 254 611.865 190 518.865 190 c 0
 424.865 190 368.641 254 388.495 340 c 2
 416.199 460 l 2
 436.054 546 517.83 610 615.83 610 c 0
EndSplineSet
EndChar

StartChar: registered
Encoding: 174 174 205
Width: 940
Flags: W
HStem: -20 50<354.552 607.198> 350 50<482.348 585.804> 550 50<516.978 671.331> 770 50<517.496 770.142>
LayerCount: 2
Fore
SplineSet
633.521 600 m 2
 734.521 600 752.129 529 739.662 475 c 0
 730.658 436 701.577 388 649.267 365 c 1
 706.174 200 l 1
 636.174 200 l 1
 585.804 350 l 1
 470.804 350 l 1
 436.174 200 l 1
 376.174 200 l 1
 468.521 600 l 1
 633.521 600 l 2
616.978 550 m 2
 516.978 550 l 1
 482.348 400 l 1
 582.348 400 l 2
 643.348 400 671.582 440 679.662 475 c 0
 687.743 510 677.978 550 616.978 550 c 2
659.312 820 m 0
 891.312 820 1035.91 632 982.348 400 c 0
 928.786 168 697.383 -20 465.383 -20 c 0
 233.383 -20 88.7861 168 142.348 400 c 0
 195.908 632 427.312 820 659.312 820 c 0
647.769 770 m 0
 443.769 770 239.444 604 192.348 400 c 0
 145.25 196 272.926 30 476.926 30 c 0
 680.926 30 885.25 196 932.348 400 c 0
 979.444 604 851.769 770 647.769 770 c 0
EndSplineSet
EndChar

StartChar: guillemotleft
Encoding: 171 171 206
Width: 600
Flags: W
LayerCount: 2
Fore
SplineSet
443.878 320 m 1
 540.778 90 l 1
 490.778 90 l 1
 373.878 320 l 1
 596.978 550 l 1
 646.978 550 l 1
 443.878 320 l 1
233.878 320 m 1
 330.778 90 l 1
 280.778 90 l 1
 163.878 320 l 1
 386.978 550 l 1
 436.978 550 l 1
 233.878 320 l 1
EndSplineSet
EndChar

StartChar: guillemotright
Encoding: 187 187 207
Width: 600
Flags: W
LayerCount: 2
Fore
SplineSet
303.878 320 m 1
 206.978 550 l 1
 256.978 550 l 1
 373.878 320 l 1
 150.778 90 l 1
 100.778 90 l 1
 303.878 320 l 1
513.878 320 m 1
 416.978 550 l 1
 466.978 550 l 1
 583.878 320 l 1
 360.778 90 l 1
 310.778 90 l 1
 513.878 320 l 1
EndSplineSet
EndChar

StartChar: acute
Encoding: 180 180 208
Width: 420
VWidth: 0
Flags: W
HStem: 620 180
VStem: 213.139 321.556
LayerCount: 2
Fore
SplineSet
534.694 800 m 1
 258.139 620 l 1
 213.139 620 l 1
 424.694 800 l 1
 534.694 800 l 1
EndSplineSet
EndChar

StartChar: exclamdown
Encoding: 161 161 209
Width: 310
VWidth: 0
Flags: W
HStem: 510 120<250.708 332.482>
VStem: 231.595 120<528.657 611.343>
LayerCount: 2
Fore
SplineSet
62.666 -270 m 1
 187.334 270 l 1
 230.039 390 l 1
 270.039 390 l 1
 257.334 270 l 1
 132.666 -270 l 1
 62.666 -270 l 1
351.595 570 m 0
 343.977 537 310.743 510 277.743 510 c 0
 244.743 510 223.977 537 231.595 570 c 0
 239.214 603 272.447 630 305.447 630 c 0
 338.447 630 359.214 603 351.595 570 c 0
EndSplineSet
EndChar

StartChar: brokenbar
Encoding: 166 166 210
Width: 320
Flags: W
HStem: 880 20G<333.164 397.781>
VStem: 88.4434 309.338
LayerCount: 2
Fore
SplineSet
194.644 280 m 1
 254.644 280 l 1
 148.443 -180 l 1
 88.4434 -180 l 1
 194.644 280 l 1
337.781 900 m 1
 397.781 900 l 1
 291.582 440 l 1
 231.582 440 l 1
 337.781 900 l 1
EndSplineSet
EndChar

StartChar: section
Encoding: 167 167 211
Width: 680
Flags: W
HStem: -20 60<240.468 468.527> 760 60<409.075 609.947>
VStem: 129.248 70<78.3639 170> 647.756 70<640 724.919>
LayerCount: 2
Fore
SplineSet
566.723 302 m 1
 587.57 323 599.881 346 605.421 370 c 0
 624.353 452 539.585 466 450.816 480 c 0
 411.202 486 366.511 496 329.436 513 c 1
 302.125 490 286.892 463 281.582 440 c 0
 264.96 368 346.266 352 418.495 340 c 0
 468.417 331 524.57 323 566.723 302 c 1
281.054 546 m 1
 259.364 569 248.29 599 257.756 640 c 0
 276.687 722 381.312 820 529.312 820 c 0
 677.312 820 736.687 722 717.756 640 c 1
 647.756 640 l 1
 659.068 689 631.46 760 515.46 760 c 0
 399.46 760 339.068 689 327.756 640 c 0
 311.133 568 392.439 552 464.669 540 c 0
 570.514 522 706.127 503 675.421 370 c 0
 666.648 332 646.106 295 615.18 265 c 1
 631.87 242 638.944 212 629.248 170 c 0
 606.161 70 502.383 -20 335.383 -20 c 0
 168.383 -20 106.161 70 129.248 170 c 1
 199.248 170 l 1
 184.241 105 225.234 40 349.234 40 c 0
 473.234 40 544.241 105 559.248 170 c 0
 578.179 252 493.411 266 404.644 280 c 0
 309.106 295 185.725 328 211.582 440 c 0
 219.662 475 243.666 514 281.054 546 c 1
EndSplineSet
EndChar

StartChar: endash
Encoding: 8211 8211 213
Width: 670
VWidth: 0
Flags: W
HStem: 295 50<179.649 648.106>
LayerCount: 2
Fore
SplineSet
179.649 345 m 1
 659.649 345 l 1
 648.106 295 l 1
 168.106 295 l 1
 179.649 345 l 1
EndSplineSet
EndChar

StartChar: guilsinglleft
Encoding: 8249 8249 214
Width: 390
Flags: W
VStem: 163.878 273.1
LayerCount: 2
Fore
SplineSet
233.878 320 m 1
 330.778 90 l 1
 280.778 90 l 1
 163.878 320 l 1
 386.978 550 l 1
 436.978 550 l 1
 233.878 320 l 1
EndSplineSet
EndChar

StartChar: guilsinglright
Encoding: 8250 8250 215
Width: 390
Flags: W
VStem: 100.778 273.1
LayerCount: 2
Fore
SplineSet
303.878 320 m 1
 206.978 550 l 1
 256.978 550 l 1
 373.878 320 l 1
 150.778 90 l 1
 100.778 90 l 1
 303.878 320 l 1
EndSplineSet
EndChar

StartChar: ellipsis
Encoding: 8230 8230 216
Width: 860
VWidth: 0
Flags: W
HStem: 0 120<152.965 234.739 402.965 484.739 652.965 734.739>
VStem: 133.853 120<18.6565 101.343> 383.853 120<18.6565 101.343> 633.853 120<18.6565 101.343>
CounterMasks: 1 70
LayerCount: 2
Fore
SplineSet
503.853 60 m 0
 496.233 27 463 0 430 0 c 0
 397 0 376.233 27 383.853 60 c 0
 391.471 93 424.704 120 457.704 120 c 0
 490.704 120 511.471 93 503.853 60 c 0
753.853 60 m 0
 746.233 27 713 0 680 0 c 0
 647 0 626.233 27 633.853 60 c 0
 641.471 93 674.704 120 707.704 120 c 0
 740.704 120 761.471 93 753.853 60 c 0
253.853 60 m 0
 246.233 27 213 0 180 0 c 0
 147 0 126.233 27 133.853 60 c 0
 141.471 93 174.704 120 207.704 120 c 0
 240.704 120 261.471 93 253.853 60 c 0
EndSplineSet
LCarets2: 2 0 0 
Ligature2: "'liga' Latin Standard Ligatures-1" period period period
EndChar

StartChar: trademark
Encoding: 8482 8482 217
Width: 830
VWidth: 0
Flags: W
HStem: 930 30<286.634 376.707 412.707 509.707>
LayerCount: 2
Fore
SplineSet
889.286 560 m 1
 854.286 560 l 1
 930.473 890 l 1
 714.286 560 l 1
 704.286 560 l 1
 694.286 560 l 1
 630.473 890 l 1
 554.286 560 l 1
 519.286 560 l 1
 611.634 960 l 1
 646.634 960 l 1
 651.634 960 l 1
 715.83 610 l 1
 941.634 960 l 1
 946.634 960 l 1
 981.634 960 l 1
 889.286 560 l 1
279.707 930 m 1
 286.634 960 l 1
 383.634 960 l 1
 419.634 960 l 1
 516.634 960 l 1
 509.707 930 l 1
 412.707 930 l 1
 327.286 560 l 1
 291.286 560 l 1
 376.707 930 l 1
 279.707 930 l 1
EndSplineSet
EndChar

StartChar: emdash
Encoding: 8212 8212 218
Width: 970
VWidth: 0
Flags: W
HStem: 295 50<179.649 948.106>
LayerCount: 2
Fore
SplineSet
179.649 345 m 1
 959.649 345 l 1
 948.106 295 l 1
 168.106 295 l 1
 179.649 345 l 1
EndSplineSet
EndChar

StartChar: afii00208
Encoding: 8213 8213 219
Width: 970
VWidth: 0
Flags: W
HStem: 295 50<179.649 948.106>
LayerCount: 2
Fore
SplineSet
179.649 345 m 1
 959.649 345 l 1
 948.106 295 l 1
 168.106 295 l 1
 179.649 345 l 1
EndSplineSet
EndChar

StartChar: ordfeminine
Encoding: 170 170 220
Width: 360
VWidth: 0
Flags: W
HStem: 550 30<253.164 354.898 436.465 448.132> 705 25<274.086 422.762> 840 30<315.465 424.044>
VStem: 202.91 268.858
LayerCount: 2
Fore
SplineSet
422.762 705 m 1
 326.762 705 l 2
 278.762 705 247.914 684 238.91 645 c 0
 230.368 608 251.903 580 303.903 580 c 0
 355.903 580 401.753 614 414.682 670 c 2
 422.762 705 l 1
471.769 770 m 2
 437.139 620 l 2
 430.905 593 436.058 585 455.058 585 c 1
 448.132 555 l 1
 410.132 555 394.595 570 398.521 600 c 1
 374.826 571 338.978 550 290.978 550 c 0
 220.978 550 190.212 590 202.91 645 c 0
 215.839 701 265.534 730 328.534 730 c 2
 428.534 730 l 1
 437.769 770 l 2
 445.618 804 435.93 840 373.43 840 c 0
 310.93 840 285.618 804 277.769 770 c 1
 241.769 770 l 1
 255.852 831 310.855 870 380.355 870 c 0
 449.855 870 485.852 831 471.769 770 c 2
EndSplineSet
EndChar

StartChar: uni00AD
Encoding: 173 173 221
Width: 560
VWidth: 0
Flags: W
HStem: 295 50<169.649 538.106>
VStem: 158.106 391.543
LayerCount: 2
Fore
SplineSet
169.649 345 m 1
 549.649 345 l 1
 538.106 295 l 1
 158.106 295 l 1
 169.649 345 l 1
EndSplineSet
EndChar

StartChar: degree
Encoding: 176 176 222
Width: 380
VWidth: 0
Flags: W
HStem: 670 50<292.836 429.357> 940 50<333.884 470.405>
LayerCount: 2
Fore
SplineSet
407.016 940 m 0
 346.016 940 285.703 891 271.621 830 c 0
 257.538 769 295.225 720 356.225 720 c 0
 417.225 720 477.538 769 491.621 830 c 0
 505.703 891 468.016 940 407.016 940 c 0
418.56 990 m 0
 506.56 990 561.938 918 541.621 830 c 0
 521.305 742 432.682 670 344.682 670 c 0
 256.682 670 201.305 742 221.621 830 c 0
 241.937 918 330.56 990 418.56 990 c 0
EndSplineSet
EndChar

StartChar: plusminus
Encoding: 177 177 223
Width: 560
VWidth: 0
Flags: W
HStem: 85 50<121.167 489.624> 380 50<189.273 337.729 409.273 557.729>
LayerCount: 2
Fore
SplineSet
363.1 230 m 1
 303.1 230 l 1
 337.729 380 l 1
 177.729 380 l 1
 189.273 430 l 1
 349.273 430 l 1
 383.903 580 l 1
 443.903 580 l 1
 409.273 430 l 1
 569.273 430 l 1
 557.729 380 l 1
 397.729 380 l 1
 363.1 230 l 1
121.167 135 m 1
 501.167 135 l 1
 489.624 85 l 1
 109.624 85 l 1
 121.167 135 l 1
EndSplineSet
EndChar

StartChar: uni00B2
Encoding: 178 178 224
Width: 360
Flags: W
HStem: 560 30<236.212 429.286> 940 30<345.117 442.386>
VStem: 189.286 303.799
LayerCount: 2
Fore
SplineSet
458.085 858 m 0
 466.627 895 455.016 940 397.016 940 c 0
 339.016 940 306.627 895 298.085 858 c 1
 263.085 858 l 1
 277.398 920 333.942 970 403.942 970 c 0
 473.942 970 507.398 920 493.085 858 c 0
 480.618 804 421.69 761 368.534 730 c 0
 306.223 694 251.911 658 236.212 590 c 1
 436.212 590 l 1
 429.286 560 l 1
 189.286 560 l 1
 196.212 590 l 2
 213.758 666 268.993 706 331.305 742 c 0
 378.999 771 446.772 809 458.085 858 c 0
EndSplineSet
EndChar

StartChar: uni00B3
Encoding: 179 179 225
Width: 360
Flags: W
HStem: 550 30<269.531 375.545> 752 30<330.539 410.57> 940 30<350.116 447.411>
VStem: 214.682 283.403
LayerCount: 2
Fore
SplineSet
214.682 670 m 1
 249.682 670 l 1
 239.985 628 253.903 580 318.903 580 c 0
 383.903 580 419.985 628 429.682 670 c 0
 439.378 712 423.613 752 358.613 752 c 2
 323.613 752 l 1
 330.539 782 l 1
 365.539 782 l 2
 424.539 782 454.312 820 462.97 857.5 c 0
 471.627 895 461.016 940 402.016 940 c 0
 343.016 940 311.627 895 303.085 858 c 1
 268.085 858 l 1
 282.398 920 339.942 970 408.942 970 c 0
 477.942 970 512.398 920 498.085 858 c 0
 488.851 818 463.693 787 428.538 769 c 1
 461.382 751 475.302 716 464.682 670 c 0
 448.752 601 388.978 550 311.978 550 c 0
 234.978 550 198.752 601 214.682 670 c 1
EndSplineSet
EndChar

StartChar: periodcentered
Encoding: 183 183 226
Width: 320
VWidth: 0
Flags: W
HStem: 250 120<190.682 272.456>
VStem: 171.569 120<268.657 351.343>
LayerCount: 2
Fore
SplineSet
291.569 310 m 0
 283.95 277 250.717 250 217.717 250 c 0
 184.717 250 163.95 277 171.569 310 c 0
 179.188 343 212.421 370 245.421 370 c 0
 278.421 370 299.188 343 291.569 310 c 0
EndSplineSet
EndChar

StartChar: uni00B9
Encoding: 185 185 227
Width: 290
Flags: W
HStem: 835 30<249.701 312.72>
VStem: 242.775 198.858
LayerCount: 2
Fore
SplineSet
390.473 890 m 1
 362.085 858 292.775 835 242.775 835 c 1
 249.701 865 l 1
 307.701 865 395.782 913 406.634 960 c 1
 441.634 960 l 1
 349.286 560 l 1
 314.286 560 l 1
 390.473 890 l 1
EndSplineSet
EndChar

StartChar: ordmasculine
Encoding: 186 186 228
Width: 360
VWidth: 0
Flags: W
HStem: 550 30<259.476 364.936> 840 30<312.832 417.941>
LayerCount: 2
Fore
SplineSet
368.93 840 m 0
 313.93 840 270.618 804 255.843 740 c 2
 239.682 670 l 2
 227.215 616 251.903 580 308.903 580 c 0
 365.903 580 407.215 616 419.682 670 c 2
 435.843 740 l 2
 450.618 804 423.93 840 368.93 840 c 0
375.855 870 m 0
 445.855 870 490.235 824 470.843 740 c 2
 454.682 670 l 2
 435.75 588 370.978 550 301.978 550 c 0
 232.978 550 185.751 588 204.682 670 c 2
 220.843 740 l 2
 240.235 824 305.855 870 375.855 870 c 0
EndSplineSet
EndChar

StartChar: questiondown
Encoding: 191 191 229
Width: 600
VWidth: 0
Flags: W
HStem: -20 60<202.782 386.907> 680 120<419.955 501.729>
VStem: 384.286 70<474.951 560> 400.843 120<698.657 781.343> 486.174 70<137.875 265>
LayerCount: 2
Fore
SplineSet
486.18 265 m 1xe8
 556.952 290 l 1
 562.949 264 563.792 233 556.174 200 c 0
 525.468 67 403.383 -20 275.383 -20 c 0
 147.383 -20 65.4678 67 96.1738 200 c 0
 121.8 311 206.728 354 299.656 410 c 0
 356.506 444 367.433 487 384.286 560 c 1
 454.286 560 l 1
 430.507 457 413.579 414 299.649 345 c 0
 228.723 302 183.027 273 166.174 200 c 0
 145.857 112 185.234 40 289.234 40 c 0
 393.234 40 465.857 112 486.174 200 c 0
 492.176 226 491.562 245 486.18 265 c 1xe8
400.843 740 m 0xd0
 408.461 773 441.694 800 474.694 800 c 0
 507.694 800 528.461 773 520.843 740 c 0
 513.224 707 479.99 680 446.99 680 c 0
 413.99 680 393.224 707 400.843 740 c 0xd0
EndSplineSet
EndChar

StartChar: dagger
Encoding: 8224 8224 230
Width: 580
VWidth: 0
Flags: W
HStem: 570 30<208.521 401.595 448.521 641.595> 880 20G<473.164 517.781>
LayerCount: 2
Fore
SplineSet
517.781 900 m 1
 448.521 600 l 1
 648.521 600 l 1
 641.595 570 l 1
 441.595 570 l 1
 247.666 -270 l 1
 207.666 -270 l 1
 401.595 570 l 1
 201.595 570 l 1
 208.521 600 l 1
 408.521 600 l 1
 477.781 900 l 1
 517.781 900 l 1
EndSplineSet
EndChar

StartChar: bullet
Encoding: 8226 8226 231
Width: 440
VWidth: 0
Flags: W
HStem: 200 220<241.111 342.028>
VStem: 181.569 220
LayerCount: 2
Fore
SplineSet
401.569 310 m 0
 387.486 249 327.174 200 266.174 200 c 0
 205.174 200 167.486 249 181.569 310 c 0
 195.652 371 255.965 420 316.965 420 c 0
 377.965 420 415.652 371 401.569 310 c 0
EndSplineSet
EndChar

StartChar: uni2010
Encoding: 8208 8208 232
Width: 560
VWidth: 0
Flags: W
HStem: 295 50<169.649 538.106>
VStem: 158.106 391.543
LayerCount: 2
Fore
SplineSet
169.649 345 m 1
 549.649 345 l 1
 538.106 295 l 1
 158.106 295 l 1
 169.649 345 l 1
EndSplineSet
EndChar

StartChar: uni2011
Encoding: 8209 8209 233
Width: 560
VWidth: 0
Flags: W
HStem: 295 50<169.649 538.106>
VStem: 158.106 391.543
LayerCount: 2
Fore
SplineSet
169.649 345 m 1
 549.649 345 l 1
 538.106 295 l 1
 158.106 295 l 1
 169.649 345 l 1
EndSplineSet
EndChar

StartChar: perthousand
Encoding: 8240 8240 234
Width: 1170
VWidth: 0
Flags: W
HStem: -10 50<552.951 657.554 902.951 1007.55> 0 21G<100 188.867> 300 50<600.941 705.544 950.941 1055.54> 450 50<295.548 406.299> 760 50<344.594 455.346> 780 20G<835.827 924.694>
LayerCount: 2
Fore
SplineSet
854.694 800 m 1x74
 924.694 800 l 1
 170 0 l 1
 100 0 l 1
 854.694 800 l 1x74
417.003 810 m 0x38
 506.003 810 548.303 729 525.447 630 c 0
 502.591 531 422.891 450 333.891 450 c 0
 244.891 450 202.591 531 225.447 630 c 0
 248.303 729 328.003 810 417.003 810 c 0x38
405.46 760 m 0
 343.46 760 299.761 692 285.447 630 c 0
 271.133 568 283.434 500 345.434 500 c 0
 407.434 500 451.133 568 465.447 630 c 0
 479.761 692 467.46 760 405.46 760 c 0
670.804 350 m 0
 759.804 350 792.104 269 769.248 170 c 0
 746.392 71 676.691 -10 587.691 -10 c 0xb0
 498.691 -10 466.392 71 489.248 170 c 0
 512.104 269 581.804 350 670.804 350 c 0
659.261 300 m 0
 597.261 300 563.562 232 549.248 170 c 0
 534.934 108 537.234 40 599.234 40 c 0
 661.234 40 694.934 108 709.248 170 c 0
 723.562 232 721.261 300 659.261 300 c 0
1020.8 350 m 0
 1109.8 350 1142.1 269 1119.25 170 c 0
 1096.39 71 1026.69 -10 937.691 -10 c 0
 848.691 -10 816.392 71 839.248 170 c 0
 862.104 269 931.804 350 1020.8 350 c 0
1009.26 300 m 0
 947.261 300 913.562 232 899.248 170 c 0
 884.934 108 887.234 40 949.234 40 c 0
 1011.23 40 1044.93 108 1059.25 170 c 0
 1073.56 232 1071.26 300 1009.26 300 c 0
EndSplineSet
EndChar

StartChar: dotlessi
Encoding: 305 305 235
Width: 320
VWidth: 0
Flags: W
HStem: 0 21G<125 199.617> 580 20G<258.903 333.521>
VStem: 125 208.521
AnchorPoint: "hook_above" 316.99 680 basechar 0
AnchorPoint: "diac_top" 310.064 650 basechar 0
AnchorPoint: "ogonek" 179.234 40 basechar 0
AnchorPoint: "diac_bottom" 148.457 -50 basechar 0
LayerCount: 2
Fore
SplineSet
263.521 600 m 1
 333.521 600 l 1
 195 0 l 1
 125 0 l 1
 263.521 600 l 1
EndSplineSet
EndChar

StartChar: uni0237
Encoding: 567 567 236
Width: 340
VWidth: 0
Flags: W
HStem: -290 60<-33.0996 64.1176> 580 20G<283.903 358.521>
AnchorPoint: "diac_top" 330.064 650 basechar 0
AnchorPoint: "diac_bottom" 347.2 -50 basechar 0
LayerCount: 2
Fore
SplineSet
196.913 -100 m 2
 169.901 -217 100.048 -290 -46.9521 -290 c 1
 -33.0996 -230 l 1
 59.9004 -230 106.828 -187 126.913 -100 c 2
 288.521 600 l 1
 358.521 600 l 1
 196.913 -100 l 2
EndSplineSet
EndChar

StartChar: ae
Encoding: 230 230 237
Width: 1060
VWidth: 0
Flags: W
HStem: -20 60<230.125 428.171 640.83 848.159> 290 50<267.166 556.952 638.495 978.495> 560 60<358.476 559.76 757.764 949.458>
VStem: 206.965 70<420 482.159>
AnchorPoint: "diac_top" 680.064 650 basechar 0
AnchorPoint: "diac_bottom" 518.457 -50 basechar 0
LayerCount: 2
Fore
SplineSet
199.248 170 m 0
 181.933 95 222.234 40 324.234 40 c 0
 430.234 40 514.934 108 540.791 220 c 2
 556.952 290 l 1
 371.952 290 l 2
 274.952 290 217.024 247 199.248 170 c 0
983.112 360 m 2
 1012.89 489 969.286 560 859.286 560 c 0
 749.286 560 672.895 489 643.112 360 c 2
 638.495 340 l 1
 978.495 340 l 1
 983.112 360 l 2
586.965 420 m 2
 602.433 487 589.286 560 464.286 560 c 0
 339.286 560 292.433 487 276.965 420 c 1
 206.965 420 l 1
 235.131 542 339.139 620 478.139 620 c 0
 572.139 620 633.827 584 654.975 524 c 1
 711.52 587 789.139 620 873.139 620 c 0
 1012.14 620 1091.9 528 1053.11 360 c 2
 1036.95 290 l 1
 626.952 290 l 1
 606.174 200 l 2
 583.317 101 626.234 40 739.234 40 c 0
 852.234 40 923.317 101 946.174 200 c 1
 1016.17 200 l 1
 980.851 47 853.383 -20 725.383 -20 c 0
 636.383 -20 562.001 13 537.393 84 c 1
 485.31 23 406.383 -20 300.383 -20 c 0
 159.383 -20 103.853 60 129.248 170 c 0
 155.104 282 248.495 340 373.495 340 c 2
 568.495 340 l 1
 573.112 360 l 1
 586.965 420 l 2
EndSplineSet
EndChar

StartChar: AE
Encoding: 198 198 238
Width: 1000
VWidth: 0
Flags: W
HStem: 0 60<563.853 920> 180 60<292.408 521.557> 375 60<650.428 966.575> 740 60<720.843 1080.84>
AnchorPoint: "diac_top" 836.238 850 basechar 0
AnchorPoint: "diac_bottom" 628.457 -50 basechar 0
LayerCount: 2
Fore
SplineSet
580.428 435 m 1
 650.381 738 l 1
 292.408 240 l 1
 535.408 240 l 1
 566.575 375 l 1
 580.428 435 l 1
120 0 m 1
 40 0 l 1
 624.694 800 l 1
 664.694 800 l 1
 694.694 800 l 1
 734.694 800 l 1
 1094.69 800 l 1
 1080.84 740 l 1
 720.843 740 l 1
 650.428 435 l 1
 980.428 435 l 1
 966.575 375 l 1
 636.575 375 l 1
 563.853 60 l 1
 933.853 60 l 1
 920 0 l 1
 550 0 l 1
 480 0 l 1
 493.853 60 l 1
 521.557 180 l 1
 249.557 180 l 1
 120 0 l 1
EndSplineSet
EndChar

StartChar: Aring
Encoding: 197 197 239
Width: 800
VWidth: 0
HStem: 0 21G<40 132.506 676.729 760> 180 60<269.408 641.408> 960 50<564.027 668.671>
AnchorPoint: "diac_top" 637.794 1030 basechar 0
LayerCount: 2
Fore
SplineSet
621.634 960 m 0
 583.634 960 544.477 929 535.473 890 c 0
 526.469 851 551.312 820 589.312 820 c 0
 629.312 820 666.469 851 675.473 890 c 0
 684.477 929 661.634 960 621.634 960 c 0
633.177 1010 m 0
 700.177 1010 740.71 956 725.473 890 c 0
 713.698 839 672.771 796 623.615 778 c 1
 760 0 l 1
 680 0 l 1
 650.557 180 l 1
 232.557 180 l 1
 120 0 l 1
 40 0 l 1
 535.615 778 l 1
 495.771 796 473.93 840 485.473 890 c 0
 500.71 956 568.177 1010 633.177 1010 c 0
641.408 240 m 1
 564.147 711 l 1
 269.408 240 l 1
 641.408 240 l 1
EndSplineSet
EndChar

StartChar: multiply
Encoding: 215 215 240
Width: 560
VWidth: 0
Flags: W
HStem: 140 361
LayerCount: 2
Fore
SplineSet
167.321 140 m 1
 140.633 176 l 1
 319.108 321 l 1
 207.585 466 l 1
 250.665 501 l 1
 362.189 356 l 1
 540.665 501 l 1
 568.585 466 l 1
 390.108 321 l 1
 501.633 176 l 1
 457.321 140 l 1
 345.798 285 l 1
 167.321 140 l 1
EndSplineSet
EndChar

StartChar: divide
Encoding: 247 247 241
Width: 560
VWidth: 0
Flags: W
HStem: 90 120<273.743 355.517> 295 50<159.649 548.106> 430 120<352.238 434.012>
CounterMasks: 1 e0
LayerCount: 2
Fore
SplineSet
374.63 150 m 0
 367.012 117 333.778 90 300.778 90 c 0
 267.778 90 247.012 117 254.63 150 c 0
 262.249 183 295.482 210 328.482 210 c 0
 361.482 210 382.249 183 374.63 150 c 0
453.125 490 m 0
 445.507 457 412.273 430 379.273 430 c 0
 346.273 430 325.507 457 333.125 490 c 0
 340.744 523 373.978 550 406.978 550 c 0
 439.978 550 460.744 523 453.125 490 c 0
159.649 345 m 1
 559.649 345 l 1
 548.106 295 l 1
 148.106 295 l 1
 159.649 345 l 1
EndSplineSet
EndChar

StartChar: thorn
Encoding: 254 254 242
Width: 710
VWidth: 0
Flags: W
HStem: -20 60<281.554 478.31> 560 60<407.646 589.487> 880 20G<313.164 387.781>
LayerCount: 2
Fore
SplineSet
317.781 900 m 1
 387.781 900 l 1
 318.521 600 l 1
 299.128 516 l 1
 354.98 576 436.139 620 523.139 620 c 0
 679.139 620 739.82 519 703.112 360 c 2
 680.025 260 l 2
 636.622 72 519.383 -20 375.383 -20 c 0
 281.383 -20 224.617 20 198.008 78 c 1
 117.666 -270 l 1
 47.666 -270 l 1
 248.521 600 l 1
 317.781 900 l 1
280.658 436 m 1
 221.787 181 l 1
 227.317 101 278.234 40 369.234 40 c 0
 486.234 40 575.626 111 610.025 260 c 2
 633.112 360 l 2
 662.895 489 611.286 560 489.286 560 c 0
 399.286 560 318.511 496 280.658 436 c 1
EndSplineSet
EndChar

StartChar: germandbls
Encoding: 223 223 243
Width: 850
VWidth: 0
Flags: W
HStem: -270 60<261.518 547.952> 0 21G<170 244.617> 210 60<552.334 632.687> 540 60<188.521 294.669 378.521 754.669> 840 60<466.712 563.93>
LayerCount: 2
Fore
SplineSet
174.669 540 m 1
 188.521 600 l 1
 308.521 600 l 1
 333.916 710 l 2
 360.928 827 430.781 900 577.781 900 c 1
 563.93 840 l 1
 470.93 840 424.002 797 403.916 710 c 2
 378.521 600 l 1
 448.521 600 l 1
 508.521 600 l 1
 848.521 600 l 1
 834.669 540 l 1
 552.334 270 l 1
 704.719 263 812.941 186 770 0 c 0
 725.212 -194 570.666 -270 407.666 -270 c 2
 247.666 -270 l 1
 261.518 -210 l 1
 421.518 -210 l 2
 548.518 -210 666.062 -147 700 0 c 0
 733.938 147 645.482 210 518.482 210 c 2
 458.482 210 l 1
 460.791 220 l 1
 472.334 270 l 1
 754.669 540 l 1
 494.669 540 l 1
 434.669 540 l 1
 364.669 540 l 1
 240 0 l 1
 170 0 l 1
 294.669 540 l 1
 174.669 540 l 1
EndSplineSet
EndChar

StartChar: Oslash
Encoding: 216 216 244
Width: 800
VWidth: 0
Flags: W
HStem: -20 60<292.567 532.405> 0 21G<90 158.799> 760 60<453.195 689.542> 780 20G<825.939 894.694>
AnchorPoint: "diac_top" 596.238 850 basechar 0
AnchorPoint: "diac_bottom" 388.457 -50 basechar 0
LayerCount: 2
Fore
SplineSet
844.694 800 m 1x10
 894.694 800 l 1
 811.378 712 l 1
 840.065 663 848.06 598 830.052 520 c 2
 772.334 270 l 2
 730.316 88 575.383 -20 395.383 -20 c 0x90
 306.383 -20 235.385 6 191.697 55 c 1
 140 0 l 1
 90 0 l 1
 170.624 85 l 1
 142.705 133 135.02 195 152.334 270 c 2
 210.052 520 l 2
 252.993 706 412.312 820 589.312 820 c 0x60
 676.312 820 747.078 793 790.305 742 c 1
 844.694 800 l 1x10
243.396 110 m 1
 273.468 67 327.234 40 409.234 40 c 0
 574.234 40 674.63 150 702.334 270 c 2
 760.052 520 l 2
 771.364 569 770.984 615 756.988 654 c 1
 243.396 110 l 1
226.245 144 m 1
 740.068 689 l 1
 709.995 732 656.46 760 575.46 760 c 0x20
 412.46 760 309.833 649 280.052 520 c 2
 222.334 270 l 2
 211.945 225 212.787 181 226.245 144 c 1
EndSplineSet
EndChar

StartChar: Thorn
Encoding: 222 222 245
Width: 740
VWidth: 0
Flags: W
HStem: 0 21G<110 184.617> 220 60<244.644 584.345> 640 60<341.607 653.648> 780 20G<290.077 364.694>
LayerCount: 2
Fore
SplineSet
571.607 700 m 2
 772.607 700 801.133 568 776.199 460 c 0
 751.266 352 661.791 220 460.791 220 c 2
 230.791 220 l 1
 180 0 l 1
 110 0 l 1
 294.694 800 l 1
 364.694 800 l 1
 341.607 700 l 1
 571.607 700 l 2
557.756 640 m 2
 327.756 640 l 1
 244.644 280 l 1
 474.644 280 l 2
 597.643 280 682.65 358 706.199 460 c 0
 729.748 562 680.756 640 557.756 640 c 2
EndSplineSet
EndChar

StartChar: oslash
Encoding: 248 248 246
Width: 660
VWidth: 0
Flags: W
HStem: -20 60<242.345 449.467> 0 21G<80 144.881> 560 60<354.258 552.563> 580 20G<654.02 718.521>
AnchorPoint: "diac_top" 490.064 650 basechar 0
AnchorPoint: "diac_bottom" 307.2 -50 basechar 0
AnchorPoint: "cedilla" 366.238 40 basechar 0
AnchorPoint: "ogonek" 366.238 40 basechar 0
LayerCount: 2
Fore
SplineSet
673.521 600 m 1x10
 718.521 600 l 1
 649.591 531 l 1
 672.664 488 679.504 431 663.112 360 c 2
 630.791 220 l 2
 593.159 57 463.383 -20 325.383 -20 c 0x90
 256.383 -20 198.77 -1 162.773 38 c 1
 125 0 l 1
 80 0 l 1
 143.775 64 l 1
 121.779 103 115.554 154 130.791 220 c 2
 163.112 360 l 2
 201.898 528 333.139 620 473.139 620 c 0x60
 541.139 620 596.29 599 631.594 557 c 1
 673.521 600 l 1x10
459.286 560 m 0x20
 349.286 560 262.895 489 233.112 360 c 2
 200.791 220 l 2
 192.018 182 192.399 149 201.166 122 c 1
 580.819 506 l 1
 556.899 541 515.286 560 459.286 560 c 0x20
594.662 475 m 1
 215.24 92 l 1
 238.621 59 280.234 40 339.234 40 c 0x80
 454.234 40 535.626 111 560.791 220 c 2
 593.112 360 l 2
 603.732 406 603.506 444 594.662 475 c 1
EndSplineSet
EndChar

StartChar: cedilla
Encoding: 184 184 247
Width: 560
VWidth: 0
Flags: W
HStem: -360 50<110.659 316.072> -150 50<170.913 343.019>
VStem: 36.9004 60<-291.914 -230>
LayerCount: 2
Fore
SplineSet
244.617 20 m 1
 294.617 20 l 1
 170.913 -100 l 1
 256.913 -100 l 2
 385.913 -100 434.908 -152 416.9 -230 c 0
 398.893 -308 325.888 -360 196.888 -360 c 0
 67.8877 -360 18.8926 -308 36.9004 -230 c 1
 96.9004 -230 l 1
 82.8174 -291 138.431 -310 208.431 -310 c 0
 278.431 -310 342.817 -291 356.9 -230 c 0
 370.983 -169 315.37 -150 245.37 -150 c 2
 125.37 -150 l 1
 116.913 -100 l 1
 244.617 20 l 1
EndSplineSet
EndChar

